<svg width="260" height="171" viewBox="0 0 260 171" fill="none" xmlns="http://www.w3.org/2000/svg">
<rect width="260" height="171" fill="#F5F5F5"/>
<rect width="260" height="171" fill="#96D4D4"/>
<path d="M76.5922 100H72.3451L84.6292 66.5455H88.811L101.095 100H96.8479L86.8508 71.8381H86.5894L76.5922 100ZM78.1604 86.9318H95.2797V90.5256H78.1604V86.9318ZM119.113 66.5455H123.164V90.4602C123.164 92.5947 122.772 94.4079 121.988 95.8999C121.204 97.3918 120.098 98.5244 118.672 99.2976C117.245 100.071 115.563 100.457 113.624 100.457C111.795 100.457 110.167 100.125 108.74 99.4609C107.313 98.7857 106.192 97.8274 105.375 96.5859C104.558 95.3445 104.15 93.8688 104.15 92.1591H108.136C108.136 93.1065 108.37 93.9342 108.838 94.642C109.317 95.339 109.971 95.8835 110.798 96.2756C111.626 96.6676 112.568 96.8636 113.624 96.8636C114.789 96.8636 115.78 96.6186 116.597 96.1286C117.414 95.6385 118.035 94.9197 118.459 93.9723C118.895 93.014 119.113 91.8433 119.113 90.4602V66.5455ZM132.655 100H128.408L140.692 66.5455H144.873L157.158 100H152.91L142.913 71.8381H142.652L132.655 100ZM134.223 86.9318H151.342V90.5256H134.223V86.9318ZM164.329 66.5455L172.954 80.4631H173.215L181.84 66.5455H186.61L176.09 83.2727L186.61 100H181.84L173.215 86.3438H172.954L164.329 100H159.559L170.34 83.2727L159.559 66.5455H164.329Z" fill="black"/>
</svg>
