<svg width="260" height="171" viewBox="0 0 260 171" fill="none" xmlns="http://www.w3.org/2000/svg">
<rect width="260" height="171" fill="#F5F5F5"/>
<rect width="260" height="171" fill="#F3ECEA"/>
<path d="M26.4233 105H22.1761L34.4602 71.5455H38.642L50.9261 105H46.679L36.6818 76.8381H36.4205L26.4233 105ZM27.9915 91.9318H45.1108V95.5256H27.9915V91.9318ZM59.4695 89.9062V105H55.6143V79.9091H59.3388V83.8295H59.6655C60.2536 82.5554 61.1465 81.5317 62.3445 80.7585C63.5424 79.9744 65.0888 79.5824 66.9837 79.5824C68.6825 79.5824 70.169 79.9309 71.4432 80.6278C72.7173 81.3139 73.7083 82.3594 74.4162 83.7642C75.1241 85.1581 75.478 86.9223 75.478 89.0568V105H71.6229V89.3182C71.6229 87.3471 71.111 85.8116 70.0874 84.7116C69.0637 83.6009 67.6589 83.0455 65.8729 83.0455C64.6423 83.0455 63.5424 83.3123 62.5732 83.8459C61.6148 84.3795 60.858 85.1581 60.3026 86.1818C59.7472 87.2055 59.4695 88.447 59.4695 89.9062ZM92.6504 114.932C90.7882 114.932 89.1873 114.692 87.8478 114.213C86.5083 113.745 85.3921 113.124 84.4991 112.351C83.617 111.589 82.9146 110.772 82.3919 109.901L85.4629 107.744C85.8114 108.202 86.2524 108.724 86.786 109.312C87.3197 109.911 88.0493 110.429 88.975 110.864C89.9115 111.311 91.1367 111.534 92.6504 111.534C94.676 111.534 96.3476 111.044 97.6653 110.064C98.983 109.084 99.6419 107.548 99.6419 105.457V100.361H99.3152C99.032 100.818 98.6291 101.384 98.1064 102.06C97.5945 102.724 96.854 103.317 95.8848 103.84C94.9264 104.352 93.6305 104.608 91.997 104.608C89.9714 104.608 88.1528 104.129 86.541 103.17C84.9402 102.212 83.6715 100.818 82.7349 98.9886C81.8092 97.1591 81.3464 94.9375 81.3464 92.3239C81.3464 89.7538 81.7984 87.5159 82.7022 85.6101C83.6061 83.6934 84.8639 82.2124 86.4757 81.1669C88.0874 80.1106 89.9496 79.5824 92.0623 79.5824C93.6958 79.5824 94.9918 79.8546 95.9501 80.3991C96.9193 80.9328 97.6599 81.5426 98.1717 82.2287C98.6944 82.9039 99.0974 83.4593 99.3805 83.8949H99.7726V79.9091H103.497V105.719C103.497 107.875 103.007 109.628 102.027 110.979C101.058 112.34 99.7508 113.336 98.1064 113.968C96.4728 114.611 94.6542 114.932 92.6504 114.932ZM92.5197 101.145C94.0661 101.145 95.3729 100.791 96.4402 100.083C97.5074 99.3752 98.3187 98.357 98.8741 97.0284C99.4295 95.6998 99.7072 94.1098 99.7072 92.2585C99.7072 90.4508 99.435 88.8554 98.8904 87.4723C98.3459 86.0893 97.5401 85.0057 96.4728 84.2216C95.4056 83.4375 94.0879 83.0455 92.5197 83.0455C90.8862 83.0455 89.5249 83.4593 88.4359 84.2869C87.3578 85.1146 86.5465 86.2254 86.002 87.6193C85.4683 89.0133 85.2015 90.5597 85.2015 92.2585C85.2015 94.0009 85.4738 95.5419 86.0183 96.8814C86.5737 98.21 87.3904 99.2554 88.4686 100.018C89.5576 100.769 90.908 101.145 92.5197 101.145ZM126.366 94.7415V79.9091H130.221V105H126.366V100.753H126.105C125.517 102.027 124.602 103.111 123.361 104.004C122.119 104.886 120.551 105.327 118.656 105.327C117.088 105.327 115.694 104.984 114.474 104.298C113.255 103.601 112.296 102.555 111.599 101.161C110.902 99.7564 110.554 97.9867 110.554 95.8523V79.9091H114.409V95.5909C114.409 97.4205 114.921 98.8797 115.944 99.9688C116.979 101.058 118.297 101.602 119.898 101.602C120.856 101.602 121.831 101.357 122.822 100.867C123.823 100.377 124.662 99.6257 125.337 98.6129C126.023 97.6001 126.366 96.3097 126.366 94.7415ZM141.137 71.5455V105H137.282V71.5455H141.137ZM155.582 105.588C153.992 105.588 152.549 105.289 151.253 104.69C149.957 104.08 148.928 103.203 148.166 102.06C147.403 100.905 147.022 99.5114 147.022 97.8778C147.022 96.4403 147.305 95.2751 147.872 94.3821C148.438 93.4782 149.195 92.7704 150.142 92.2585C151.09 91.7467 152.135 91.3655 153.279 91.1151C154.433 90.8537 155.593 90.6468 156.758 90.4943C158.283 90.2983 159.519 90.1513 160.466 90.0533C161.424 89.9444 162.121 89.7647 162.557 89.5142C163.003 89.2637 163.227 88.8281 163.227 88.2074V88.0767C163.227 86.465 162.786 85.2126 161.904 84.3196C161.032 83.4266 159.709 82.9801 157.934 82.9801C156.094 82.9801 154.651 83.383 153.605 84.1889C152.56 84.9948 151.825 85.8551 151.4 86.7699L147.741 85.4631C148.394 83.9384 149.266 82.7514 150.355 81.902C151.454 81.0417 152.652 80.4427 153.948 80.1051C155.255 79.7566 156.54 79.5824 157.803 79.5824C158.609 79.5824 159.535 79.6804 160.58 79.8764C161.637 80.0616 162.655 80.4482 163.635 81.0362C164.626 81.6243 165.448 82.5118 166.102 83.6989C166.755 84.8859 167.082 86.4759 167.082 88.4688V105H163.227V101.602H163.031C162.769 102.147 162.334 102.729 161.724 103.35C161.114 103.971 160.303 104.499 159.29 104.935C158.277 105.37 157.041 105.588 155.582 105.588ZM156.17 102.125C157.695 102.125 158.98 101.826 160.025 101.227C161.081 100.628 161.876 99.8544 162.41 98.907C162.954 97.9595 163.227 96.9631 163.227 95.9176V92.3892C163.063 92.5852 162.704 92.7649 162.149 92.9283C161.604 93.0807 160.972 93.2169 160.254 93.3366C159.546 93.4455 158.854 93.5436 158.179 93.6307C157.515 93.7069 156.976 93.7723 156.562 93.8267C155.56 93.9574 154.624 94.1697 153.752 94.4638C152.892 94.7469 152.195 95.1771 151.661 95.7543C151.139 96.3205 150.877 97.0937 150.877 98.0739C150.877 99.4134 151.373 100.426 152.364 101.112C153.366 101.787 154.634 102.125 156.17 102.125ZM174.118 105V79.9091H177.843V83.6989H178.104C178.561 82.4574 179.389 81.45 180.587 80.6768C181.785 79.9036 183.135 79.517 184.638 79.517C184.921 79.517 185.275 79.5225 185.7 79.5334C186.125 79.5443 186.446 79.5606 186.664 79.5824V83.5028C186.533 83.4702 186.234 83.4212 185.765 83.3558C185.308 83.2796 184.823 83.2415 184.311 83.2415C183.092 83.2415 182.003 83.4974 181.044 84.0092C180.097 84.5102 179.346 85.2071 178.79 86.1001C178.246 86.9822 177.973 87.9896 177.973 89.1222V105H174.118ZM201.958 71.5455H206.009V95.4602C206.009 97.5947 205.617 99.4079 204.833 100.9C204.048 102.392 202.943 103.524 201.517 104.298C200.09 105.071 198.407 105.457 196.469 105.457C194.639 105.457 193.011 105.125 191.585 104.461C190.158 103.786 189.036 102.827 188.22 101.586C187.403 100.344 186.994 98.8688 186.994 97.1591H190.98C190.98 98.1065 191.214 98.9342 191.683 99.642C192.162 100.339 192.815 100.884 193.643 101.276C194.471 101.668 195.413 101.864 196.469 101.864C197.634 101.864 198.625 101.619 199.442 101.129C200.259 100.638 200.879 99.9197 201.304 98.9723C201.74 98.014 201.958 96.8433 201.958 95.4602V71.5455ZM232.423 79.9091C232.227 78.2538 231.432 76.9688 230.038 76.054C228.644 75.1392 226.934 74.6818 224.909 74.6818C223.427 74.6818 222.132 74.9214 221.021 75.4006C219.921 75.8797 219.061 76.5386 218.44 77.3771C217.83 78.2157 217.525 79.1686 217.525 80.2358C217.525 81.1288 217.737 81.8965 218.162 82.5391C218.598 83.1707 219.153 83.6989 219.828 84.1236C220.503 84.5374 221.211 84.8804 221.952 85.1527C222.692 85.4141 223.373 85.6264 223.994 85.7898L227.392 86.7045C228.263 86.9332 229.232 87.2491 230.299 87.652C231.377 88.0549 232.406 88.6049 233.387 89.3018C234.378 89.9879 235.194 90.87 235.837 91.9482C236.479 93.0263 236.801 94.3494 236.801 95.9176C236.801 97.7254 236.327 99.3589 235.379 100.818C234.443 102.277 233.071 103.437 231.263 104.298C229.466 105.158 227.283 105.588 224.713 105.588C222.317 105.588 220.242 105.201 218.489 104.428C216.746 103.655 215.374 102.577 214.372 101.194C213.381 99.8108 212.82 98.2045 212.69 96.375H216.872C216.981 97.6383 217.405 98.6837 218.146 99.5114C218.897 100.328 219.845 100.938 220.988 101.341C222.142 101.733 223.384 101.929 224.713 101.929C226.259 101.929 227.647 101.679 228.878 101.178C230.109 100.666 231.083 99.9579 231.802 99.054C232.521 98.1392 232.88 97.072 232.88 95.8523C232.88 94.7415 232.57 93.8376 231.949 93.1406C231.328 92.4437 230.512 91.8774 229.499 91.4418C228.486 91.0062 227.392 90.625 226.215 90.2983L222.099 89.1222C219.485 88.3707 217.416 87.2981 215.892 85.9041C214.367 84.5102 213.605 82.6861 213.605 80.4318C213.605 78.5587 214.111 76.9252 215.124 75.5312C216.147 74.1264 217.52 73.0374 219.24 72.2642C220.972 71.4801 222.905 71.0881 225.039 71.0881C227.195 71.0881 229.112 71.4747 230.789 72.2479C232.466 73.0102 233.795 74.0556 234.775 75.3842C235.766 76.7128 236.289 78.2211 236.343 79.9091H232.423Z" fill="black"/>
</svg>
