<svg width="260" height="171" viewBox="0 0 260 171" fill="none" xmlns="http://www.w3.org/2000/svg">
<rect width="260" height="171" fill="#F5F5F5"/>
<rect width="260" height="171" fill="#FFF4A3"/>
<path d="M57.9497 100H53.7025L65.9866 66.5455H70.1684L82.4525 100H78.2053L68.2082 71.8381H67.9468L57.9497 100ZM59.5178 86.9318H76.6372V90.5256H59.5178V86.9318ZM87.1407 109.409V74.9091H90.8651V78.8949H91.3225C91.6057 78.4593 91.9977 77.9039 92.4987 77.2287C93.0105 76.5426 93.7401 75.9328 94.6876 75.3991C95.6459 74.8546 96.9419 74.5824 98.5754 74.5824C100.688 74.5824 102.55 75.1106 104.162 76.1669C105.774 77.2232 107.032 78.7206 107.935 80.6591C108.839 82.5975 109.291 84.8845 109.291 87.5199C109.291 90.1771 108.839 92.4804 107.935 94.4297C107.032 96.3681 105.779 97.871 104.178 98.9382C102.578 99.9946 100.732 100.523 98.6407 100.523C97.029 100.523 95.7385 100.256 94.7693 99.7223C93.8 99.1778 93.0541 98.5625 92.5313 97.8764C92.0086 97.1795 91.6057 96.6023 91.3225 96.1449H90.9958V109.409H87.1407ZM90.9305 87.4545C90.9305 89.3494 91.2082 91.0211 91.7636 92.4695C92.319 93.907 93.1303 95.0341 94.1975 95.8509C95.2648 96.6567 96.5716 97.0597 98.118 97.0597C99.7297 97.0597 101.075 96.6349 102.153 95.7855C103.242 94.9252 104.059 93.7708 104.603 92.3224C105.158 90.8632 105.436 89.2405 105.436 87.4545C105.436 85.6903 105.164 84.1004 104.619 82.6847C104.086 81.258 103.274 80.1309 102.185 79.3033C101.107 78.4647 99.7515 78.0455 98.118 78.0455C96.5498 78.0455 95.2321 78.4429 94.1649 79.2379C93.0976 80.022 92.2918 81.1219 91.7472 82.5376C91.2027 83.9425 90.9305 85.5814 90.9305 87.4545ZM115.172 109.409V74.9091H118.896V78.8949H119.354C119.637 78.4593 120.029 77.9039 120.53 77.2287C121.042 76.5426 121.771 75.9328 122.719 75.3991C123.677 74.8546 124.973 74.5824 126.607 74.5824C128.719 74.5824 130.582 75.1106 132.193 76.1669C133.805 77.2232 135.063 78.7206 135.967 80.6591C136.871 82.5975 137.323 84.8845 137.323 87.5199C137.323 90.1771 136.871 92.4804 135.967 94.4297C135.063 96.3681 133.81 97.871 132.21 98.9382C130.609 99.9946 128.763 100.523 126.672 100.523C125.06 100.523 123.77 100.256 122.801 99.7223C121.831 99.1778 121.085 98.5625 120.563 97.8764C120.04 97.1795 119.637 96.6023 119.354 96.1449H119.027V109.409H115.172ZM118.962 87.4545C118.962 89.3494 119.239 91.0211 119.795 92.4695C120.35 93.907 121.162 95.0341 122.229 95.8509C123.296 96.6567 124.603 97.0597 126.149 97.0597C127.761 97.0597 129.106 96.6349 130.184 95.7855C131.273 94.9252 132.09 93.7708 132.634 92.3224C133.19 90.8632 133.467 89.2405 133.467 87.4545C133.467 85.6903 133.195 84.1004 132.651 82.6847C132.117 81.258 131.306 80.1309 130.217 79.3033C129.139 78.4647 127.783 78.0455 126.149 78.0455C124.581 78.0455 123.263 78.4429 122.196 79.2379C121.129 80.022 120.323 81.1219 119.778 82.5376C119.234 83.9425 118.962 85.5814 118.962 87.4545ZM143.726 66.5455H148.561L159.93 94.3153H160.323L171.692 66.5455H176.527V100H172.737V74.5824H172.411L161.956 100H158.297L147.842 74.5824H147.516V100H143.726V66.5455ZM184.65 100V66.5455H188.701V96.4062H204.252V100H184.65Z" fill="black"/>
</svg>
