<svg width="260" height="171" viewBox="0 0 260 171" fill="none" xmlns="http://www.w3.org/2000/svg">
<rect width="260" height="171" fill="#F5F5F5"/>
<rect width="260" height="171" fill="#96D4D4"/>
<path d="M90.1137 100H85.8666L98.1507 66.5455H102.332L114.617 100H110.369L100.372 71.8381H100.111L90.1137 100ZM91.6819 86.9318H108.801V90.5256H91.6819V86.9318ZM138.123 74.9091C137.927 73.2538 137.132 71.9688 135.738 71.054C134.344 70.1392 132.634 69.6818 130.609 69.6818C129.128 69.6818 127.832 69.9214 126.721 70.4006C125.621 70.8797 124.761 71.5386 124.14 72.3771C123.53 73.2157 123.225 74.1686 123.225 75.2358C123.225 76.1288 123.438 76.8965 123.862 77.5391C124.298 78.1707 124.853 78.6989 125.528 79.1236C126.204 79.5374 126.912 79.8804 127.652 80.1527C128.393 80.4141 129.073 80.6264 129.694 80.7898L133.092 81.7045C133.963 81.9332 134.932 82.2491 135.999 82.652C137.078 83.0549 138.107 83.6049 139.087 84.3018C140.078 84.9879 140.895 85.87 141.537 86.9482C142.18 88.0263 142.501 89.3494 142.501 90.9176C142.501 92.7254 142.027 94.3589 141.08 95.8182C140.143 97.2775 138.771 98.4373 136.963 99.2976C135.166 100.158 132.983 100.588 130.413 100.588C128.017 100.588 125.942 100.201 124.189 99.4283C122.447 98.6551 121.074 97.5769 120.073 96.1939C119.082 94.8108 118.521 93.2045 118.39 91.375H122.572C122.681 92.6383 123.105 93.6837 123.846 94.5114C124.597 95.3281 125.545 95.938 126.688 96.3409C127.843 96.733 129.084 96.929 130.413 96.929C131.959 96.929 133.348 96.6785 134.578 96.1776C135.809 95.6657 136.783 94.9579 137.502 94.054C138.221 93.1392 138.58 92.072 138.58 90.8523C138.58 89.7415 138.27 88.8376 137.649 88.1406C137.028 87.4437 136.212 86.8774 135.199 86.4418C134.186 86.0062 133.092 85.625 131.916 85.2983L127.799 84.1222C125.185 83.3707 123.116 82.2981 121.592 80.9041C120.067 79.5102 119.305 77.6861 119.305 75.4318C119.305 73.5587 119.811 71.9252 120.824 70.5312C121.848 69.1264 123.22 68.0374 124.94 67.2642C126.672 66.4801 128.605 66.0881 130.739 66.0881C132.896 66.0881 134.812 66.4747 136.489 67.2479C138.167 68.0102 139.495 69.0556 140.475 70.3842C141.466 71.7128 141.989 73.2211 142.043 74.9091H138.123ZM149.161 100V66.5455H160.465C163.09 66.5455 165.235 67.0192 166.902 67.9666C168.579 68.9032 169.82 70.1719 170.626 71.7727C171.432 73.3736 171.835 75.1596 171.835 77.1307C171.835 79.1018 171.432 80.8932 170.626 82.505C169.831 84.1167 168.6 85.4018 166.934 86.3601C165.268 87.3075 163.134 87.7812 160.531 87.7812H152.429V84.1875H160.4C162.197 84.1875 163.64 83.8771 164.729 83.2564C165.818 82.6357 166.608 81.7971 167.098 80.7408C167.599 79.6735 167.849 78.4702 167.849 77.1307C167.849 75.7912 167.599 74.5933 167.098 73.5369C166.608 72.4806 165.813 71.6529 164.713 71.054C163.613 70.4441 162.153 70.1392 160.335 70.1392H153.213V100H149.161Z" fill="black"/>
</svg>
