<svg width="260" height="171" viewBox="0 0 260 171" fill="none" xmlns="http://www.w3.org/2000/svg">
<rect width="260" height="171" fill="#F5F5F5"/>
<rect width="260" height="171" fill="#FFF4A3"/>
<path d="M84.184 100H79.9369L92.221 66.5455H96.4028L108.687 100H104.44L94.4426 71.8381H94.1812L84.184 100ZM85.7522 86.9318H102.872V90.5256H85.7522V86.9318ZM117.369 100L108.221 66.5455H112.338L119.329 93.7926H119.656L126.778 66.5455H131.352L138.474 93.7926H138.801L145.792 66.5455H149.909L140.761 100H136.579L129.196 73.3409H128.934L121.551 100H117.369ZM173.252 74.9091C173.056 73.2538 172.261 71.9688 170.867 71.054C169.473 70.1392 167.763 69.6818 165.738 69.6818C164.257 69.6818 162.961 69.9214 161.85 70.4006C160.75 70.8797 159.89 71.5386 159.269 72.3771C158.659 73.2157 158.354 74.1686 158.354 75.2358C158.354 76.1288 158.566 76.8965 158.991 77.5391C159.427 78.1707 159.982 78.6989 160.657 79.1236C161.333 79.5374 162.04 79.8804 162.781 80.1527C163.522 80.4141 164.202 80.6264 164.823 80.7898L168.221 81.7045C169.092 81.9332 170.061 82.2491 171.128 82.652C172.206 83.0549 173.236 83.6049 174.216 84.3018C175.207 84.9879 176.023 85.87 176.666 86.9482C177.308 88.0263 177.63 89.3494 177.63 90.9176C177.63 92.7254 177.156 94.3589 176.209 95.8182C175.272 97.2775 173.9 98.4373 172.092 99.2976C170.295 100.158 168.112 100.588 165.542 100.588C163.146 100.588 161.071 100.201 159.318 99.4283C157.575 98.6551 156.203 97.5769 155.201 96.1939C154.21 94.8108 153.65 93.2045 153.519 91.375H157.701C157.81 92.6383 158.234 93.6837 158.975 94.5114C159.726 95.3281 160.674 95.938 161.817 96.3409C162.972 96.733 164.213 96.929 165.542 96.929C167.088 96.929 168.477 96.6785 169.707 96.1776C170.938 95.6657 171.912 94.9579 172.631 94.054C173.35 93.1392 173.709 92.072 173.709 90.8523C173.709 89.7415 173.399 88.8376 172.778 88.1406C172.157 87.4437 171.341 86.8774 170.328 86.4418C169.315 86.0062 168.221 85.625 167.044 85.2983L162.928 84.1222C160.314 83.3707 158.245 82.2981 156.721 80.9041C155.196 79.5102 154.434 77.6861 154.434 75.4318C154.434 73.5587 154.94 71.9252 155.953 70.5312C156.977 69.1264 158.349 68.0374 160.069 67.2642C161.801 66.4801 163.734 66.0881 165.868 66.0881C168.025 66.0881 169.941 66.4747 171.618 67.2479C173.295 68.0102 174.624 69.0556 175.604 70.3842C176.595 71.7128 177.118 73.2211 177.172 74.9091H173.252Z" fill="black"/>
</svg>
