<svg width="260" height="171" viewBox="0 0 260 171" fill="none" xmlns="http://www.w3.org/2000/svg">
<rect width="260" height="171" fill="#F5F5F5"/>
<rect width="260" height="171" fill="#F3ECEA"/>
<path d="M35.9642 105V71.5455H47.6602C49.9907 71.5455 51.9128 71.9484 53.4266 72.7543C54.9403 73.5492 56.0674 74.6219 56.808 75.9723C57.5485 77.3118 57.9188 78.7983 57.9188 80.4318C57.9188 81.8693 57.6628 83.0563 57.151 83.9929C56.6501 84.9295 55.9858 85.67 55.1581 86.2145C54.3414 86.759 53.4538 87.1619 52.4955 87.4233V87.75C53.5191 87.8153 54.5483 88.1747 55.5828 88.8281C56.6174 89.4815 57.4832 90.4181 58.1801 91.6378C58.8771 92.8575 59.2256 94.3494 59.2256 96.1136C59.2256 97.7907 58.8444 99.299 58.0821 100.638C57.3198 101.978 56.1164 103.04 54.472 103.824C52.8276 104.608 50.6877 105 48.0523 105H35.9642ZM40.0154 101.406H48.0523C50.6986 101.406 52.5771 100.894 53.6879 99.8707C54.8096 98.8362 55.3705 97.5838 55.3705 96.1136C55.3705 94.9811 55.0819 93.9356 54.5047 92.9773C53.9275 92.008 53.1053 91.2348 52.0381 90.6577C50.9709 90.0696 49.7076 89.7756 48.2483 89.7756H40.0154V101.406ZM40.0154 86.2472H47.5296C48.7493 86.2472 49.8492 86.0076 50.8293 85.5284C51.8203 85.0492 52.6044 84.3741 53.1816 83.5028C53.7696 82.6316 54.0637 81.608 54.0637 80.4318C54.0637 78.9616 53.5518 77.7147 52.5281 76.6911C51.5045 75.6565 49.8818 75.1392 47.6602 75.1392H40.0154V86.2472ZM75.5526 105.523C73.2875 105.523 71.3 104.984 69.5903 103.906C67.8914 102.827 66.5628 101.319 65.6045 99.3807C64.657 97.4422 64.1833 95.1771 64.1833 92.5852C64.1833 89.9716 64.657 87.6901 65.6045 85.7408C66.5628 83.7914 67.8914 82.2777 69.5903 81.1996C71.3 80.1214 73.2875 79.5824 75.5526 79.5824C77.8178 79.5824 79.7998 80.1214 81.4987 81.1996C83.2084 82.2777 84.537 83.7914 85.4845 85.7408C86.4428 87.6901 86.922 89.9716 86.922 92.5852C86.922 95.1771 86.4428 97.4422 85.4845 99.3807C84.537 101.319 83.2084 102.827 81.4987 103.906C79.7998 104.984 77.8178 105.523 75.5526 105.523ZM75.5526 102.06C77.2733 102.06 78.689 101.619 79.7998 100.737C80.9106 99.8544 81.7328 98.6946 82.2664 97.2571C82.8 95.8196 83.0669 94.2623 83.0669 92.5852C83.0669 90.9081 82.8 89.3454 82.2664 87.897C81.7328 86.4486 80.9106 85.2779 79.7998 84.3849C78.689 83.4919 77.2733 83.0455 75.5526 83.0455C73.832 83.0455 72.4163 83.4919 71.3055 84.3849C70.1947 85.2779 69.3725 86.4486 68.8389 87.897C68.3052 89.3454 68.0384 90.9081 68.0384 92.5852C68.0384 94.2623 68.3052 95.8196 68.8389 97.2571C69.3725 98.6946 70.1947 99.8544 71.3055 100.737C72.4163 101.619 73.832 102.06 75.5526 102.06ZM103 105.523C100.735 105.523 98.7473 104.984 97.0376 103.906C95.3387 102.827 94.0101 101.319 93.0518 99.3807C92.1043 97.4422 91.6306 95.1771 91.6306 92.5852C91.6306 89.9716 92.1043 87.6901 93.0518 85.7408C94.0101 83.7914 95.3387 82.2777 97.0376 81.1996C98.7473 80.1214 100.735 79.5824 103 79.5824C105.265 79.5824 107.247 80.1214 108.946 81.1996C110.656 82.2777 111.984 83.7914 112.932 85.7408C113.89 87.6901 114.369 89.9716 114.369 92.5852C114.369 95.1771 113.89 97.4422 112.932 99.3807C111.984 101.319 110.656 102.827 108.946 103.906C107.247 104.984 105.265 105.523 103 105.523ZM103 102.06C104.721 102.06 106.136 101.619 107.247 100.737C108.358 99.8544 109.18 98.6946 109.714 97.2571C110.247 95.8196 110.514 94.2623 110.514 92.5852C110.514 90.9081 110.247 89.3454 109.714 87.897C109.18 86.4486 108.358 85.2779 107.247 84.3849C106.136 83.4919 104.721 83.0455 103 83.0455C101.279 83.0455 99.8635 83.4919 98.7528 84.3849C97.642 85.2779 96.8198 86.4486 96.2861 87.897C95.7525 89.3454 95.4857 90.9081 95.4857 92.5852C95.4857 94.2623 95.7525 95.8196 96.2861 97.2571C96.8198 98.6946 97.642 99.8544 98.7528 100.737C99.8635 101.619 101.279 102.06 103 102.06ZM131.166 79.9091V83.1761H118.163V79.9091H131.166ZM121.953 73.8977H125.808V97.8125C125.808 98.9015 125.966 99.7183 126.282 100.263C126.608 100.796 127.022 101.156 127.523 101.341C128.035 101.515 128.574 101.602 129.14 101.602C129.565 101.602 129.914 101.58 130.186 101.537C130.458 101.482 130.676 101.439 130.839 101.406L131.623 104.869C131.362 104.967 130.997 105.065 130.529 105.163C130.061 105.272 129.467 105.327 128.748 105.327C127.659 105.327 126.592 105.093 125.547 104.624C124.512 104.156 123.652 103.443 122.966 102.484C122.29 101.526 121.953 100.317 121.953 98.858V73.8977ZM154.288 85.5284L150.825 86.5085C150.608 85.9313 150.286 85.3705 149.862 84.826C149.448 84.2706 148.881 83.8132 148.163 83.4538C147.444 83.0945 146.524 82.9148 145.402 82.9148C143.867 82.9148 142.587 83.2687 141.563 83.9766C140.551 84.6735 140.044 85.5611 140.044 86.6392C140.044 87.5975 140.393 88.3544 141.09 88.9098C141.787 89.4652 142.876 89.928 144.357 90.2983L148.081 91.2131C150.324 91.7576 151.996 92.5907 153.096 93.7124C154.196 94.8232 154.746 96.2552 154.746 98.0085C154.746 99.446 154.332 100.731 153.504 101.864C152.688 102.996 151.544 103.889 150.074 104.543C148.604 105.196 146.894 105.523 144.945 105.523C142.386 105.523 140.267 104.967 138.59 103.857C136.913 102.746 135.851 101.123 135.405 98.9886L139.064 98.0739C139.412 99.4242 140.071 100.437 141.041 101.112C142.021 101.787 143.3 102.125 144.879 102.125C146.676 102.125 148.103 101.744 149.159 100.982C150.226 100.208 150.76 99.2827 150.76 98.2045C150.76 97.3333 150.455 96.6037 149.845 96.0156C149.235 95.4167 148.299 94.9702 147.036 94.6761L142.854 93.696C140.556 93.1515 138.868 92.3075 137.79 91.1641C136.723 90.0097 136.189 88.5668 136.189 86.8352C136.189 85.4195 136.586 84.1671 137.381 83.0781C138.187 81.9891 139.282 81.1342 140.665 80.5135C142.059 79.8928 143.638 79.5824 145.402 79.5824C147.885 79.5824 149.834 80.1269 151.25 81.2159C152.677 82.3049 153.689 83.7424 154.288 85.5284ZM160.549 105V79.9091H164.273V83.6989H164.535C164.992 82.4574 165.82 81.45 167.018 80.6768C168.216 79.9036 169.566 79.517 171.069 79.517C171.352 79.517 171.706 79.5225 172.131 79.5334C172.555 79.5443 172.877 79.5606 173.094 79.5824V83.5028C172.964 83.4702 172.664 83.4212 172.196 83.3558C171.739 83.2796 171.254 83.2415 170.742 83.2415C169.522 83.2415 168.433 83.4974 167.475 84.0092C166.528 84.5102 165.776 85.2071 165.221 86.1001C164.676 86.9822 164.404 87.9896 164.404 89.1222V105H160.549ZM185.048 105.588C183.458 105.588 182.015 105.289 180.719 104.69C179.423 104.08 178.394 103.203 177.631 102.06C176.869 100.905 176.488 99.5114 176.488 97.8778C176.488 96.4403 176.771 95.2751 177.337 94.3821C177.904 93.4782 178.661 92.7704 179.608 92.2585C180.555 91.7467 181.601 91.3655 182.744 91.1151C183.899 90.8537 185.059 90.6468 186.224 90.4943C187.748 90.2983 188.984 90.1513 189.932 90.0533C190.89 89.9444 191.587 89.7647 192.023 89.5142C192.469 89.2637 192.693 88.8281 192.693 88.2074V88.0767C192.693 86.465 192.252 85.2126 191.369 84.3196C190.498 83.4266 189.175 82.9801 187.4 82.9801C185.56 82.9801 184.117 83.383 183.071 84.1889C182.026 84.9948 181.291 85.8551 180.866 86.7699L177.207 85.4631C177.86 83.9384 178.731 82.7514 179.82 81.902C180.92 81.0417 182.118 80.4427 183.414 80.1051C184.721 79.7566 186.006 79.5824 187.269 79.5824C188.075 79.5824 189.001 79.6804 190.046 79.8764C191.103 80.0616 192.121 80.4482 193.101 81.0362C194.092 81.6243 194.914 82.5118 195.568 83.6989C196.221 84.8859 196.548 86.4759 196.548 88.4688V105H192.693V101.602H192.497C192.235 102.147 191.8 102.729 191.19 103.35C190.58 103.971 189.769 104.499 188.756 104.935C187.743 105.37 186.507 105.588 185.048 105.588ZM185.636 102.125C187.16 102.125 188.445 101.826 189.491 101.227C190.547 100.628 191.342 99.8544 191.876 98.907C192.42 97.9595 192.693 96.9631 192.693 95.9176V92.3892C192.529 92.5852 192.17 92.7649 191.614 92.9283C191.07 93.0807 190.438 93.2169 189.72 93.3366C189.012 93.4455 188.32 93.5436 187.645 93.6307C186.981 93.7069 186.442 93.7723 186.028 93.8267C185.026 93.9574 184.089 94.1697 183.218 94.4638C182.358 94.7469 181.661 95.1771 181.127 95.7543C180.604 96.3205 180.343 97.0937 180.343 98.0739C180.343 99.4134 180.839 100.426 181.83 101.112C182.832 101.787 184.1 102.125 185.636 102.125ZM203.584 114.409V79.9091H207.309V83.8949H207.766C208.049 83.4593 208.441 82.9039 208.942 82.2287C209.454 81.5426 210.184 80.9328 211.131 80.3991C212.089 79.8546 213.385 79.5824 215.019 79.5824C217.131 79.5824 218.994 80.1106 220.605 81.1669C222.217 82.2232 223.475 83.7206 224.379 85.6591C225.283 87.5975 225.735 89.8845 225.735 92.5199C225.735 95.1771 225.283 97.4804 224.379 99.4297C223.475 101.368 222.223 102.871 220.622 103.938C219.021 104.995 217.175 105.523 215.084 105.523C213.472 105.523 212.182 105.256 211.213 104.722C210.243 104.178 209.497 103.562 208.975 102.876C208.452 102.179 208.049 101.602 207.766 101.145H207.439V114.409H203.584ZM207.374 92.4545C207.374 94.3494 207.652 96.0211 208.207 97.4695C208.762 98.907 209.574 100.034 210.641 100.851C211.708 101.657 213.015 102.06 214.561 102.06C216.173 102.06 217.518 101.635 218.596 100.786C219.685 99.9252 220.502 98.7708 221.046 97.3224C221.602 95.8632 221.88 94.2405 221.88 92.4545C221.88 90.6903 221.607 89.1004 221.063 87.6847C220.529 86.258 219.718 85.1309 218.629 84.3033C217.551 83.4647 216.195 83.0455 214.561 83.0455C212.993 83.0455 211.675 83.4429 210.608 84.2379C209.541 85.022 208.735 86.1219 208.191 87.5376C207.646 88.9425 207.374 90.5814 207.374 92.4545Z" fill="black"/>
</svg>
