<svg width="260" height="171" viewBox="0 0 260 171" fill="none" xmlns="http://www.w3.org/2000/svg">
<rect width="260" height="171" fill="#F5F5F5"/>
<rect width="260" height="171" fill="#FFF4A3"/>
<path d="M129.228 77H125.177C124.938 75.8348 124.518 74.8111 123.919 73.929C123.331 73.0469 122.613 72.3063 121.763 71.7074C120.925 71.0975 119.994 70.6402 118.97 70.3352C117.946 70.0303 116.879 69.8778 115.768 69.8778C113.743 69.8778 111.908 70.3897 110.263 71.4134C108.63 72.437 107.328 73.9453 106.359 75.9382C105.401 77.9311 104.922 80.3759 104.922 83.2727C104.922 86.1695 105.401 88.6143 106.359 90.6072C107.328 92.6001 108.63 94.1084 110.263 95.1321C111.908 96.1558 113.743 96.6676 115.768 96.6676C116.879 96.6676 117.946 96.5152 118.97 96.2102C119.994 95.9053 120.925 95.4534 121.763 94.8544C122.613 94.2446 123.331 93.4986 123.919 92.6165C124.518 91.7235 124.938 90.6998 125.177 89.5455H129.228C128.924 91.2552 128.368 92.7853 127.562 94.1357C126.756 95.486 125.754 96.6349 124.557 97.5824C123.359 98.5189 122.014 99.2322 120.522 99.7223C119.041 100.212 117.456 100.457 115.768 100.457C112.915 100.457 110.378 99.7604 108.156 98.3665C105.934 96.9725 104.187 94.9905 102.912 92.4205C101.638 89.8504 101.001 86.8011 101.001 83.2727C101.001 79.7443 101.638 76.6951 102.912 74.125C104.187 71.5549 105.934 69.5729 108.156 68.179C110.378 66.785 112.915 66.0881 115.768 66.0881C117.456 66.0881 119.041 66.3331 120.522 66.8232C122.014 67.3132 123.359 68.032 124.557 68.9794C125.754 69.916 126.756 71.0594 127.562 72.4098C128.368 73.7493 128.924 75.2794 129.228 77ZM147.732 100L153.221 66.5455H156.488L150.999 100H147.732ZM132.508 90.7216L133.03 87.4545H157.991L157.468 90.7216H132.508ZM135.971 100L141.459 66.5455H144.726L139.238 100H135.971ZM134.468 79.0909L134.991 75.8239H159.951L159.428 79.0909H134.468Z" fill="black"/>
</svg>
