<svg width="260" height="171" viewBox="0 0 260 171" fill="none" xmlns="http://www.w3.org/2000/svg">
<rect width="260" height="171" fill="#F5F5F5"/>
<rect width="260" height="171" fill="#D9EEE1"/>
<path d="M113.916 82H109.865C109.625 80.8348 109.206 79.8111 108.607 78.929C108.019 78.0469 107.3 77.3063 106.451 76.7074C105.612 76.0975 104.681 75.6402 103.657 75.3352C102.634 75.0303 101.566 74.8778 100.456 74.8778C98.4301 74.8778 96.5951 75.3897 94.9507 76.4134C93.3172 77.437 92.0158 78.9453 91.0466 80.9382C90.0883 82.9311 89.6091 85.3759 89.6091 88.2727C89.6091 91.1695 90.0883 93.6143 91.0466 95.6072C92.0158 97.6001 93.3172 99.1084 94.9507 100.132C96.5951 101.156 98.4301 101.668 100.456 101.668C101.566 101.668 102.634 101.515 103.657 101.21C104.681 100.905 105.612 100.453 106.451 99.8544C107.3 99.2446 108.019 98.4986 108.607 97.6165C109.206 96.7235 109.625 95.6998 109.865 94.5455H113.916C113.611 96.2552 113.056 97.7853 112.25 99.1357C111.444 100.486 110.442 101.635 109.244 102.582C108.046 103.519 106.701 104.232 105.209 104.722C103.728 105.212 102.144 105.457 100.456 105.457C97.6025 105.457 95.0651 104.76 92.8435 103.366C90.6219 101.973 88.874 99.9905 87.5999 97.4205C86.3257 94.8504 85.6887 91.8011 85.6887 88.2727C85.6887 84.7443 86.3257 81.6951 87.5999 79.125C88.874 76.5549 90.6219 74.5729 92.8435 73.179C95.0651 71.785 97.6025 71.0881 100.456 71.0881C102.144 71.0881 103.728 71.3331 105.209 71.8232C106.701 72.3132 108.046 73.032 109.244 73.9794C110.442 74.916 111.444 76.0594 112.25 77.4098C113.056 78.7493 113.611 80.2794 113.916 82ZM129.741 99.1193V77.5568H133.4V99.1193H129.741ZM120.789 90.1676V86.5085H142.351V90.1676H120.789ZM160.063 99.1193V77.5568H163.722V99.1193H160.063ZM151.111 90.1676V86.5085H172.674V90.1676H151.111Z" fill="black"/>
</svg>
