<svg width="260" height="171" viewBox="0 0 260 171" fill="none" xmlns="http://www.w3.org/2000/svg">
<rect width="260" height="171" fill="#F5F5F5"/>
<rect width="260" height="171" fill="#FFC0C7"/>
<path d="M143.738 77H139.687C139.447 75.8348 139.028 74.8111 138.429 73.929C137.841 73.0469 137.122 72.3063 136.273 71.7074C135.434 71.0975 134.503 70.6402 133.48 70.3352C132.456 70.0303 131.389 69.8778 130.278 69.8778C128.252 69.8778 126.417 70.3897 124.773 71.4134C123.139 72.437 121.838 73.9453 120.869 75.9382C119.911 77.9311 119.431 80.3759 119.431 83.2727C119.431 86.1695 119.911 88.6143 120.869 90.6072C121.838 92.6001 123.139 94.1084 124.773 95.1321C126.417 96.1558 128.252 96.6676 130.278 96.6676C131.389 96.6676 132.456 96.5152 133.48 96.2102C134.503 95.9053 135.434 95.4534 136.273 94.8544C137.122 94.2446 137.841 93.4986 138.429 92.6165C139.028 91.7235 139.447 90.6998 139.687 89.5455H143.738C143.433 91.2552 142.878 92.7853 142.072 94.1357C141.266 95.486 140.264 96.6349 139.066 97.5824C137.868 98.5189 136.523 99.2322 135.032 99.7223C133.55 100.212 131.966 100.457 130.278 100.457C127.425 100.457 124.887 99.7604 122.666 98.3665C120.444 96.9725 118.696 94.9905 117.422 92.4205C116.148 89.8504 115.511 86.8011 115.511 83.2727C115.511 79.7443 116.148 76.6951 117.422 74.125C118.696 71.5549 120.444 69.5729 122.666 68.179C124.887 66.785 127.425 66.0881 130.278 66.0881C131.966 66.0881 133.55 66.3331 135.032 66.8232C136.523 67.3132 137.868 68.032 139.066 68.9794C140.264 69.916 141.266 71.0594 142.072 72.4098C142.878 73.7493 143.433 75.2794 143.738 77Z" fill="black"/>
</svg>
