<svg width="260" height="171" viewBox="0 0 260 171" fill="none" xmlns="http://www.w3.org/2000/svg">
<rect width="260" height="171" fill="#F5F5F5"/>
<rect width="260" height="171" fill="#FFC0C7"/>
<path d="M80.3759 77H76.3248C76.0852 75.8348 75.6659 74.8111 75.0669 73.929C74.4789 73.0469 73.7601 72.3063 72.9107 71.7074C72.0721 71.0975 71.141 70.6402 70.1174 70.3352C69.0937 70.0303 68.0265 69.8778 66.9157 69.8778C64.8901 69.8778 63.0551 70.3897 61.4107 71.4134C59.7772 72.437 58.4758 73.9453 57.5066 75.9382C56.5482 77.9311 56.0691 80.3759 56.0691 83.2727C56.0691 86.1695 56.5482 88.6143 57.5066 90.6072C58.4758 92.6001 59.7772 94.1084 61.4107 95.1321C63.0551 96.1558 64.8901 96.6676 66.9157 96.6676C68.0265 96.6676 69.0937 96.5152 70.1174 96.2102C71.141 95.9053 72.0721 95.4534 72.9107 94.8544C73.7601 94.2446 74.4789 93.4986 75.0669 92.6165C75.6659 91.7235 76.0852 90.6998 76.3248 89.5455H80.3759C80.071 91.2552 79.5156 92.7853 78.7097 94.1357C77.9038 95.486 76.9019 96.6349 75.704 97.5824C74.5061 98.5189 73.1612 99.2322 71.6692 99.7223C70.1882 100.212 68.6036 100.457 66.9157 100.457C64.0624 100.457 61.525 99.7604 59.3034 98.3665C57.0819 96.9725 55.334 94.9905 54.0598 92.4205C52.7857 89.8504 52.1486 86.8011 52.1486 83.2727C52.1486 79.7443 52.7857 76.6951 54.0598 74.125C55.334 71.5549 57.0819 69.5729 59.3034 68.179C61.525 66.785 64.0624 66.0881 66.9157 66.0881C68.6036 66.0881 70.1882 66.3331 71.6692 66.8232C73.1612 67.3132 74.5061 68.032 75.704 68.9794C76.9019 69.916 77.9038 71.0594 78.7097 72.4098C79.5156 73.7493 80.071 75.2794 80.3759 77ZM93.783 100.588C92.1931 100.588 90.7501 100.289 89.4542 99.6896C88.1583 99.0798 87.1291 98.2031 86.3668 97.0597C85.6045 95.9053 85.2234 94.5114 85.2234 92.8778C85.2234 91.4403 85.5065 90.2751 86.0728 89.3821C86.6391 88.4782 87.396 87.7704 88.3434 87.2585C89.2908 86.7467 90.3363 86.3655 91.4798 86.1151C92.6341 85.8537 93.7939 85.6468 94.9592 85.4943C96.4838 85.2983 97.7198 85.1513 98.6673 85.0533C99.6256 84.9444 100.323 84.7647 100.758 84.5142C101.205 84.2637 101.428 83.8281 101.428 83.2074V83.0767C101.428 81.465 100.987 80.2126 100.105 79.3196C99.2335 78.4266 97.9104 77.9801 96.1353 77.9801C94.2949 77.9801 92.8519 78.383 91.8065 79.1889C90.761 79.9948 90.0259 80.8551 89.6012 81.7699L85.9421 80.4631C86.5955 78.9384 87.4667 77.7514 88.5558 76.902C89.6557 76.0417 90.8536 75.4427 92.1495 75.1051C93.4563 74.7566 94.7414 74.5824 96.0046 74.5824C96.8105 74.5824 97.7362 74.6804 98.7816 74.8764C99.838 75.0616 100.856 75.4482 101.836 76.0362C102.827 76.6243 103.65 77.5118 104.303 78.6989C104.956 79.8859 105.283 81.4759 105.283 83.4688V100H101.428V96.6023H101.232C100.971 97.1468 100.535 97.7294 99.9251 98.3501C99.3152 98.9709 98.5039 99.4991 97.4911 99.9347C96.4783 100.37 95.2423 100.588 93.783 100.588ZM94.3711 97.125C95.8957 97.125 97.1808 96.8255 98.2262 96.2266C99.2826 95.6276 100.078 94.8544 100.611 93.907C101.156 92.9595 101.428 91.9631 101.428 90.9176V87.3892C101.265 87.5852 100.905 87.7649 100.35 87.9283C99.8053 88.0807 99.1737 88.2169 98.4549 88.3366C97.747 88.4455 97.0555 88.5436 96.3803 88.6307C95.716 88.7069 95.177 88.7723 94.7631 88.8267C93.7612 88.9574 92.8247 89.1697 91.9535 89.4638C91.0932 89.7469 90.3962 90.1771 89.8626 90.7543C89.3398 91.3205 89.0785 92.0937 89.0785 93.0739C89.0785 94.4134 89.574 95.4261 90.565 96.1122C91.5669 96.7874 92.8356 97.125 94.3711 97.125ZM116.175 84.9062V100H112.319V74.9091H116.044V78.8295H116.371C116.959 77.5554 117.852 76.5317 119.05 75.7585C120.247 74.9744 121.794 74.5824 123.689 74.5824C125.388 74.5824 126.874 74.9309 128.148 75.6278C129.422 76.3139 130.413 77.3594 131.121 78.7642C131.829 80.1581 132.183 81.9223 132.183 84.0568V100H128.328V84.3182C128.328 82.3471 127.816 80.8116 126.792 79.7116C125.769 78.6009 124.364 78.0455 122.578 78.0455C121.347 78.0455 120.247 78.3123 119.278 78.8459C118.32 79.3795 117.563 80.1581 117.008 81.1818C116.452 82.2055 116.175 83.447 116.175 84.9062ZM158.846 74.9091L149.568 100H145.647L136.369 74.9091H140.551L147.477 94.9034H147.738L154.664 74.9091H158.846ZM170.555 100.588C168.965 100.588 167.522 100.289 166.226 99.6896C164.93 99.0798 163.901 98.2031 163.138 97.0597C162.376 95.9053 161.995 94.5114 161.995 92.8778C161.995 91.4403 162.278 90.2751 162.844 89.3821C163.411 88.4782 164.167 87.7704 165.115 87.2585C166.062 86.7467 167.108 86.3655 168.251 86.1151C169.406 85.8537 170.565 85.6468 171.731 85.4943C173.255 85.2983 174.491 85.1513 175.439 85.0533C176.397 84.9444 177.094 84.7647 177.53 84.5142C177.976 84.2637 178.199 83.8281 178.199 83.2074V83.0767C178.199 81.465 177.758 80.2126 176.876 79.3196C176.005 78.4266 174.682 77.9801 172.907 77.9801C171.066 77.9801 169.623 78.383 168.578 79.1889C167.532 79.9948 166.797 80.8551 166.373 81.7699L162.714 80.4631C163.367 78.9384 164.238 77.7514 165.327 76.902C166.427 76.0417 167.625 75.4427 168.921 75.1051C170.228 74.7566 171.513 74.5824 172.776 74.5824C173.582 74.5824 174.508 74.6804 175.553 74.8764C176.609 75.0616 177.628 75.4482 178.608 76.0362C179.599 76.6243 180.421 77.5118 181.074 78.6989C181.728 79.8859 182.055 81.4759 182.055 83.4688V100H178.199V96.6023H178.003C177.742 97.1468 177.306 97.7294 176.697 98.3501C176.087 98.9709 175.275 99.4991 174.263 99.9347C173.25 100.37 172.014 100.588 170.555 100.588ZM171.143 97.125C172.667 97.125 173.952 96.8255 174.998 96.2266C176.054 95.6276 176.849 94.8544 177.383 93.907C177.927 92.9595 178.199 91.9631 178.199 90.9176V87.3892C178.036 87.5852 177.677 87.7649 177.121 87.9283C176.577 88.0807 175.945 88.2169 175.226 88.3366C174.519 88.4455 173.827 88.5436 173.152 88.6307C172.488 88.7069 171.948 88.7723 171.535 88.8267C170.533 88.9574 169.596 89.1697 168.725 89.4638C167.865 89.7469 167.168 90.1771 166.634 90.7543C166.111 91.3205 165.85 92.0937 165.85 93.0739C165.85 94.4134 166.345 95.4261 167.336 96.1122C168.338 96.7874 169.607 97.125 171.143 97.125ZM206.864 80.5284L203.401 81.5085C203.183 80.9313 202.862 80.3705 202.437 79.826C202.023 79.2706 201.457 78.8132 200.738 78.4538C200.019 78.0945 199.099 77.9148 197.977 77.9148C196.442 77.9148 195.162 78.2687 194.138 78.9766C193.126 79.6735 192.619 80.5611 192.619 81.6392C192.619 82.5975 192.968 83.3544 193.665 83.9098C194.362 84.4652 195.451 84.928 196.932 85.2983L200.656 86.2131C202.9 86.7576 204.571 87.5907 205.671 88.7124C206.771 89.8232 207.321 91.2552 207.321 93.0085C207.321 94.446 206.907 95.7311 206.08 96.8636C205.263 97.9962 204.119 98.8892 202.649 99.5426C201.179 100.196 199.469 100.523 197.52 100.523C194.961 100.523 192.843 99.9673 191.165 98.8565C189.488 97.7457 188.427 96.1231 187.98 93.9886L191.639 93.0739C191.988 94.4242 192.647 95.437 193.616 96.1122C194.596 96.7874 195.875 97.125 197.455 97.125C199.251 97.125 200.678 96.7438 201.734 95.9815C202.802 95.2083 203.335 94.2827 203.335 93.2045C203.335 92.3333 203.03 91.6037 202.42 91.0156C201.811 90.4167 200.874 89.9702 199.611 89.6761L195.429 88.696C193.131 88.1515 191.443 87.3075 190.365 86.1641C189.298 85.0097 188.764 83.5668 188.764 81.8352C188.764 80.4195 189.162 79.1671 189.957 78.0781C190.763 76.9891 191.857 76.1342 193.24 75.5135C194.634 74.8928 196.213 74.5824 197.977 74.5824C200.46 74.5824 202.41 75.1269 203.825 76.2159C205.252 77.3049 206.265 78.7424 206.864 80.5284Z" fill="black"/>
</svg>
