<svg width="260" height="171" viewBox="0 0 260 171" fill="none" xmlns="http://www.w3.org/2000/svg">
<rect width="260" height="171" fill="#F5F5F5"/>
<rect width="260" height="171" fill="#FFF4A3"/>
<path d="M113.972 82H109.92C109.681 80.8348 109.262 79.8111 108.663 78.929C108.075 78.0469 107.356 77.3063 106.506 76.7074C105.668 76.0975 104.737 75.6402 103.713 75.3352C102.689 75.0303 101.622 74.8778 100.511 74.8778C98.4858 74.8778 96.6508 75.3897 95.0064 76.4134C93.3729 77.437 92.0715 78.9453 91.1023 80.9382C90.1439 82.9311 89.6648 85.3759 89.6648 88.2727C89.6648 91.1695 90.1439 93.6143 91.1023 95.6072C92.0715 97.6001 93.3729 99.1084 95.0064 100.132C96.6508 101.156 98.4858 101.668 100.511 101.668C101.622 101.668 102.689 101.515 103.713 101.21C104.737 100.905 105.668 100.453 106.506 99.8544C107.356 99.2446 108.075 98.4986 108.663 97.6165C109.262 96.7235 109.681 95.6998 109.92 94.5455H113.972C113.667 96.2552 113.111 97.7853 112.305 99.1357C111.5 100.486 110.498 101.635 109.3 102.582C108.102 103.519 106.757 104.232 105.265 104.722C103.784 105.212 102.199 105.457 100.511 105.457C97.6581 105.457 95.1207 104.76 92.8991 103.366C90.6776 101.973 88.9297 99.9905 87.6555 97.4205C86.3814 94.8504 85.7443 91.8011 85.7443 88.2727C85.7443 84.7443 86.3814 81.6951 87.6555 79.125C88.9297 76.5549 90.6776 74.5729 92.8991 73.179C95.1207 71.785 97.6581 71.0881 100.511 71.0881C102.199 71.0881 103.784 71.3331 105.265 71.8232C106.757 72.3132 108.102 73.032 109.3 73.9794C110.498 74.916 111.5 76.0594 112.305 77.4098C113.111 78.7493 113.667 80.2794 113.972 82ZM138.813 79.9091C138.617 78.2538 137.822 76.9688 136.428 76.054C135.035 75.1392 133.325 74.6818 131.299 74.6818C129.818 74.6818 128.522 74.9214 127.411 75.4006C126.311 75.8797 125.451 76.5386 124.83 77.3771C124.221 78.2157 123.916 79.1686 123.916 80.2358C123.916 81.1288 124.128 81.8965 124.553 82.5391C124.988 83.1707 125.544 83.6989 126.219 84.1236C126.894 84.5374 127.602 84.8804 128.343 85.1527C129.083 85.4141 129.764 85.6264 130.384 85.7898L133.782 86.7045C134.653 86.9332 135.623 87.2491 136.69 87.652C137.768 88.0549 138.797 88.6049 139.777 89.3018C140.768 89.9879 141.585 90.87 142.227 91.9482C142.87 93.0263 143.191 94.3494 143.191 95.9176C143.191 97.7254 142.718 99.3589 141.77 100.818C140.834 102.277 139.461 103.437 137.654 104.298C135.857 105.158 133.673 105.588 131.103 105.588C128.707 105.588 126.633 105.201 124.879 104.428C123.137 103.655 121.765 102.577 120.763 101.194C119.772 99.8108 119.211 98.2045 119.08 96.375H123.262C123.371 97.6383 123.796 98.6837 124.536 99.5114C125.288 100.328 126.235 100.938 127.379 101.341C128.533 101.733 129.775 101.929 131.103 101.929C132.65 101.929 134.038 101.679 135.269 101.178C136.499 100.666 137.474 99.9579 138.193 99.054C138.911 98.1392 139.271 97.072 139.271 95.8523C139.271 94.7415 138.96 93.8376 138.34 93.1406C137.719 92.4437 136.902 91.8774 135.889 91.4418C134.877 91.0062 133.782 90.625 132.606 90.2983L128.49 89.1222C125.876 88.3707 123.807 87.2981 122.282 85.9041C120.758 84.5102 119.995 82.6861 119.995 80.4318C119.995 78.5587 120.502 76.9252 121.514 75.5312C122.538 74.1264 123.91 73.0374 125.631 72.2642C127.362 71.4801 129.295 71.0881 131.43 71.0881C133.586 71.0881 135.503 71.4747 137.18 72.2479C138.857 73.0102 140.186 74.0556 141.166 75.3842C142.157 76.7128 142.679 78.2211 142.734 79.9091H138.813ZM168.147 79.9091C167.951 78.2538 167.156 76.9688 165.762 76.054C164.368 75.1392 162.659 74.6818 160.633 74.6818C159.152 74.6818 157.856 74.9214 156.745 75.4006C155.645 75.8797 154.785 76.5386 154.164 77.3771C153.555 78.2157 153.25 79.1686 153.25 80.2358C153.25 81.1288 153.462 81.8965 153.887 82.5391C154.322 83.1707 154.878 83.6989 155.553 84.1236C156.228 84.5374 156.936 84.8804 157.676 85.1527C158.417 85.4141 159.098 85.6264 159.718 85.7898L163.116 86.7045C163.987 86.9332 164.957 87.2491 166.024 87.652C167.102 88.0549 168.131 88.6049 169.111 89.3018C170.102 89.9879 170.919 90.87 171.561 91.9482C172.204 93.0263 172.525 94.3494 172.525 95.9176C172.525 97.7254 172.051 99.3589 171.104 100.818C170.167 102.277 168.795 103.437 166.988 104.298C165.191 105.158 163.007 105.588 160.437 105.588C158.041 105.588 155.967 105.201 154.213 104.428C152.471 103.655 151.099 102.577 150.097 101.194C149.106 99.8108 148.545 98.2045 148.414 96.375H152.596C152.705 97.6383 153.13 98.6837 153.87 99.5114C154.622 100.328 155.569 100.938 156.713 101.341C157.867 101.733 159.109 101.929 160.437 101.929C161.984 101.929 163.372 101.679 164.603 101.178C165.833 100.666 166.808 99.9579 167.527 99.054C168.245 98.1392 168.605 97.072 168.605 95.8523C168.605 94.7415 168.294 93.8376 167.674 93.1406C167.053 92.4437 166.236 91.8774 165.223 91.4418C164.211 91.0062 163.116 90.625 161.94 90.2983L157.824 89.1222C155.21 88.3707 153.141 87.2981 151.616 85.9041C150.092 84.5102 149.329 82.6861 149.329 80.4318C149.329 78.5587 149.836 76.9252 150.848 75.5312C151.872 74.1264 153.244 73.0374 154.965 72.2642C156.696 71.4801 158.629 71.0881 160.764 71.0881C162.92 71.0881 164.837 71.4747 166.514 72.2479C168.191 73.0102 169.52 74.0556 170.5 75.3842C171.491 76.7128 172.013 78.2211 172.068 79.9091H168.147Z" fill="black"/>
</svg>
