<svg width="260" height="171" viewBox="0 0 260 171" fill="none" xmlns="http://www.w3.org/2000/svg">
<rect width="260" height="171" fill="#F5F5F5"/>
<rect width="260" height="171" fill="#F3ECEA"/>
<path d="M95.206 55H91.1548C90.9152 53.8348 90.496 52.8111 89.897 51.929C89.3089 51.0469 88.5902 50.3063 87.7408 49.7074C86.9022 49.0975 85.9711 48.6402 84.9474 48.3352C83.9238 48.0303 82.8565 47.8778 81.7457 47.8778C79.7202 47.8778 77.8852 48.3897 76.2408 49.4134C74.6072 50.437 73.3059 51.9453 72.3366 53.9382C71.3783 55.9311 70.8991 58.3759 70.8991 61.2727C70.8991 64.1695 71.3783 66.6143 72.3366 68.6072C73.3059 70.6001 74.6072 72.1084 76.2408 73.1321C77.8852 74.1558 79.7202 74.6676 81.7457 74.6676C82.8565 74.6676 83.9238 74.5152 84.9474 74.2102C85.9711 73.9053 86.9022 73.4534 87.7408 72.8544C88.5902 72.2446 89.3089 71.4986 89.897 70.6165C90.496 69.7235 90.9152 68.6998 91.1548 67.5455H95.206C94.901 69.2552 94.3456 70.7853 93.5398 72.1357C92.7339 73.486 91.732 74.6349 90.5341 75.5824C89.3362 76.5189 87.9912 77.2322 86.4993 77.7223C85.0182 78.2124 83.4337 78.4574 81.7457 78.4574C78.8925 78.4574 76.3551 77.7604 74.1335 76.3665C71.9119 74.9725 70.1641 72.9905 68.8899 70.4205C67.6158 67.8504 66.9787 64.8011 66.9787 61.2727C66.9787 57.7443 67.6158 54.6951 68.8899 52.125C70.1641 49.5549 71.9119 47.5729 74.1335 46.179C76.3551 44.785 78.8925 44.0881 81.7457 44.0881C83.4337 44.0881 85.0182 44.3331 86.4993 44.8232C87.9912 45.3132 89.3362 46.032 90.5341 46.9794C91.732 47.916 92.7339 49.0594 93.5398 50.4098C94.3456 51.7493 94.901 53.2794 95.206 55ZM103.713 87.4091C103.059 87.4091 102.477 87.3546 101.965 87.2457C101.453 87.1477 101.099 87.0497 100.903 86.9517L101.883 83.554C102.82 83.7936 103.647 83.8807 104.366 83.8153C105.085 83.75 105.722 83.4287 106.277 82.8516C106.843 82.2853 107.361 81.3651 107.829 80.0909L108.548 78.1307L99.2694 52.9091H103.451L110.377 72.9034H110.639L117.565 52.9091H121.747L111.096 81.6591C110.617 82.955 110.023 84.0277 109.316 84.8771C108.608 85.7375 107.785 86.3745 106.849 86.7884C105.923 87.2022 104.878 87.4091 103.713 87.4091ZM127.358 78V44.5455H131.213V56.8949H131.54C131.823 56.4593 132.215 55.9039 132.716 55.2287C133.228 54.5426 133.957 53.9328 134.905 53.3991C135.863 52.8546 137.159 52.5824 138.792 52.5824C140.905 52.5824 142.767 53.1106 144.379 54.1669C145.991 55.2232 147.249 56.7206 148.153 58.6591C149.056 60.5975 149.508 62.8845 149.508 65.5199C149.508 68.1771 149.056 70.4804 148.153 72.4297C147.249 74.3681 145.996 75.871 144.395 76.9382C142.795 77.9946 140.949 78.5227 138.858 78.5227C137.246 78.5227 135.956 78.2559 134.986 77.7223C134.017 77.1778 133.271 76.5625 132.748 75.8764C132.226 75.1795 131.823 74.6023 131.54 74.1449H131.082V78H127.358ZM131.148 65.4545C131.148 67.3494 131.425 69.0211 131.981 70.4695C132.536 71.907 133.347 73.0341 134.415 73.8509C135.482 74.6567 136.789 75.0597 138.335 75.0597C139.947 75.0597 141.292 74.6349 142.37 73.7855C143.459 72.9252 144.276 71.7708 144.82 70.3224C145.376 68.8632 145.653 67.2405 145.653 65.4545C145.653 63.6903 145.381 62.1004 144.836 60.6847C144.303 59.258 143.492 58.1309 142.403 57.3033C141.324 56.4647 139.969 56.0455 138.335 56.0455C136.767 56.0455 135.449 56.4429 134.382 57.2379C133.315 58.022 132.509 59.1219 131.964 60.5376C131.42 61.9425 131.148 63.5814 131.148 65.4545ZM165.925 78.5227C163.508 78.5227 161.422 77.9891 159.669 76.9219C157.926 75.8438 156.581 74.3409 155.634 72.4134C154.698 70.4749 154.229 68.2206 154.229 65.6506C154.229 63.0805 154.698 60.8153 155.634 58.8551C156.581 56.884 157.899 55.3485 159.587 54.2486C161.286 53.1378 163.268 52.5824 165.533 52.5824C166.84 52.5824 168.131 52.8002 169.405 53.2358C170.679 53.6714 171.839 54.3793 172.884 55.3594C173.93 56.3286 174.763 57.6136 175.383 59.2145C176.004 60.8153 176.314 62.7865 176.314 65.1278V66.7614H156.974V63.429H172.394C172.394 62.0133 172.111 60.75 171.545 59.6392C170.989 58.5284 170.194 57.6518 169.16 57.0092C168.136 56.3667 166.927 56.0455 165.533 56.0455C163.998 56.0455 162.669 56.4266 161.547 57.1889C160.437 57.9403 159.582 58.9205 158.983 60.1293C158.384 61.3381 158.084 62.634 158.084 64.017V66.2386C158.084 68.1335 158.411 69.7398 159.064 71.0575C159.729 72.3643 160.649 73.3608 161.825 74.0469C163.001 74.7221 164.368 75.0597 165.925 75.0597C166.938 75.0597 167.853 74.9181 168.67 74.6349C169.497 74.3409 170.211 73.9053 170.809 73.3281C171.408 72.7401 171.871 72.0104 172.198 71.1392L175.922 72.1847C175.53 73.4479 174.872 74.5587 173.946 75.517C173.02 76.4645 171.877 77.205 170.515 77.7386C169.154 78.2614 167.624 78.5227 165.925 78.5227ZM182.179 78V52.9091H185.903V56.6989H186.165C186.622 55.4574 187.45 54.45 188.648 53.6768C189.845 52.9036 191.196 52.517 192.699 52.517C192.982 52.517 193.336 52.5225 193.76 52.5334C194.185 52.5443 194.506 52.5606 194.724 52.5824V56.5028C194.594 56.4702 194.294 56.4212 193.826 56.3558C193.368 56.2796 192.884 56.2415 192.372 56.2415C191.152 56.2415 190.063 56.4974 189.105 57.0092C188.157 57.5102 187.406 58.2071 186.851 59.1001C186.306 59.9822 186.034 60.9896 186.034 62.1222V78H182.179ZM62.9071 108.909C62.7111 107.254 61.9161 105.969 60.5222 105.054C59.1283 104.139 57.4185 103.682 55.3929 103.682C53.9119 103.682 52.6159 103.921 51.5051 104.401C50.4052 104.88 49.5449 105.539 48.9242 106.377C48.3143 107.216 48.0094 108.169 48.0094 109.236C48.0094 110.129 48.2218 110.897 48.6465 111.539C49.0821 112.171 49.6375 112.699 50.3127 113.124C50.9879 113.537 51.6957 113.88 52.4363 114.153C53.1768 114.414 53.8574 114.626 54.4782 114.79L57.8759 115.705C58.7471 115.933 59.7163 116.249 60.7836 116.652C61.8617 117.055 62.8908 117.605 63.8709 118.302C64.8619 118.988 65.6787 119.87 66.3212 120.948C66.9637 122.026 67.285 123.349 67.285 124.918C67.285 126.725 66.8113 128.359 65.8638 129.818C64.9273 131.277 63.5551 132.437 61.7473 133.298C59.9505 134.158 57.767 134.588 55.1969 134.588C52.8011 134.588 50.7265 134.201 48.9732 133.428C47.2308 132.655 45.8586 131.577 44.8567 130.194C43.8657 128.811 43.3049 127.205 43.1742 125.375H47.356C47.4649 126.638 47.8896 127.684 48.6301 128.511C49.3816 129.328 50.329 129.938 51.4725 130.341C52.6268 130.733 53.8683 130.929 55.1969 130.929C56.7433 130.929 58.1318 130.679 59.3624 130.178C60.593 129.666 61.5677 128.958 62.2864 128.054C63.0052 127.139 63.3645 126.072 63.3645 124.852C63.3645 123.741 63.0542 122.838 62.4334 122.141C61.8127 121.444 60.9959 120.877 59.9831 120.442C58.9703 120.006 57.8759 119.625 56.6998 119.298L52.5833 118.122C49.9696 117.371 47.9005 116.298 46.3759 114.904C44.8513 113.51 44.089 111.686 44.089 109.432C44.089 107.559 44.5953 105.925 45.6081 104.531C46.6318 103.126 48.004 102.037 49.7246 101.264C51.4561 100.48 53.3891 100.088 55.5236 100.088C57.6799 100.088 59.5965 100.475 61.2736 101.248C62.9507 102.01 64.2793 103.056 65.2594 104.384C66.2504 105.713 66.7731 107.221 66.8276 108.909H62.9071ZM83.9428 134.523C81.5252 134.523 79.4397 133.989 77.6864 132.922C75.944 131.844 74.5991 130.341 73.6516 128.413C72.7151 126.475 72.2468 124.221 72.2468 121.651C72.2468 119.08 72.7151 116.815 73.6516 114.855C74.5991 112.884 75.9168 111.348 77.6048 110.249C79.3036 109.138 81.2856 108.582 83.5508 108.582C84.8576 108.582 86.1481 108.8 87.4222 109.236C88.6964 109.671 89.8562 110.379 90.9016 111.359C91.9471 112.329 92.7802 113.614 93.4009 115.214C94.0217 116.815 94.332 118.786 94.332 121.128V122.761H74.9911V119.429H90.4116C90.4116 118.013 90.1284 116.75 89.5621 115.639C89.0067 114.528 88.2118 113.652 87.1772 113.009C86.1535 112.367 84.9447 112.045 83.5508 112.045C82.0153 112.045 80.6867 112.427 79.565 113.189C78.4542 113.94 77.5993 114.92 77.0004 116.129C76.4014 117.338 76.1019 118.634 76.1019 120.017V122.239C76.1019 124.134 76.4286 125.74 77.082 127.058C77.7463 128.364 78.6665 129.361 79.8427 130.047C81.0188 130.722 82.3855 131.06 83.9428 131.06C84.9556 131.06 85.8704 130.918 86.6871 130.635C87.5148 130.341 88.2281 129.905 88.8271 129.328C89.426 128.74 89.8889 128.01 90.2156 127.139L93.94 128.185C93.5479 129.448 92.8891 130.559 91.9634 131.517C91.0378 132.464 89.8943 133.205 88.533 133.739C87.1718 134.261 85.6417 134.523 83.9428 134.523ZM110.39 134.523C108.037 134.523 106.012 133.967 104.313 132.857C102.614 131.746 101.307 130.216 100.392 128.266C99.4776 126.317 99.0202 124.09 99.0202 121.585C99.0202 119.037 99.4885 116.788 100.425 114.839C101.373 112.879 102.69 111.348 104.378 110.249C106.077 109.138 108.059 108.582 110.324 108.582C112.088 108.582 113.678 108.909 115.094 109.562C116.51 110.216 117.67 111.131 118.574 112.307C119.477 113.483 120.038 114.855 120.256 116.423H116.401C116.107 115.28 115.453 114.267 114.441 113.385C113.439 112.492 112.088 112.045 110.39 112.045C108.887 112.045 107.569 112.437 106.436 113.222C105.315 113.995 104.438 115.089 103.806 116.505C103.186 117.91 102.875 119.56 102.875 121.455C102.875 123.393 103.18 125.081 103.79 126.518C104.411 127.956 105.282 129.072 106.404 129.867C107.536 130.662 108.865 131.06 110.39 131.06C111.391 131.06 112.301 130.885 113.118 130.537C113.934 130.188 114.626 129.688 115.192 129.034C115.758 128.381 116.161 127.597 116.401 126.682H120.256C120.038 128.163 119.499 129.497 118.639 130.684C117.789 131.86 116.662 132.797 115.257 133.494C113.864 134.18 112.241 134.523 110.39 134.523ZM141.704 123.741V108.909H145.559V134H141.704V129.753H141.443C140.855 131.027 139.94 132.111 138.699 133.004C137.457 133.886 135.889 134.327 133.994 134.327C132.426 134.327 131.032 133.984 129.812 133.298C128.592 132.601 127.634 131.555 126.937 130.161C126.24 128.756 125.892 126.987 125.892 124.852V108.909H129.747V124.591C129.747 126.42 130.259 127.88 131.282 128.969C132.317 130.058 133.635 130.602 135.235 130.602C136.194 130.602 137.168 130.357 138.159 129.867C139.161 129.377 140 128.626 140.675 127.613C141.361 126.6 141.704 125.31 141.704 123.741ZM152.62 134V108.909H156.345V112.699H156.606C157.063 111.457 157.891 110.45 159.089 109.677C160.287 108.904 161.637 108.517 163.14 108.517C163.423 108.517 163.777 108.522 164.202 108.533C164.627 108.544 164.948 108.561 165.166 108.582V112.503C165.035 112.47 164.736 112.421 164.267 112.356C163.81 112.28 163.325 112.241 162.813 112.241C161.594 112.241 160.505 112.497 159.546 113.009C158.599 113.51 157.847 114.207 157.292 115.1C156.748 115.982 156.475 116.99 156.475 118.122V134H152.62ZM169.735 134V108.909H173.591V134H169.735ZM171.696 104.727C170.944 104.727 170.296 104.471 169.752 103.96C169.218 103.448 168.951 102.832 168.951 102.114C168.951 101.395 169.218 100.78 169.752 100.268C170.296 99.7559 170.944 99.5 171.696 99.5C172.447 99.5 173.09 99.7559 173.623 100.268C174.168 100.78 174.44 101.395 174.44 102.114C174.44 102.832 174.168 103.448 173.623 103.96C173.09 104.471 172.447 104.727 171.696 104.727ZM191.563 108.909V112.176H178.561V108.909H191.563ZM182.35 102.898H186.205V126.812C186.205 127.902 186.363 128.718 186.679 129.263C187.006 129.796 187.42 130.156 187.921 130.341C188.432 130.515 188.972 130.602 189.538 130.602C189.963 130.602 190.311 130.58 190.583 130.537C190.856 130.482 191.073 130.439 191.237 130.406L192.021 133.869C191.759 133.967 191.395 134.065 190.926 134.163C190.458 134.272 189.865 134.327 189.146 134.327C188.057 134.327 186.99 134.093 185.944 133.624C184.91 133.156 184.049 132.443 183.363 131.484C182.688 130.526 182.35 129.317 182.35 127.858V102.898ZM199.845 143.409C199.192 143.409 198.609 143.355 198.097 143.246C197.586 143.148 197.232 143.05 197.036 142.952L198.016 139.554C198.952 139.794 199.78 139.881 200.499 139.815C201.218 139.75 201.855 139.429 202.41 138.852C202.976 138.285 203.494 137.365 203.962 136.091L204.681 134.131L195.402 108.909H199.584L206.51 128.903H206.771L213.698 108.909H217.879L207.229 137.659C206.75 138.955 206.156 140.028 205.448 140.877C204.74 141.737 203.918 142.375 202.982 142.788C202.056 143.202 201.011 143.409 199.845 143.409Z" fill="black"/>
</svg>
