<svg width="260" height="171" viewBox="0 0 260 171" fill="none" xmlns="http://www.w3.org/2000/svg">
<rect width="260" height="171" fill="#F5F5F5"/>
<rect width="260" height="171" fill="#F3ECEA"/>
<path d="M110.61 100H100.286V66.5455H111.068C114.313 66.5455 117.09 67.2152 119.399 68.5547C121.707 69.8833 123.477 71.7945 124.708 74.2884C125.938 76.7713 126.554 79.7443 126.554 83.2074C126.554 86.6922 125.933 89.6925 124.691 92.2081C123.45 94.7128 121.642 96.6404 119.268 97.9908C116.894 99.3303 114.008 100 110.61 100ZM104.338 96.4062H110.349C113.115 96.4062 115.407 95.8726 117.226 94.8054C119.045 93.7382 120.401 92.219 121.294 90.2479C122.187 88.2768 122.633 85.9299 122.633 83.2074C122.633 80.5066 122.192 78.1816 121.31 76.2322C120.428 74.272 119.11 72.7692 117.357 71.7237C115.603 70.6674 113.42 70.1392 110.806 70.1392H104.338V96.4062ZM160.269 77H156.218C155.979 75.8348 155.559 74.8111 154.96 73.929C154.372 73.0469 153.654 72.3063 152.804 71.7074C151.966 71.0975 151.035 70.6402 150.011 70.3352C148.987 70.0303 147.92 69.8778 146.809 69.8778C144.784 69.8778 142.949 70.3897 141.304 71.4134C139.671 72.437 138.369 73.9453 137.4 75.9382C136.442 77.9311 135.963 80.3759 135.963 83.2727C135.963 86.1695 136.442 88.6143 137.4 90.6072C138.369 92.6001 139.671 94.1084 141.304 95.1321C142.949 96.1558 144.784 96.6676 146.809 96.6676C147.92 96.6676 148.987 96.5152 150.011 96.2102C151.035 95.9053 151.966 95.4534 152.804 94.8544C153.654 94.2446 154.372 93.4986 154.96 92.6165C155.559 91.7235 155.979 90.6998 156.218 89.5455H160.269C159.965 91.2552 159.409 92.7853 158.603 94.1357C157.797 95.486 156.795 96.6349 155.598 97.5824C154.4 98.5189 153.055 99.2322 151.563 99.7223C150.082 100.212 148.497 100.457 146.809 100.457C143.956 100.457 141.419 99.7604 139.197 98.3665C136.975 96.9725 135.228 94.9905 133.953 92.4205C132.679 89.8504 132.042 86.8011 132.042 83.2727C132.042 79.7443 132.679 76.6951 133.953 74.125C135.228 71.5549 136.975 69.5729 139.197 68.179C141.419 66.785 143.956 66.0881 146.809 66.0881C148.497 66.0881 150.082 66.3331 151.563 66.8232C153.055 67.3132 154.4 68.032 155.598 68.9794C156.795 69.916 157.797 71.0594 158.603 72.4098C159.409 73.7493 159.965 75.2794 160.269 77Z" fill="black"/>
</svg>
