<svg width="260" height="171" viewBox="0 0 260 171" fill="none" xmlns="http://www.w3.org/2000/svg">
<rect width="260" height="171" fill="#F5F5F5"/>
<rect width="260" height="171" fill="#96D4D4"/>
<path d="M67.7324 100H57.4086V66.5455H68.1898C71.4351 66.5455 74.2121 67.2152 76.5208 68.5547C78.8295 69.8833 80.5991 71.7945 81.8297 74.2884C83.0603 76.7713 83.6756 79.7443 83.6756 83.2074C83.6756 86.6922 83.0549 89.6925 81.8134 92.2081C80.5719 94.7128 78.7641 96.6404 76.3901 97.9908C74.016 99.3303 71.1301 100 67.7324 100ZM61.4597 96.4062H67.4711C70.2372 96.4062 72.5295 95.8726 74.3482 94.8054C76.1668 93.7382 77.5227 92.219 78.4157 90.2479C79.3087 88.2768 79.7551 85.9299 79.7551 83.2074C79.7551 80.5066 79.3141 78.1816 78.432 76.2322C77.5499 74.272 76.2322 72.7692 74.4789 71.7237C72.7256 70.6674 70.5421 70.1392 67.9284 70.1392H61.4597V96.4062ZM89.9483 74.9091H93.8034V101.83C93.8034 103.376 93.5366 104.715 93.003 105.848C92.4803 106.981 91.6853 107.857 90.6181 108.478C89.5617 109.099 88.2277 109.409 86.6159 109.409C86.4853 109.409 86.3546 109.409 86.2239 109.409C86.0932 109.409 85.9625 109.409 85.8319 109.409V105.815C85.9625 105.815 86.0823 105.815 86.1912 105.815C86.3001 105.815 86.4199 105.815 86.5506 105.815C87.7267 105.815 88.5871 105.467 89.1316 104.77C89.6761 104.084 89.9483 103.104 89.9483 101.83V74.9091ZM91.8432 70.7273C91.0918 70.7273 90.4438 70.4714 89.8993 69.9595C89.3657 69.4477 89.0989 68.8324 89.0989 68.1136C89.0989 67.3949 89.3657 66.7796 89.8993 66.2678C90.4438 65.7559 91.0918 65.5 91.8432 65.5C92.5946 65.5 93.2372 65.7559 93.7708 66.2678C94.3153 66.7796 94.5875 67.3949 94.5875 68.1136C94.5875 68.8324 94.3153 69.4477 93.7708 69.9595C93.2372 70.4714 92.5946 70.7273 91.8432 70.7273ZM108.248 100.588C106.658 100.588 105.215 100.289 103.919 99.6896C102.623 99.0798 101.594 98.2031 100.832 97.0597C100.069 95.9053 99.6882 94.5114 99.6882 92.8778C99.6882 91.4403 99.9714 90.2751 100.538 89.3821C101.104 88.4782 101.861 87.7704 102.808 87.2585C103.756 86.7467 104.801 86.3655 105.945 86.1151C107.099 85.8537 108.259 85.6468 109.424 85.4943C110.949 85.2983 112.185 85.1513 113.132 85.0533C114.09 84.9444 114.787 84.7647 115.223 84.5142C115.67 84.2637 115.893 83.8281 115.893 83.2074V83.0767C115.893 81.465 115.452 80.2126 114.57 79.3196C113.698 78.4266 112.375 77.9801 110.6 77.9801C108.76 77.9801 107.317 78.383 106.271 79.1889C105.226 79.9948 104.491 80.8551 104.066 81.7699L100.407 80.4631C101.06 78.9384 101.932 77.7514 103.021 76.902C104.121 76.0417 105.318 75.4427 106.614 75.1051C107.921 74.7566 109.206 74.5824 110.469 74.5824C111.275 74.5824 112.201 74.6804 113.246 74.8764C114.303 75.0616 115.321 75.4482 116.301 76.0362C117.292 76.6243 118.114 77.5118 118.768 78.6989C119.421 79.8859 119.748 81.4759 119.748 83.4688V100H115.893V96.6023H115.697C115.435 97.1468 115 97.7294 114.39 98.3501C113.78 98.9709 112.969 99.4991 111.956 99.9347C110.943 100.37 109.707 100.588 108.248 100.588ZM108.836 97.125C110.361 97.125 111.646 96.8255 112.691 96.2266C113.747 95.6276 114.542 94.8544 115.076 93.907C115.621 92.9595 115.893 91.9631 115.893 90.9176V87.3892C115.729 87.5852 115.37 87.7649 114.815 87.9283C114.27 88.0807 113.638 88.2169 112.92 88.3366C112.212 88.4455 111.52 88.5436 110.845 88.6307C110.181 88.7069 109.642 88.7723 109.228 88.8267C108.226 88.9574 107.29 89.1697 106.418 89.4638C105.558 89.7469 104.861 90.1771 104.327 90.7543C103.805 91.3205 103.543 92.0937 103.543 93.0739C103.543 94.4134 104.039 95.4261 105.03 96.1122C106.032 96.7874 107.3 97.125 108.836 97.125ZM130.639 84.9062V100H126.784V74.9091H130.509V78.8295H130.835C131.423 77.5554 132.316 76.5317 133.514 75.7585C134.712 74.9744 136.259 74.5824 138.154 74.5824C139.852 74.5824 141.339 74.9309 142.613 75.6278C143.887 76.3139 144.878 77.3594 145.586 78.7642C146.294 80.1581 146.648 81.9223 146.648 84.0568V100H142.793V84.3182C142.793 82.3471 142.281 80.8116 141.257 79.7116C140.234 78.6009 138.829 78.0455 137.043 78.0455C135.812 78.0455 134.712 78.3123 133.743 78.8459C132.785 79.3795 132.028 80.1581 131.472 81.1818C130.917 82.2055 130.639 83.447 130.639 84.9062ZM163.82 109.932C161.958 109.932 160.357 109.692 159.018 109.213C157.678 108.745 156.562 108.124 155.669 107.351C154.787 106.589 154.085 105.772 153.562 104.901L156.633 102.744C156.981 103.202 157.422 103.724 157.956 104.312C158.49 104.911 159.219 105.429 160.145 105.864C161.081 106.311 162.307 106.534 163.82 106.534C165.846 106.534 167.518 106.044 168.835 105.064C170.153 104.084 170.812 102.548 170.812 100.457V95.3608H170.485C170.202 95.8182 169.799 96.3845 169.276 97.0597C168.764 97.724 168.024 98.3175 167.055 98.8402C166.096 99.352 164.8 99.608 163.167 99.608C161.141 99.608 159.323 99.1288 157.711 98.1705C156.11 97.2121 154.841 95.8182 153.905 93.9886C152.979 92.1591 152.516 89.9375 152.516 87.3239C152.516 84.7538 152.968 82.5159 153.872 80.6101C154.776 78.6934 156.034 77.2124 157.646 76.1669C159.257 75.1106 161.12 74.5824 163.232 74.5824C164.866 74.5824 166.162 74.8546 167.12 75.3991C168.089 75.9328 168.83 76.5426 169.342 77.2287C169.864 77.9039 170.267 78.4593 170.55 78.8949H170.942V74.9091H174.667V100.719C174.667 102.875 174.177 104.628 173.197 105.979C172.228 107.34 170.921 108.336 169.276 108.968C167.643 109.611 165.824 109.932 163.82 109.932ZM163.69 96.1449C165.236 96.1449 166.543 95.791 167.61 95.0831C168.677 94.3752 169.489 93.357 170.044 92.0284C170.599 90.6998 170.877 89.1098 170.877 87.2585C170.877 85.4508 170.605 83.8554 170.06 82.4723C169.516 81.0893 168.71 80.0057 167.643 79.2216C166.576 78.4375 165.258 78.0455 163.69 78.0455C162.056 78.0455 160.695 78.4593 159.606 79.2869C158.528 80.1146 157.716 81.2254 157.172 82.6193C156.638 84.0133 156.371 85.5597 156.371 87.2585C156.371 89.0009 156.644 90.5419 157.188 91.8814C157.744 93.21 158.56 94.2554 159.638 95.0178C160.728 95.7692 162.078 96.1449 163.69 96.1449ZM191.917 100.523C189.652 100.523 187.664 99.9837 185.955 98.9055C184.256 97.8274 182.927 96.3191 181.969 94.3807C181.021 92.4422 180.548 90.1771 180.548 87.5852C180.548 84.9716 181.021 82.6901 181.969 80.7408C182.927 78.7914 184.256 77.2777 185.955 76.1996C187.664 75.1214 189.652 74.5824 191.917 74.5824C194.182 74.5824 196.164 75.1214 197.863 76.1996C199.573 77.2777 200.901 78.7914 201.849 80.7408C202.807 82.6901 203.286 84.9716 203.286 87.5852C203.286 90.1771 202.807 92.4422 201.849 94.3807C200.901 96.3191 199.573 97.8274 197.863 98.9055C196.164 99.9837 194.182 100.523 191.917 100.523ZM191.917 97.0597C193.638 97.0597 195.053 96.6186 196.164 95.7365C197.275 94.8544 198.097 93.6946 198.631 92.2571C199.164 90.8196 199.431 89.2623 199.431 87.5852C199.431 85.9081 199.164 84.3454 198.631 82.897C198.097 81.4486 197.275 80.2779 196.164 79.3849C195.053 78.4919 193.638 78.0455 191.917 78.0455C190.196 78.0455 188.781 78.4919 187.67 79.3849C186.559 80.2779 185.737 81.4486 185.203 82.897C184.67 84.3454 184.403 85.9081 184.403 87.5852C184.403 89.2623 184.67 90.8196 185.203 92.2571C185.737 93.6946 186.559 94.8544 187.67 95.7365C188.781 96.6186 190.196 97.0597 191.917 97.0597Z" fill="black"/>
</svg>
