<svg width="260" height="171" viewBox="0 0 260 171" fill="none" xmlns="http://www.w3.org/2000/svg">
<rect width="260" height="171" fill="#F5F5F5"/>
<rect width="260" height="171" fill="#96D4D4"/>
<path d="M118.484 77C118.125 75.9001 117.651 74.9145 117.063 74.0433C116.486 73.1612 115.794 72.4098 114.988 71.7891C114.193 71.1683 113.289 70.6946 112.277 70.3679C111.264 70.0412 110.153 69.8778 108.944 69.8778C106.962 69.8778 105.16 70.3897 103.537 71.4134C101.915 72.437 100.624 73.9453 99.6657 75.9382C98.7074 77.9311 98.2282 80.3759 98.2282 83.2727C98.2282 86.1695 98.7129 88.6143 99.6821 90.6072C100.651 92.6001 101.964 94.1084 103.619 95.1321C105.274 96.1558 107.136 96.6676 109.206 96.6676C111.122 96.6676 112.81 96.2592 114.269 95.4425C115.74 94.6148 116.883 93.4496 117.7 91.9467C118.527 90.433 118.941 88.6525 118.941 86.6051L120.183 86.8665H110.12V83.2727H122.862V86.8665C122.862 89.6217 122.274 92.0175 121.098 94.054C119.932 96.0904 118.321 97.6695 116.262 98.7912C114.215 99.902 111.863 100.457 109.206 100.457C106.243 100.457 103.641 99.7604 101.397 98.3665C99.1648 96.9725 97.4224 94.9905 96.17 92.4205C94.9285 89.8504 94.3078 86.8011 94.3078 83.2727C94.3078 80.6264 94.6617 78.2469 95.3696 76.1342C96.0883 74.0107 97.1011 72.2029 98.4079 70.7109C99.7148 69.219 101.261 68.0755 103.047 67.2805C104.833 66.4856 106.799 66.0881 108.944 66.0881C110.708 66.0881 112.353 66.3549 113.877 66.8885C115.413 67.4112 116.78 68.1572 117.978 69.1264C119.186 70.0848 120.194 71.2337 121 72.5732C121.805 73.9018 122.361 75.3774 122.666 77H118.484ZM133.851 66.5455V100H129.8V66.5455H133.851ZM140.144 70.1392V66.5455H165.235V70.1392H154.715V100H150.664V70.1392H140.144Z" fill="black"/>
</svg>
