<svg width="260" height="171" viewBox="0 0 260 171" fill="none" xmlns="http://www.w3.org/2000/svg">
<rect width="260" height="171" fill="#F5F5F5"/>
<rect width="260" height="171" fill="#F3ECEA"/>
<path d="M125.604 77C125.245 75.9001 124.771 74.9145 124.183 74.0433C123.606 73.1612 122.914 72.4098 122.108 71.7891C121.313 71.1683 120.409 70.6946 119.397 70.3679C118.384 70.0412 117.273 69.8778 116.064 69.8778C114.082 69.8778 112.28 70.3897 110.657 71.4134C109.035 72.437 107.744 73.9453 106.786 75.9382C105.828 77.9311 105.348 80.3759 105.348 83.2727C105.348 86.1695 105.833 88.6143 106.802 90.6072C107.771 92.6001 109.084 94.1084 110.739 95.1321C112.394 96.1558 114.257 96.6676 116.326 96.6676C118.242 96.6676 119.93 96.2592 121.39 95.4425C122.86 94.6148 124.003 93.4496 124.82 91.9467C125.648 90.433 126.061 88.6525 126.061 86.6051L127.303 86.8665H117.24V83.2727H129.982V86.8665C129.982 89.6217 129.394 92.0175 128.218 94.054C127.052 96.0904 125.441 97.6695 123.382 98.7912C121.335 99.902 118.983 100.457 116.326 100.457C113.364 100.457 110.761 99.7604 108.517 98.3665C106.285 96.9725 104.542 94.9905 103.29 92.4205C102.049 89.8504 101.428 86.8011 101.428 83.2727C101.428 80.6264 101.782 78.2469 102.49 76.1342C103.208 74.0107 104.221 72.2029 105.528 70.7109C106.835 69.219 108.381 68.0755 110.167 67.2805C111.953 66.4856 113.919 66.0881 116.064 66.0881C117.828 66.0881 119.473 66.3549 120.998 66.8885C122.533 67.4112 123.9 68.1572 125.098 69.1264C126.306 70.0848 127.314 71.2337 128.12 72.5732C128.926 73.9018 129.481 75.3774 129.786 77H125.604ZM146.591 100.523C144.326 100.523 142.338 99.9837 140.628 98.9055C138.93 97.8274 137.601 96.3191 136.643 94.3807C135.695 92.4422 135.221 90.1771 135.221 87.5852C135.221 84.9716 135.695 82.6901 136.643 80.7408C137.601 78.7914 138.93 77.2777 140.628 76.1996C142.338 75.1214 144.326 74.5824 146.591 74.5824C148.856 74.5824 150.838 75.1214 152.537 76.1996C154.247 77.2777 155.575 78.7914 156.523 80.7408C157.481 82.6901 157.96 84.9716 157.96 87.5852C157.96 90.1771 157.481 92.4422 156.523 94.3807C155.575 96.3191 154.247 97.8274 152.537 98.9055C150.838 99.9837 148.856 100.523 146.591 100.523ZM146.591 97.0597C148.311 97.0597 149.727 96.6186 150.838 95.7365C151.949 94.8544 152.771 93.6946 153.305 92.2571C153.838 90.8196 154.105 89.2623 154.105 87.5852C154.105 85.9081 153.838 84.3454 153.305 82.897C152.771 81.4486 151.949 80.2779 150.838 79.3849C149.727 78.4919 148.311 78.0455 146.591 78.0455C144.87 78.0455 143.454 78.4919 142.344 79.3849C141.233 80.2779 140.411 81.4486 139.877 82.897C139.343 84.3454 139.077 85.9081 139.077 87.5852C139.077 89.2623 139.343 90.8196 139.877 92.2571C140.411 93.6946 141.233 94.8544 142.344 95.7365C143.454 96.6186 144.87 97.0597 146.591 97.0597Z" fill="black"/>
</svg>
