<svg width="260" height="171" viewBox="0 0 260 171" fill="none" xmlns="http://www.w3.org/2000/svg">
<rect width="260" height="171" fill="#F5F5F5"/>
<rect width="260" height="171" fill="#D9EEE1"/>
<path d="M79.0933 77C78.7339 75.9001 78.2602 74.9145 77.6721 74.0433C77.095 73.1612 76.4034 72.4098 75.5976 71.7891C74.8026 71.1683 73.8987 70.6946 72.8859 70.3679C71.8731 70.0412 70.7623 69.8778 69.5535 69.8778C67.5715 69.8778 65.7692 70.3897 64.1466 71.4134C62.5239 72.437 61.2335 73.9453 60.2751 75.9382C59.3168 77.9311 58.8376 80.3759 58.8376 83.2727C58.8376 86.1695 59.3222 88.6143 60.2915 90.6072C61.2607 92.6001 62.5729 94.1084 64.2282 95.1321C65.8836 96.1558 67.7458 96.6676 69.8149 96.6676C71.7316 96.6676 73.4195 96.2592 74.8788 95.4425C76.349 94.6148 77.4925 93.4496 78.3092 91.9467C79.1369 90.433 79.5507 88.6525 79.5507 86.6051L80.7922 86.8665H70.7297V83.2727H83.4711V86.8665C83.4711 89.6217 82.8831 92.0175 81.7069 94.054C80.5417 96.0904 78.93 97.6695 76.8717 98.7912C74.8244 99.902 72.4721 100.457 69.8149 100.457C66.8528 100.457 64.25 99.7604 62.0067 98.3665C59.7742 96.9725 58.0318 94.9905 56.7794 92.4205C55.5379 89.8504 54.9172 86.8011 54.9172 83.2727C54.9172 80.6264 55.2711 78.2469 55.979 76.1342C56.6977 74.0107 57.7105 72.2029 59.0173 70.7109C60.3241 69.219 61.8705 68.0755 63.6565 67.2805C65.4425 66.4856 67.4082 66.0881 69.5535 66.0881C71.3177 66.0881 72.9622 66.3549 74.4868 66.8885C76.0223 67.4112 77.389 68.1572 78.5869 69.1264C79.7957 70.0848 80.8031 71.2337 81.6089 72.5732C82.4148 73.9018 82.9702 75.3774 83.2751 77H79.0933ZM89.8868 100V74.9091H93.6112V78.6989H93.8726C94.33 77.4574 95.1576 76.45 96.3556 75.6768C97.5535 74.9036 98.9039 74.517 100.407 74.517C100.69 74.517 101.044 74.5225 101.468 74.5334C101.893 74.5443 102.214 74.5606 102.432 74.5824V78.5028C102.302 78.4702 102.002 78.4212 101.534 78.3558C101.076 78.2796 100.592 78.2415 100.08 78.2415C98.8603 78.2415 97.7713 78.4974 96.8129 79.0092C95.8655 79.5102 95.1141 80.2071 94.5587 81.1001C94.0142 81.9822 93.7419 82.9896 93.7419 84.1222V100H89.8868ZM114.386 100.588C112.796 100.588 111.353 100.289 110.057 99.6896C108.761 99.0798 107.732 98.2031 106.969 97.0597C106.207 95.9053 105.826 94.5114 105.826 92.8778C105.826 91.4403 106.109 90.2751 106.675 89.3821C107.242 88.4782 107.998 87.7704 108.946 87.2585C109.893 86.7467 110.939 86.3655 112.082 86.1151C113.237 85.8537 114.396 85.6468 115.562 85.4943C117.086 85.2983 118.322 85.1513 119.27 85.0533C120.228 84.9444 120.925 84.7647 121.361 84.5142C121.807 84.2637 122.03 83.8281 122.03 83.2074V83.0767C122.03 81.465 121.589 80.2126 120.707 79.3196C119.836 78.4266 118.513 77.9801 116.738 77.9801C114.897 77.9801 113.454 78.383 112.409 79.1889C111.364 79.9948 110.628 80.8551 110.204 81.7699L106.545 80.4631C107.198 78.9384 108.069 77.7514 109.158 76.902C110.258 76.0417 111.456 75.4427 112.752 75.1051C114.059 74.7566 115.344 74.5824 116.607 74.5824C117.413 74.5824 118.339 74.6804 119.384 74.8764C120.44 75.0616 121.459 75.4482 122.439 76.0362C123.43 76.6243 124.252 77.5118 124.905 78.6989C125.559 79.8859 125.886 81.4759 125.886 83.4688V100H122.03V96.6023H121.834C121.573 97.1468 121.137 97.7294 120.528 98.3501C119.918 98.9709 119.106 99.4991 118.094 99.9347C117.081 100.37 115.845 100.588 114.386 100.588ZM114.974 97.125C116.498 97.125 117.783 96.8255 118.829 96.2266C119.885 95.6276 120.68 94.8544 121.214 93.907C121.758 92.9595 122.03 91.9631 122.03 90.9176V87.3892C121.867 87.5852 121.508 87.7649 120.952 87.9283C120.408 88.0807 119.776 88.2169 119.057 88.3366C118.35 88.4455 117.658 88.5436 116.983 88.6307C116.319 88.7069 115.78 88.7723 115.366 88.8267C114.364 88.9574 113.427 89.1697 112.556 89.4638C111.696 89.7469 110.999 90.1771 110.465 90.7543C109.942 91.3205 109.681 92.0937 109.681 93.0739C109.681 94.4134 110.177 95.4261 111.168 96.1122C112.169 96.7874 113.438 97.125 114.974 97.125ZM144.095 74.9091V78.1761H130.57V74.9091H144.095ZM134.621 100V71.446C134.621 70.0085 134.958 68.8106 135.634 67.8523C136.309 66.8939 137.185 66.1752 138.264 65.696C139.342 65.2169 140.48 64.9773 141.678 64.9773C142.625 64.9773 143.398 65.0535 143.997 65.206C144.596 65.3584 145.043 65.5 145.337 65.6307L144.226 68.9631C144.03 68.8977 143.758 68.816 143.409 68.718C143.072 68.62 142.625 68.571 142.07 68.571C140.796 68.571 139.875 68.8923 139.309 69.5348C138.754 70.1773 138.476 71.1193 138.476 72.3608V100H134.621ZM149.498 100V74.9091H153.353V100H149.498ZM151.458 70.7273C150.707 70.7273 150.059 70.4714 149.514 69.9595C148.981 69.4477 148.714 68.8324 148.714 68.1136C148.714 67.3949 148.981 66.7796 149.514 66.2678C150.059 65.7559 150.707 65.5 151.458 65.5C152.21 65.5 152.852 65.7559 153.386 66.2678C153.93 66.7796 154.203 67.3949 154.203 68.1136C154.203 68.8324 153.93 69.4477 153.386 69.9595C152.852 70.4714 152.21 70.7273 151.458 70.7273ZM164.008 90.8523L163.943 86.0824H164.727L175.704 74.9091H180.474L168.778 86.7358H168.451L164.008 90.8523ZM160.414 100V66.5455H164.269V100H160.414ZM176.357 100L166.556 87.5852L169.301 84.9062L181.258 100H176.357ZM192.819 100.588C191.229 100.588 189.786 100.289 188.49 99.6896C187.194 99.0798 186.165 98.2031 185.403 97.0597C184.641 95.9053 184.259 94.5114 184.259 92.8778C184.259 91.4403 184.543 90.2751 185.109 89.3821C185.675 88.4782 186.432 87.7704 187.38 87.2585C188.327 86.7467 189.372 86.3655 190.516 86.1151C191.67 85.8537 192.83 85.6468 193.995 85.4943C195.52 85.2983 196.756 85.1513 197.703 85.0533C198.662 84.9444 199.359 84.7647 199.794 84.5142C200.241 84.2637 200.464 83.8281 200.464 83.2074V83.0767C200.464 81.465 200.023 80.2126 199.141 79.3196C198.27 78.4266 196.947 77.9801 195.171 77.9801C193.331 77.9801 191.888 78.383 190.843 79.1889C189.797 79.9948 189.062 80.8551 188.637 81.7699L184.978 80.4631C185.632 78.9384 186.503 77.7514 187.592 76.902C188.692 76.0417 189.89 75.4427 191.186 75.1051C192.492 74.7566 193.777 74.5824 195.041 74.5824C195.847 74.5824 196.772 74.6804 197.818 74.8764C198.874 75.0616 199.892 75.4482 200.872 76.0362C201.863 76.6243 202.686 77.5118 203.339 78.6989C203.992 79.8859 204.319 81.4759 204.319 83.4688V100H200.464V96.6023H200.268C200.007 97.1468 199.571 97.7294 198.961 98.3501C198.351 98.9709 197.54 99.4991 196.527 99.9347C195.514 100.37 194.278 100.588 192.819 100.588ZM193.407 97.125C194.932 97.125 196.217 96.8255 197.262 96.2266C198.319 95.6276 199.114 94.8544 199.647 93.907C200.192 92.9595 200.464 91.9631 200.464 90.9176V87.3892C200.301 87.5852 199.941 87.7649 199.386 87.9283C198.841 88.0807 198.21 88.2169 197.491 88.3366C196.783 88.4455 196.092 88.5436 195.416 88.6307C194.752 88.7069 194.213 88.7723 193.799 88.8267C192.797 88.9574 191.861 89.1697 190.99 89.4638C190.129 89.7469 189.432 90.1771 188.899 90.7543C188.376 91.3205 188.115 92.0937 188.115 93.0739C188.115 94.4134 188.61 95.4261 189.601 96.1122C190.603 96.7874 191.872 97.125 193.407 97.125Z" fill="black"/>
</svg>
