<svg width="259" height="165" viewBox="0 0 259 165" fill="none" xmlns="http://www.w3.org/2000/svg">
<rect width="259" height="165" fill="#F5F5F5"/>
<rect width="259" height="165" fill="#D9EEE1"/>
<path d="M64.0511 101V67.5455H68.1023V82.4432H85.9403V67.5455H89.9915V101H85.9403V86.0369H68.1023V101H64.0511ZM96.2724 71.1392V67.5455H121.363V71.1392H110.843V101H106.792V71.1392H96.2724ZM127.616 67.5455H132.451L143.82 95.3153H144.212L155.581 67.5455H160.417V101H156.627V75.5824H156.3L145.846 101H142.187L131.732 75.5824H131.405V101H127.616V67.5455ZM168.539 101V67.5455H172.591V97.4062H188.142V101H168.539Z" fill="black"/>
</svg>
