<svg width="260" height="171" viewBox="0 0 260 171" fill="none" xmlns="http://www.w3.org/2000/svg">
<rect width="260" height="171" fill="#F5F5F5"/>
<rect width="260" height="171" fill="#F3ECEA"/>
<path d="M90.2505 66.5455H94.3017V90.4602C94.3017 92.5947 93.9096 94.4079 93.1255 95.8999C92.3414 97.3918 91.2361 98.5244 89.8095 99.2976C88.3829 100.071 86.7003 100.457 84.7619 100.457C82.9324 100.457 81.3043 100.125 79.8777 99.4609C78.4511 98.7857 77.3294 97.8274 76.5126 96.5859C75.6958 95.3445 75.2875 93.8688 75.2875 92.1591H79.2733C79.2733 93.1065 79.5074 93.9342 79.9757 94.642C80.4548 95.339 81.1083 95.8835 81.9359 96.2756C82.7636 96.6676 83.7056 96.8636 84.7619 96.8636C85.9271 96.8636 86.9181 96.6186 87.7349 96.1286C88.5517 95.6385 89.1724 94.9197 89.5971 93.9723C90.0327 93.014 90.2505 91.8433 90.2505 90.4602V66.5455ZM103.792 100H99.5453L111.829 66.5455H116.011L128.295 100H124.048L114.051 71.8381H113.79L103.792 100ZM105.361 86.9318H122.48V90.5256H105.361V86.9318ZM131.734 66.5455L141.666 94.7074H142.058L151.99 66.5455H156.237L143.953 100H139.771L127.487 66.5455H131.734ZM159.945 100H155.698L167.982 66.5455H172.164L184.448 100H180.2L170.203 71.8381H169.942L159.945 100ZM161.513 86.9318H178.632V90.5256H161.513V86.9318Z" fill="black"/>
</svg>
