<svg width="260" height="171" viewBox="0 0 260 171" fill="none" xmlns="http://www.w3.org/2000/svg">
<rect width="260" height="171" fill="#F5F5F5"/>
<rect width="260" height="171" fill="#FFF4A3"/>
<path d="M61.5577 74.9091H65.4128V101.83C65.4128 103.376 65.146 104.715 64.6124 105.848C64.0897 106.981 63.2947 107.857 62.2275 108.478C61.1711 109.099 59.8371 109.409 58.2253 109.409C58.0946 109.409 57.964 109.409 57.8333 109.409C57.7026 109.409 57.5719 109.409 57.4412 109.409V105.815C57.5719 105.815 57.6917 105.815 57.8006 105.815C57.9095 105.815 58.0293 105.815 58.16 105.815C59.3361 105.815 60.1964 105.467 60.7409 104.77C61.2855 104.084 61.5577 103.104 61.5577 101.83V74.9091ZM63.4526 70.7273C62.7012 70.7273 62.0532 70.4714 61.5087 69.9595C60.9751 69.4477 60.7083 68.8324 60.7083 68.1136C60.7083 67.3949 60.9751 66.7796 61.5087 66.2678C62.0532 65.7559 62.7012 65.5 63.4526 65.5C64.204 65.5 64.8465 65.7559 65.3801 66.2678C65.9247 66.7796 66.1969 67.3949 66.1969 68.1136C66.1969 68.8324 65.9247 69.4477 65.3801 69.9595C64.8465 70.4714 64.204 70.7273 63.4526 70.7273ZM85.1499 89.5455H89.593L93.3175 94.446L94.2976 95.7528L99.8516 103.136H95.4084L91.7493 98.2358L90.8345 96.9943L85.1499 89.5455ZM101.224 83.2727C101.224 86.8011 100.587 89.8504 99.3125 92.4205C98.0384 94.9905 96.2905 96.9725 94.0689 98.3665C91.8473 99.7604 89.3099 100.457 86.4567 100.457C83.6035 100.457 81.0661 99.7604 78.8445 98.3665C76.6229 96.9725 74.875 94.9905 73.6009 92.4205C72.3267 89.8504 71.6896 86.8011 71.6896 83.2727C71.6896 79.7443 72.3267 76.6951 73.6009 74.125C74.875 71.5549 76.6229 69.5729 78.8445 68.179C81.0661 66.785 83.6035 66.0881 86.4567 66.0881C89.3099 66.0881 91.8473 66.785 94.0689 68.179C96.2905 69.5729 98.0384 71.5549 99.3125 74.125C100.587 76.6951 101.224 79.7443 101.224 83.2727ZM97.3033 83.2727C97.3033 80.3759 96.8187 77.9311 95.8494 75.9382C94.8911 73.9453 93.5897 72.437 91.9453 71.4134C90.3118 70.3897 88.4822 69.8778 86.4567 69.8778C84.4311 69.8778 82.5961 70.3897 80.9517 71.4134C79.3182 72.437 78.0168 73.9453 77.0476 75.9382C76.0893 77.9311 75.6101 80.3759 75.6101 83.2727C75.6101 86.1695 76.0893 88.6143 77.0476 90.6072C78.0168 92.6001 79.3182 94.1084 80.9517 95.1321C82.5961 96.1558 84.4311 96.6676 86.4567 96.6676C88.4822 96.6676 90.3118 96.1558 91.9453 95.1321C93.5897 94.1084 94.8911 92.6001 95.8494 90.6072C96.8187 88.6143 97.3033 86.1695 97.3033 83.2727ZM123.325 89.7415V74.9091H127.18V100H123.325V95.7528H123.064C122.476 97.027 121.561 98.1106 120.32 99.0036C119.078 99.8857 117.51 100.327 115.615 100.327C114.047 100.327 112.653 99.9837 111.433 99.2976C110.214 98.6006 109.255 97.5552 108.558 96.1612C107.861 94.7564 107.513 92.9867 107.513 90.8523V74.9091H111.368V90.5909C111.368 92.4205 111.88 93.8797 112.903 94.9688C113.938 96.0578 115.256 96.6023 116.857 96.6023C117.815 96.6023 118.79 96.3572 119.781 95.8672C120.782 95.3771 121.621 94.6257 122.296 93.6129C122.982 92.6001 123.325 91.3097 123.325 89.7415ZM144.761 100.523C142.344 100.523 140.258 99.9891 138.505 98.9219C136.762 97.8438 135.417 96.3409 134.47 94.4134C133.533 92.4749 133.065 90.2206 133.065 87.6506C133.065 85.0805 133.533 82.8153 134.47 80.8551C135.417 78.884 136.735 77.3485 138.423 76.2486C140.122 75.1378 142.104 74.5824 144.369 74.5824C145.676 74.5824 146.966 74.8002 148.241 75.2358C149.515 75.6714 150.675 76.3793 151.72 77.3594C152.765 78.3286 153.599 79.6136 154.219 81.2145C154.84 82.8153 155.15 84.7865 155.15 87.1278V88.7614H135.809V85.429H151.23C151.23 84.0133 150.947 82.75 150.381 81.6392C149.825 80.5284 149.03 79.6518 147.996 79.0092C146.972 78.3667 145.763 78.0455 144.369 78.0455C142.834 78.0455 141.505 78.4266 140.383 79.1889C139.273 79.9403 138.418 80.9205 137.819 82.1293C137.22 83.3381 136.92 84.634 136.92 86.017V88.2386C136.92 90.1335 137.247 91.7398 137.9 93.0575C138.565 94.3643 139.485 95.3608 140.661 96.0469C141.837 96.7221 143.204 97.0597 144.761 97.0597C145.774 97.0597 146.689 96.9181 147.506 96.6349C148.333 96.3409 149.046 95.9053 149.645 95.3281C150.244 94.7401 150.707 94.0104 151.034 93.1392L154.758 94.1847C154.366 95.4479 153.707 96.5587 152.782 97.517C151.856 98.4645 150.713 99.205 149.351 99.7386C147.99 100.261 146.46 100.523 144.761 100.523ZM161.015 100V74.9091H164.739V78.6989H165.001C165.458 77.4574 166.286 76.45 167.483 75.6768C168.681 74.9036 170.032 74.517 171.535 74.517C171.818 74.517 172.172 74.5225 172.596 74.5334C173.021 74.5443 173.342 74.5606 173.56 74.5824V78.5028C173.43 78.4702 173.13 78.4212 172.662 78.3558C172.204 78.2796 171.72 78.2415 171.208 78.2415C169.988 78.2415 168.899 78.4974 167.941 79.0092C166.993 79.5102 166.242 80.2071 165.687 81.1001C165.142 81.9822 164.87 82.9896 164.87 84.1222V100H161.015ZM181.377 109.409C180.723 109.409 180.141 109.355 179.629 109.246C179.117 109.148 178.763 109.05 178.567 108.952L179.547 105.554C180.484 105.794 181.311 105.881 182.03 105.815C182.749 105.75 183.386 105.429 183.941 104.852C184.508 104.285 185.025 103.365 185.493 102.091L186.212 100.131L176.933 74.9091H181.115L188.041 94.9034H188.303L195.229 74.9091H199.411L188.76 103.659C188.281 104.955 187.687 106.028 186.98 106.877C186.272 107.737 185.45 108.375 184.513 108.788C183.587 109.202 182.542 109.409 181.377 109.409Z" fill="black"/>
</svg>
