<svg width="260" height="171" viewBox="0 0 260 171" fill="none" xmlns="http://www.w3.org/2000/svg">
<rect width="260" height="171" fill="#F5F5F5"/>
<rect width="260" height="171" fill="#FFE600"/>
<path d="M119.203 66.5455H123.254V90.4602C123.254 92.5947 122.862 94.4079 122.078 95.8999C121.294 97.3918 120.188 98.5244 118.762 99.2976C117.335 100.071 115.652 100.457 113.714 100.457C111.884 100.457 110.256 100.125 108.83 99.4609C107.403 98.7857 106.282 97.8274 105.465 96.5859C104.648 95.3445 104.24 93.8688 104.24 92.1591H108.225C108.225 93.1065 108.46 93.9342 108.928 94.642C109.407 95.339 110.06 95.8835 110.888 96.2756C111.716 96.6676 112.658 96.8636 113.714 96.8636C114.879 96.8636 115.87 96.6186 116.687 96.1286C117.504 95.6385 118.125 94.9197 118.549 93.9723C118.985 93.014 119.203 91.8433 119.203 90.4602V66.5455ZM149.668 74.9091C149.472 73.2538 148.677 71.9688 147.283 71.054C145.889 70.1392 144.179 69.6818 142.154 69.6818C140.673 69.6818 139.377 69.9214 138.266 70.4006C137.166 70.8797 136.306 71.5386 135.685 72.3771C135.075 73.2157 134.77 74.1686 134.77 75.2358C134.77 76.1288 134.983 76.8965 135.407 77.5391C135.843 78.1707 136.398 78.6989 137.073 79.1236C137.749 79.5374 138.456 79.8804 139.197 80.1527C139.938 80.4141 140.618 80.6264 141.239 80.7898L144.637 81.7045C145.508 81.9332 146.477 82.2491 147.544 82.652C148.622 83.0549 149.652 83.6049 150.632 84.3018C151.623 84.9879 152.439 85.87 153.082 86.9482C153.724 88.0263 154.046 89.3494 154.046 90.9176C154.046 92.7254 153.572 94.3589 152.625 95.8182C151.688 97.2775 150.316 98.4373 148.508 99.2976C146.711 100.158 144.528 100.588 141.958 100.588C139.562 100.588 137.487 100.201 135.734 99.4283C133.992 98.6551 132.619 97.5769 131.617 96.1939C130.626 94.8108 130.066 93.2045 129.935 91.375H134.117C134.226 92.6383 134.65 93.6837 135.391 94.5114C136.142 95.3281 137.09 95.938 138.233 96.3409C139.388 96.733 140.629 96.929 141.958 96.929C143.504 96.929 144.893 96.6785 146.123 96.1776C147.354 95.6657 148.328 94.9579 149.047 94.054C149.766 93.1392 150.125 92.072 150.125 90.8523C150.125 89.7415 149.815 88.8376 149.194 88.1406C148.573 87.4437 147.757 86.8774 146.744 86.4418C145.731 86.0062 144.637 85.625 143.46 85.2983L139.344 84.1222C136.73 83.3707 134.661 82.2981 133.137 80.9041C131.612 79.5102 130.85 77.6861 130.85 75.4318C130.85 73.5587 131.356 71.9252 132.369 70.5312C133.393 69.1264 134.765 68.0374 136.485 67.2642C138.217 66.4801 140.15 66.0881 142.284 66.0881C144.441 66.0881 146.357 66.4747 148.034 67.2479C149.711 68.0102 151.04 69.0556 152.02 70.3842C153.011 71.7128 153.534 73.2211 153.588 74.9091H149.668Z" fill="black"/>
</svg>
