<svg width="260" height="171" viewBox="0 0 260 171" fill="none" xmlns="http://www.w3.org/2000/svg">
<rect width="260" height="171" fill="#F5F5F5"/>
<rect width="260" height="171" fill="#FFF4A3"/>
<path d="M84.3658 66.5455H88.4169V90.4602C88.4169 92.5947 88.0249 94.4079 87.2408 95.8999C86.4567 97.3918 85.3513 98.5244 83.9247 99.2976C82.4981 100.071 80.8156 100.457 78.8771 100.457C77.0476 100.457 75.4195 100.125 73.9929 99.4609C72.5663 98.7857 71.4446 97.8274 70.6278 96.5859C69.8111 95.3445 69.4027 93.8688 69.4027 92.1591H73.3885C73.3885 93.1065 73.6226 93.9342 74.0909 94.642C74.5701 95.339 75.2235 95.8835 76.0511 96.2756C76.8788 96.6676 77.8208 96.8636 78.8771 96.8636C80.0424 96.8636 81.0334 96.6186 81.8501 96.1286C82.6669 95.6385 83.2876 94.9197 83.7124 93.9723C84.148 93.014 84.3658 91.8433 84.3658 90.4602V66.5455ZM114.831 74.9091C114.635 73.2538 113.84 71.9688 112.446 71.054C111.052 70.1392 109.342 69.6818 107.317 69.6818C105.836 69.6818 104.54 69.9214 103.429 70.4006C102.329 70.8797 101.469 71.5386 100.848 72.3771C100.238 73.2157 99.9332 74.1686 99.9332 75.2358C99.9332 76.1288 100.146 76.8965 100.57 77.5391C101.006 78.1707 101.561 78.6989 102.237 79.1236C102.912 79.5374 103.62 79.8804 104.36 80.1527C105.101 80.4141 105.781 80.6264 106.402 80.7898L109.8 81.7045C110.671 81.9332 111.64 82.2491 112.707 82.652C113.786 83.0549 114.815 83.6049 115.795 84.3018C116.786 84.9879 117.603 85.87 118.245 86.9482C118.888 88.0263 119.209 89.3494 119.209 90.9176C119.209 92.7254 118.735 94.3589 117.788 95.8182C116.851 97.2775 115.479 98.4373 113.671 99.2976C111.874 100.158 109.691 100.588 107.121 100.588C104.725 100.588 102.65 100.201 100.897 99.4283C99.1546 98.6551 97.7824 97.5769 96.7805 96.1939C95.7895 94.8108 95.2287 93.2045 95.098 91.375H99.2798C99.3887 92.6383 99.8134 93.6837 100.554 94.5114C101.305 95.3281 102.253 95.938 103.396 96.3409C104.551 96.733 105.792 96.929 107.121 96.929C108.667 96.929 110.056 96.6785 111.286 96.1776C112.517 95.6657 113.491 94.9579 114.21 94.054C114.929 93.1392 115.288 92.072 115.288 90.8523C115.288 89.7415 114.978 88.8376 114.357 88.1406C113.737 87.4437 112.92 86.8774 111.907 86.4418C110.894 86.0062 109.8 85.625 108.624 85.2983L104.507 84.1222C101.893 83.3707 99.8243 82.2981 98.2997 80.9041C96.7751 79.5102 96.0128 77.6861 96.0128 75.4318C96.0128 73.5587 96.5192 71.9252 97.532 70.5312C98.5556 69.1264 99.9278 68.0374 101.648 67.2642C103.38 66.4801 105.313 66.0881 107.447 66.0881C109.604 66.0881 111.52 66.4747 113.197 67.2479C114.875 68.0102 116.203 69.0556 117.183 70.3842C118.174 71.7128 118.697 73.2211 118.751 74.9091H114.831ZM154.097 83.2727C154.097 86.8011 153.46 89.8504 152.186 92.4205C150.911 94.9905 149.164 96.9725 146.942 98.3665C144.72 99.7604 142.183 100.457 139.33 100.457C136.477 100.457 133.939 99.7604 131.718 98.3665C129.496 96.9725 127.748 94.9905 126.474 92.4205C125.2 89.8504 124.563 86.8011 124.563 83.2727C124.563 79.7443 125.2 76.6951 126.474 74.125C127.748 71.5549 129.496 69.5729 131.718 68.179C133.939 66.785 136.477 66.0881 139.33 66.0881C142.183 66.0881 144.72 66.785 146.942 68.179C149.164 69.5729 150.911 71.5549 152.186 74.125C153.46 76.6951 154.097 79.7443 154.097 83.2727ZM150.176 83.2727C150.176 80.3759 149.692 77.9311 148.722 75.9382C147.764 73.9453 146.463 72.437 144.818 71.4134C143.185 70.3897 141.355 69.8778 139.33 69.8778C137.304 69.8778 135.469 70.3897 133.825 71.4134C132.191 72.437 130.89 73.9453 129.921 75.9382C128.962 77.9311 128.483 80.3759 128.483 83.2727C128.483 86.1695 128.962 88.6143 129.921 90.6072C130.89 92.6001 132.191 94.1084 133.825 95.1321C135.469 96.1558 137.304 96.6676 139.33 96.6676C141.355 96.6676 143.185 96.1558 144.818 95.1321C146.463 94.1084 147.764 92.6001 148.722 90.6072C149.692 88.6143 150.176 86.1695 150.176 83.2727ZM187.437 66.5455V100H183.517L165.286 73.733H164.96V100H160.909V66.5455H164.829L183.124 92.8778H183.451V66.5455H187.437Z" fill="black"/>
</svg>
