<svg width="260" height="171" viewBox="0 0 260 171" fill="none" xmlns="http://www.w3.org/2000/svg">
<rect width="260" height="171" fill="#F5F5F5"/>
<rect width="260" height="171" fill="#D9EEE1"/>
<path d="M73.2494 105V71.5455H77.3005V88.142H77.6926L92.721 71.5455H98.0136L83.9653 86.6392L98.0136 105H93.113L81.4823 89.4489L77.3005 94.1534V105H73.2494ZM111.086 105.523C108.821 105.523 106.833 104.984 105.123 103.906C103.425 102.827 102.096 101.319 101.138 99.3807C100.19 97.4422 99.7165 95.1771 99.7165 92.5852C99.7165 89.9716 100.19 87.6901 101.138 85.7408C102.096 83.7914 103.425 82.2777 105.123 81.1996C106.833 80.1214 108.821 79.5824 111.086 79.5824C113.351 79.5824 115.333 80.1214 117.032 81.1996C118.742 82.2777 120.07 83.7914 121.018 85.7408C121.976 87.6901 122.455 89.9716 122.455 92.5852C122.455 95.1771 121.976 97.4422 121.018 99.3807C120.07 101.319 118.742 102.827 117.032 103.906C115.333 104.984 113.351 105.523 111.086 105.523ZM111.086 102.06C112.806 102.06 114.222 101.619 115.333 100.737C116.444 99.8544 117.266 98.6946 117.8 97.2571C118.333 95.8196 118.6 94.2623 118.6 92.5852C118.6 90.9081 118.333 89.3454 117.8 87.897C117.266 86.4486 116.444 85.2779 115.333 84.3849C114.222 83.4919 112.806 83.0455 111.086 83.0455C109.365 83.0455 107.949 83.4919 106.839 84.3849C105.728 85.2779 104.906 86.4486 104.372 87.897C103.838 89.3454 103.572 90.9081 103.572 92.5852C103.572 94.2623 103.838 95.8196 104.372 97.2571C104.906 98.6946 105.728 99.8544 106.839 100.737C107.949 101.619 109.365 102.06 111.086 102.06ZM139.252 79.9091V83.1761H126.249V79.9091H139.252ZM130.039 73.8977H133.894V97.8125C133.894 98.9015 134.052 99.7183 134.368 100.263C134.694 100.796 135.108 101.156 135.609 101.341C136.121 101.515 136.66 101.602 137.226 101.602C137.651 101.602 137.999 101.58 138.272 101.537C138.544 101.482 138.762 101.439 138.925 101.406L139.709 104.869C139.448 104.967 139.083 105.065 138.615 105.163C138.147 105.272 137.553 105.327 136.834 105.327C135.745 105.327 134.678 105.093 133.633 104.624C132.598 104.156 131.738 103.443 131.052 102.484C130.376 101.526 130.039 100.317 130.039 98.858V73.8977ZM149.445 71.5455V105H145.59V71.5455H149.445ZM156.506 105V79.9091H160.361V105H156.506ZM158.466 75.7273C157.715 75.7273 157.067 75.4714 156.522 74.9595C155.989 74.4477 155.722 73.8324 155.722 73.1136C155.722 72.3949 155.989 71.7796 156.522 71.2678C157.067 70.7559 157.715 70.5 158.466 70.5C159.218 70.5 159.86 70.7559 160.394 71.2678C160.938 71.7796 161.21 72.3949 161.21 73.1136C161.21 73.8324 160.938 74.4477 160.394 74.9595C159.86 75.4714 159.218 75.7273 158.466 75.7273ZM171.277 89.9062V105H167.422V79.9091H171.146V83.8295H171.473C172.061 82.5554 172.954 81.5317 174.152 80.7585C175.35 79.9744 176.896 79.5824 178.791 79.5824C180.49 79.5824 181.977 79.9309 183.251 80.6278C184.525 81.3139 185.516 82.3594 186.224 83.7642C186.932 85.1581 187.286 86.9223 187.286 89.0568V105H183.43V89.3182C183.43 87.3471 182.919 85.8116 181.895 84.7116C180.871 83.6009 179.466 83.0455 177.68 83.0455C176.45 83.0455 175.35 83.3123 174.381 83.8459C173.422 84.3795 172.666 85.1581 172.11 86.1818C171.555 87.2055 171.277 88.447 171.277 89.9062Z" fill="black"/>
</svg>
