<svg width="260" height="171" viewBox="0 0 260 171" fill="none" xmlns="http://www.w3.org/2000/svg">
<rect width="260" height="171" fill="#F5F5F5"/>
<rect width="260" height="171" fill="#FFC0C7"/>
<path d="M24.7504 66.5455H29.5856L40.9549 94.3153H41.3469L52.7163 66.5455H57.5515V100H53.7617V74.5824H53.435L42.9805 100H39.3214L28.8668 74.5824H28.5401V100H24.7504V66.5455ZM72.535 100.588C70.945 100.588 69.5021 100.289 68.2061 99.6896C66.9102 99.0798 65.8811 98.2031 65.1188 97.0597C64.3565 95.9053 63.9753 94.5114 63.9753 92.8778C63.9753 91.4403 64.2585 90.2751 64.8248 89.3821C65.391 88.4782 66.1479 87.7704 67.0953 87.2585C68.0428 86.7467 69.0882 86.3655 70.2317 86.1151C71.3861 85.8537 72.5459 85.6468 73.7111 85.4943C75.2357 85.2983 76.4718 85.1513 77.4192 85.0533C78.3775 84.9444 79.0745 84.7647 79.5101 84.5142C79.9566 84.2637 80.1799 83.8281 80.1799 83.2074V83.0767C80.1799 81.465 79.7388 80.2126 78.8567 79.3196C77.9855 78.4266 76.6623 77.9801 74.8873 77.9801C73.0468 77.9801 71.6039 78.383 70.5584 79.1889C69.513 79.9948 68.7779 80.8551 68.3532 81.7699L64.6941 80.4631C65.3475 78.9384 66.2187 77.7514 67.3077 76.902C68.4076 76.0417 69.6055 75.4427 70.9015 75.1051C72.2083 74.7566 73.4933 74.5824 74.7566 74.5824C75.5624 74.5824 76.4881 74.6804 77.5336 74.8764C78.5899 75.0616 79.6081 75.4482 80.5882 76.0362C81.5792 76.6243 82.4015 77.5118 83.0549 78.6989C83.7083 79.8859 84.035 81.4759 84.035 83.4688V100H80.1799V96.6023H79.9838C79.7225 97.1468 79.2869 97.7294 78.677 98.3501C78.0672 98.9709 77.2559 99.4991 76.2431 99.9347C75.2303 100.37 73.9943 100.588 72.535 100.588ZM73.123 97.125C74.6477 97.125 75.9327 96.8255 76.9782 96.2266C78.0345 95.6276 78.8295 94.8544 79.3631 93.907C79.9076 92.9595 80.1799 91.9631 80.1799 90.9176V87.3892C80.0165 87.5852 79.6571 87.7649 79.1017 87.9283C78.5572 88.0807 77.9256 88.2169 77.2069 88.3366C76.499 88.4455 75.8075 88.5436 75.1323 88.6307C74.468 88.7069 73.9289 88.7723 73.5151 88.8267C72.5132 88.9574 71.5766 89.1697 70.7054 89.4638C69.8451 89.7469 69.1481 90.1771 68.6145 90.7543C68.0918 91.3205 67.8304 92.0937 67.8304 93.0739C67.8304 94.4134 68.3259 95.4261 69.3169 96.1122C70.3188 96.7874 71.5875 97.125 73.123 97.125ZM101.983 74.9091V78.1761H88.9805V74.9091H101.983ZM92.7702 68.8977H96.6254V92.8125C96.6254 93.9015 96.7833 94.7183 97.0991 95.2628C97.4258 95.7964 97.8396 96.1558 98.3406 96.3409C98.8524 96.5152 99.3915 96.6023 99.9577 96.6023C100.382 96.6023 100.731 96.5805 101.003 96.5369C101.275 96.4825 101.493 96.4389 101.657 96.4062L102.441 99.8693C102.179 99.9673 101.815 100.065 101.346 100.163C100.878 100.272 100.284 100.327 99.5657 100.327C98.4767 100.327 97.4094 100.093 96.364 99.6243C95.3294 99.156 94.4691 98.4427 93.783 97.4844C93.1078 96.526 92.7702 95.3172 92.7702 93.858V68.8977ZM107.782 109.409V74.9091H111.507V78.8949H111.964C112.247 78.4593 112.639 77.9039 113.14 77.2287C113.652 76.5426 114.382 75.9328 115.329 75.3991C116.288 74.8546 117.583 74.5824 119.217 74.5824C121.33 74.5824 123.192 75.1106 124.804 76.1669C126.415 77.2232 127.673 78.7206 128.577 80.6591C129.481 82.5975 129.933 84.8845 129.933 87.5199C129.933 90.1771 129.481 92.4804 128.577 94.4297C127.673 96.3681 126.421 97.871 124.82 98.9382C123.219 99.9946 121.373 100.523 119.282 100.523C117.671 100.523 116.38 100.256 115.411 99.7223C114.442 99.1778 113.696 98.5625 113.173 97.8764C112.65 97.1795 112.247 96.6023 111.964 96.1449H111.637V109.409H107.782ZM111.572 87.4545C111.572 89.3494 111.85 91.0211 112.405 92.4695C112.961 93.907 113.772 95.0341 114.839 95.8509C115.906 96.6567 117.213 97.0597 118.76 97.0597C120.371 97.0597 121.716 96.6349 122.794 95.7855C123.883 94.9252 124.7 93.7708 125.245 92.3224C125.8 90.8632 126.078 89.2405 126.078 87.4545C126.078 85.6903 125.806 84.1004 125.261 82.6847C124.727 81.258 123.916 80.1309 122.827 79.3033C121.749 78.4647 120.393 78.0455 118.76 78.0455C117.191 78.0455 115.874 78.4429 114.806 79.2379C113.739 80.022 112.933 81.1219 112.389 82.5376C111.844 83.9425 111.572 85.5814 111.572 87.4545ZM139.669 66.5455V100H135.814V66.5455H139.669ZM156.923 100.523C154.658 100.523 152.67 99.9837 150.96 98.9055C149.262 97.8274 147.933 96.3191 146.975 94.3807C146.027 92.4422 145.553 90.1771 145.553 87.5852C145.553 84.9716 146.027 82.6901 146.975 80.7408C147.933 78.7914 149.262 77.2777 150.96 76.1996C152.67 75.1214 154.658 74.5824 156.923 74.5824C159.188 74.5824 161.17 75.1214 162.869 76.1996C164.579 77.2777 165.907 78.7914 166.855 80.7408C167.813 82.6901 168.292 84.9716 168.292 87.5852C168.292 90.1771 167.813 92.4422 166.855 94.3807C165.907 96.3191 164.579 97.8274 162.869 98.9055C161.17 99.9837 159.188 100.523 156.923 100.523ZM156.923 97.0597C158.643 97.0597 160.059 96.6186 161.17 95.7365C162.281 94.8544 163.103 93.6946 163.637 92.2571C164.17 90.8196 164.437 89.2623 164.437 87.5852C164.437 85.9081 164.17 84.3454 163.637 82.897C163.103 81.4486 162.281 80.2779 161.17 79.3849C160.059 78.4919 158.643 78.0455 156.923 78.0455C155.202 78.0455 153.786 78.4919 152.676 79.3849C151.565 80.2779 150.743 81.4486 150.209 82.897C149.675 84.3454 149.409 85.9081 149.409 87.5852C149.409 89.2623 149.675 90.8196 150.209 92.2571C150.743 93.6946 151.565 94.8544 152.676 95.7365C153.786 96.6186 155.202 97.0597 156.923 97.0597ZM185.089 74.9091V78.1761H172.086V74.9091H185.089ZM175.876 68.8977H179.731V92.8125C179.731 93.9015 179.889 94.7183 180.205 95.2628C180.531 95.7964 180.945 96.1558 181.446 96.3409C181.958 96.5152 182.497 96.6023 183.063 96.6023C183.488 96.6023 183.836 96.5805 184.109 96.5369C184.381 96.4825 184.599 96.4389 184.762 96.4062L185.546 99.8693C185.285 99.9673 184.92 100.065 184.452 100.163C183.983 100.272 183.39 100.327 182.671 100.327C181.582 100.327 180.515 100.093 179.469 99.6243C178.435 99.156 177.575 98.4427 176.888 97.4844C176.213 96.526 175.876 95.3172 175.876 93.858V68.8977ZM195.282 66.5455V100H191.427V66.5455H195.282ZM202.343 100V74.9091H206.198V100H202.343ZM204.303 70.7273C203.552 70.7273 202.904 70.4714 202.359 69.9595C201.826 69.4477 201.559 68.8324 201.559 68.1136C201.559 67.3949 201.826 66.7796 202.359 66.2678C202.904 65.7559 203.552 65.5 204.303 65.5C205.055 65.5 205.697 65.7559 206.231 66.2678C206.775 66.7796 207.047 67.3949 207.047 68.1136C207.047 68.8324 206.775 69.4477 206.231 69.9595C205.697 70.4714 205.055 70.7273 204.303 70.7273ZM213.782 100V66.5455H217.637V78.8949H217.963C218.247 78.4593 218.639 77.9039 219.14 77.2287C219.651 76.5426 220.381 75.9328 221.328 75.3991C222.287 74.8546 223.583 74.5824 225.216 74.5824C227.329 74.5824 229.191 75.1106 230.803 76.1669C232.415 77.2232 233.672 78.7206 234.576 80.6591C235.48 82.5975 235.932 84.8845 235.932 87.5199C235.932 90.1771 235.48 92.4804 234.576 94.4297C233.672 96.3681 232.42 97.871 230.819 98.9382C229.218 99.9946 227.373 100.523 225.282 100.523C223.67 100.523 222.379 100.256 221.41 99.7223C220.441 99.1778 219.695 98.5625 219.172 97.8764C218.65 97.1795 218.247 96.6023 217.963 96.1449H217.506V100H213.782ZM217.571 87.4545C217.571 89.3494 217.849 91.0211 218.404 92.4695C218.96 93.907 219.771 95.0341 220.838 95.8509C221.906 96.6567 223.212 97.0597 224.759 97.0597C226.371 97.0597 227.716 96.6349 228.794 95.7855C229.883 94.9252 230.699 93.7708 231.244 92.3224C231.799 90.8632 232.077 89.2405 232.077 87.4545C232.077 85.6903 231.805 84.1004 231.26 82.6847C230.727 81.258 229.915 80.1309 228.826 79.3033C227.748 78.4647 226.392 78.0455 224.759 78.0455C223.191 78.0455 221.873 78.4429 220.806 79.2379C219.739 80.022 218.933 81.1219 218.388 82.5376C217.844 83.9425 217.571 85.5814 217.571 87.4545Z" fill="black"/>
</svg>
