<svg width="260" height="171" viewBox="0 0 260 171" fill="none" xmlns="http://www.w3.org/2000/svg">
<rect width="260" height="171" fill="#F5F5F5"/>
<rect width="260" height="171" fill="#FFC0C7"/>
<path d="M26.682 66.5455H31.5172L42.8865 94.3153H43.2786L54.6479 66.5455H59.4831V100H55.6934V74.5824H55.3667L44.9121 100H41.253L30.7985 74.5824H30.4718V100H26.682V66.5455ZM77.2763 100.523C75.0111 100.523 73.0237 99.9837 71.3139 98.9055C69.6151 97.8274 68.2865 96.3191 67.3281 94.3807C66.3807 92.4422 65.907 90.1771 65.907 87.5852C65.907 84.9716 66.3807 82.6901 67.3281 80.7408C68.2865 78.7914 69.6151 77.2777 71.3139 76.1996C73.0237 75.1214 75.0111 74.5824 77.2763 74.5824C79.5414 74.5824 81.5234 75.1214 83.2223 76.1996C84.9321 77.2777 86.2607 78.7914 87.2081 80.7408C88.1664 82.6901 88.6456 84.9716 88.6456 87.5852C88.6456 90.1771 88.1664 92.4422 87.2081 94.3807C86.2607 96.3191 84.9321 97.8274 83.2223 98.9055C81.5234 99.9837 79.5414 100.523 77.2763 100.523ZM77.2763 97.0597C78.9969 97.0597 80.4126 96.6186 81.5234 95.7365C82.6342 94.8544 83.4564 93.6946 83.9901 92.2571C84.5237 90.8196 84.7905 89.2623 84.7905 87.5852C84.7905 85.9081 84.5237 84.3454 83.9901 82.897C83.4564 81.4486 82.6342 80.2779 81.5234 79.3849C80.4126 78.4919 78.9969 78.0455 77.2763 78.0455C75.5556 78.0455 74.1399 78.4919 73.0291 79.3849C71.9183 80.2779 71.0961 81.4486 70.5625 82.897C70.0289 84.3454 69.7621 85.9081 69.7621 87.5852C69.7621 89.2623 70.0289 90.8196 70.5625 92.2571C71.0961 93.6946 71.9183 94.8544 73.0291 95.7365C74.1399 96.6186 75.5556 97.0597 77.2763 97.0597ZM98.3855 84.9062V100H94.5304V74.9091H98.2548V78.8295H98.5815C99.1696 77.5554 100.063 76.5317 101.26 75.7585C102.458 74.9744 104.005 74.5824 105.9 74.5824C107.599 74.5824 109.085 74.9309 110.359 75.6278C111.633 76.3139 112.624 77.3594 113.332 78.7642C114.04 80.1581 114.394 81.9223 114.394 84.0568V100H110.539V84.3182C110.539 82.3471 110.027 80.8116 109.003 79.7116C107.98 78.6009 106.575 78.0455 104.789 78.0455C103.558 78.0455 102.458 78.3123 101.489 78.8459C100.531 79.3795 99.774 80.1581 99.2186 81.1818C98.6632 82.2055 98.3855 83.447 98.3855 84.9062ZM131.566 109.932C129.704 109.932 128.103 109.692 126.764 109.213C125.424 108.745 124.308 108.124 123.415 107.351C122.533 106.589 121.831 105.772 121.308 104.901L124.379 102.744C124.727 103.202 125.168 103.724 125.702 104.312C126.236 104.911 126.965 105.429 127.891 105.864C128.828 106.311 130.053 106.534 131.566 106.534C133.592 106.534 135.264 106.044 136.581 105.064C137.899 104.084 138.558 102.548 138.558 100.457V95.3608H138.231C137.948 95.8182 137.545 96.3845 137.022 97.0597C136.511 97.724 135.77 98.3175 134.801 98.8402C133.842 99.352 132.547 99.608 130.913 99.608C128.887 99.608 127.069 99.1288 125.457 98.1705C123.856 97.2121 122.587 95.8182 121.651 93.9886C120.725 92.1591 120.262 89.9375 120.262 87.3239C120.262 84.7538 120.714 82.5159 121.618 80.6101C122.522 78.6934 123.78 77.2124 125.392 76.1669C127.003 75.1106 128.866 74.5824 130.978 74.5824C132.612 74.5824 133.908 74.8546 134.866 75.3991C135.835 75.9328 136.576 76.5426 137.088 77.2287C137.61 77.9039 138.013 78.4593 138.297 78.8949H138.689V74.9091H142.413V100.719C142.413 102.875 141.923 104.628 140.943 105.979C139.974 107.34 138.667 108.336 137.022 108.968C135.389 109.611 133.57 109.932 131.566 109.932ZM131.436 96.1449C132.982 96.1449 134.289 95.791 135.356 95.0831C136.423 94.3752 137.235 93.357 137.79 92.0284C138.346 90.6998 138.623 89.1098 138.623 87.2585C138.623 85.4508 138.351 83.8554 137.806 82.4723C137.262 81.0893 136.456 80.0057 135.389 79.2216C134.322 78.4375 133.004 78.0455 131.436 78.0455C129.802 78.0455 128.441 78.4593 127.352 79.2869C126.274 80.1146 125.462 81.2254 124.918 82.6193C124.384 84.0133 124.118 85.5597 124.118 87.2585C124.118 89.0009 124.39 90.5419 124.934 91.8814C125.49 93.21 126.306 94.2554 127.385 95.0178C128.474 95.7692 129.824 96.1449 131.436 96.1449ZM159.663 100.523C157.398 100.523 155.41 99.9837 153.701 98.9055C152.002 97.8274 150.673 96.3191 149.715 94.3807C148.767 92.4422 148.294 90.1771 148.294 87.5852C148.294 84.9716 148.767 82.6901 149.715 80.7408C150.673 78.7914 152.002 77.2777 153.701 76.1996C155.41 75.1214 157.398 74.5824 159.663 74.5824C161.928 74.5824 163.91 75.1214 165.609 76.1996C167.319 77.2777 168.647 78.7914 169.595 80.7408C170.553 82.6901 171.032 84.9716 171.032 87.5852C171.032 90.1771 170.553 92.4422 169.595 94.3807C168.647 96.3191 167.319 97.8274 165.609 98.9055C163.91 99.9837 161.928 100.523 159.663 100.523ZM159.663 97.0597C161.384 97.0597 162.799 96.6186 163.91 95.7365C165.021 94.8544 165.843 93.6946 166.377 92.2571C166.91 90.8196 167.177 89.2623 167.177 87.5852C167.177 85.9081 166.91 84.3454 166.377 82.897C165.843 81.4486 165.021 80.2779 163.91 79.3849C162.799 78.4919 161.384 78.0455 159.663 78.0455C157.942 78.0455 156.527 78.4919 155.416 79.3849C154.305 80.2779 153.483 81.4486 152.949 82.897C152.416 84.3454 152.149 85.9081 152.149 87.5852C152.149 89.2623 152.416 90.8196 152.949 92.2571C153.483 93.6946 154.305 94.8544 155.416 95.7365C156.527 96.6186 157.942 97.0597 159.663 97.0597ZM187.764 100H177.44V66.5455H188.221C191.466 66.5455 194.243 67.2152 196.552 68.5547C198.861 69.8833 200.63 71.7945 201.861 74.2884C203.092 76.7713 203.707 79.7443 203.707 83.2074C203.707 86.6922 203.086 89.6925 201.845 92.2081C200.603 94.7128 198.795 96.6404 196.421 97.9908C194.047 99.3303 191.161 100 187.764 100ZM181.491 96.4062H187.502C190.268 96.4062 192.561 95.8726 194.379 94.8054C196.198 93.7382 197.554 92.219 198.447 90.2479C199.34 88.2768 199.786 85.9299 199.786 83.2074C199.786 80.5066 199.345 78.1816 198.463 76.2322C197.581 74.272 196.263 72.7692 194.51 71.7237C192.757 70.6674 190.573 70.1392 187.96 70.1392H181.491V96.4062ZM210.502 100V66.5455H222.198C224.529 66.5455 226.451 66.9484 227.965 67.7543C229.478 68.5492 230.606 69.6219 231.346 70.9723C232.087 72.3118 232.457 73.7983 232.457 75.4318C232.457 76.8693 232.201 78.0563 231.689 78.9929C231.188 79.9295 230.524 80.67 229.696 81.2145C228.879 81.759 227.992 82.1619 227.034 82.4233V82.75C228.057 82.8153 229.086 83.1747 230.121 83.8281C231.155 84.4815 232.021 85.4181 232.718 86.6378C233.415 87.8575 233.764 89.3494 233.764 91.1136C233.764 92.7907 233.383 94.299 232.62 95.6385C231.858 96.978 230.655 98.0398 229.01 98.8239C227.366 99.608 225.226 100 222.59 100H210.502ZM214.553 96.4062H222.59C225.237 96.4062 227.115 95.8944 228.226 94.8707C229.348 93.8362 229.909 92.5838 229.909 91.1136C229.909 89.9811 229.62 88.9356 229.043 87.9773C228.466 87.008 227.643 86.2348 226.576 85.6577C225.509 85.0696 224.246 84.7756 222.786 84.7756H214.553V96.4062ZM214.553 81.2472H222.068C223.287 81.2472 224.387 81.0076 225.367 80.5284C226.358 80.0492 227.142 79.3741 227.72 78.5028C228.308 77.6316 228.602 76.608 228.602 75.4318C228.602 73.9616 228.09 72.7147 227.066 71.6911C226.043 70.6565 224.42 70.1392 222.198 70.1392H214.553V81.2472Z" fill="black"/>
</svg>
