<svg width="260" height="171" viewBox="0 0 260 171" fill="none" xmlns="http://www.w3.org/2000/svg">
<rect width="260" height="171" fill="#F5F5F5"/>
<rect width="260" height="171" fill="#D9EEE1"/>
<path d="M55.6625 66.5455H60.4977L71.867 94.3153H72.2591L83.6284 66.5455H88.4636V100H84.6738V74.5824H84.3471L73.8926 100H70.2335L59.7789 74.5824H59.4522V100H55.6625V66.5455ZM98.5465 109.409C97.8931 109.409 97.3105 109.355 96.7987 109.246C96.2868 109.148 95.9329 109.05 95.7369 108.952L96.717 105.554C97.6535 105.794 98.4812 105.881 99.1999 105.815C99.9187 105.75 100.556 105.429 101.111 104.852C101.677 104.285 102.195 103.365 102.663 102.091L103.382 100.131L94.1033 74.9091H98.2852L105.211 94.9034H105.473L112.399 74.9091H116.581L105.93 103.659C105.451 104.955 104.857 106.028 104.15 106.877C103.442 107.737 102.619 108.375 101.683 108.788C100.757 109.202 99.7118 109.409 98.5465 109.409ZM140.487 74.9091C140.291 73.2538 139.496 71.9688 138.102 71.054C136.708 70.1392 134.999 69.6818 132.973 69.6818C131.492 69.6818 130.196 69.9214 129.085 70.4006C127.985 70.8797 127.125 71.5386 126.504 72.3771C125.894 73.2157 125.589 74.1686 125.589 75.2358C125.589 76.1288 125.802 76.8965 126.227 77.5391C126.662 78.1707 127.218 78.6989 127.893 79.1236C128.568 79.5374 129.276 79.8804 130.016 80.1527C130.757 80.4141 131.438 80.6264 132.058 80.7898L135.456 81.7045C136.327 81.9332 137.296 82.2491 138.364 82.652C139.442 83.0549 140.471 83.6049 141.451 84.3018C142.442 84.9879 143.259 85.87 143.901 86.9482C144.544 88.0263 144.865 89.3494 144.865 90.9176C144.865 92.7254 144.391 94.3589 143.444 95.8182C142.507 97.2775 141.135 98.4373 139.327 99.2976C137.531 100.158 135.347 100.588 132.777 100.588C130.381 100.588 128.307 100.201 126.553 99.4283C124.811 98.6551 123.439 97.5769 122.437 96.1939C121.446 94.8108 120.885 93.2045 120.754 91.375H124.936C125.045 92.6383 125.47 93.6837 126.21 94.5114C126.962 95.3281 127.909 95.938 129.053 96.3409C130.207 96.733 131.448 96.929 132.777 96.929C134.323 96.929 135.712 96.6785 136.942 96.1776C138.173 95.6657 139.148 94.9579 139.866 94.054C140.585 93.1392 140.945 92.072 140.945 90.8523C140.945 89.7415 140.634 88.8376 140.013 88.1406C139.393 87.4437 138.576 86.8774 137.563 86.4418C136.55 86.0062 135.456 85.625 134.28 85.2983L130.163 84.1222C127.55 83.3707 125.481 82.2981 123.956 80.9041C122.431 79.5102 121.669 77.6861 121.669 75.4318C121.669 73.5587 122.175 71.9252 123.188 70.5312C124.212 69.1264 125.584 68.0374 127.305 67.2642C129.036 66.4801 130.969 66.0881 133.104 66.0881C135.26 66.0881 137.177 66.4747 138.854 67.2479C140.531 68.0102 141.859 69.0556 142.839 70.3842C143.83 71.7128 144.353 73.2211 144.408 74.9091H140.487ZM163.679 89.5455H168.122L171.847 94.446L172.827 95.7528L178.381 103.136H173.938L170.279 98.2358L169.364 96.9943L163.679 89.5455ZM179.753 83.2727C179.753 86.8011 179.116 89.8504 177.842 92.4205C176.568 94.9905 174.82 96.9725 172.598 98.3665C170.377 99.7604 167.839 100.457 164.986 100.457C162.133 100.457 159.595 99.7604 157.374 98.3665C155.152 96.9725 153.404 94.9905 152.13 92.4205C150.856 89.8504 150.219 86.8011 150.219 83.2727C150.219 79.7443 150.856 76.6951 152.13 74.125C153.404 71.5549 155.152 69.5729 157.374 68.179C159.595 66.785 162.133 66.0881 164.986 66.0881C167.839 66.0881 170.377 66.785 172.598 68.179C174.82 69.5729 176.568 71.5549 177.842 74.125C179.116 76.6951 179.753 79.7443 179.753 83.2727ZM175.833 83.2727C175.833 80.3759 175.348 77.9311 174.379 75.9382C173.42 73.9453 172.119 72.437 170.475 71.4134C168.841 70.3897 167.012 69.8778 164.986 69.8778C162.96 69.8778 161.125 70.3897 159.481 71.4134C157.847 72.437 156.546 73.9453 155.577 75.9382C154.619 77.9311 154.139 80.3759 154.139 83.2727C154.139 86.1695 154.619 88.6143 155.577 90.6072C156.546 92.6001 157.847 94.1084 159.481 95.1321C161.125 96.1558 162.96 96.6676 164.986 96.6676C167.012 96.6676 168.841 96.1558 170.475 95.1321C172.119 94.1084 173.42 92.6001 174.379 90.6072C175.348 88.6143 175.833 86.1695 175.833 83.2727ZM186.565 100V66.5455H190.616V96.4062H206.167V100H186.565Z" fill="black"/>
</svg>
