<svg width="260" height="171" viewBox="0 0 260 171" fill="none" xmlns="http://www.w3.org/2000/svg">
<rect width="260" height="171" fill="#F5F5F5"/>
<rect width="260" height="171" fill="#96D4D4"/>
<path d="M77.5581 66.5455V100H73.6376L55.4075 73.733H55.0808V100H51.0297V66.5455H54.9501L73.2456 92.8778H73.5723V66.5455H77.5581ZM95.3349 100.523C93.0697 100.523 91.0823 99.9837 89.3725 98.9055C87.6737 97.8274 86.3451 96.3191 85.3867 94.3807C84.4393 92.4422 83.9656 90.1771 83.9656 87.5852C83.9656 84.9716 84.4393 82.6901 85.3867 80.7408C86.3451 78.7914 87.6737 77.2777 89.3725 76.1996C91.0823 75.1214 93.0697 74.5824 95.3349 74.5824C97.6 74.5824 99.582 75.1214 101.281 76.1996C102.991 77.2777 104.319 78.7914 105.267 80.7408C106.225 82.6901 106.704 84.9716 106.704 87.5852C106.704 90.1771 106.225 92.4422 105.267 94.3807C104.319 96.3191 102.991 97.8274 101.281 98.9055C99.582 99.9837 97.6 100.523 95.3349 100.523ZM95.3349 97.0597C97.0555 97.0597 98.4712 96.6186 99.582 95.7365C100.693 94.8544 101.515 93.6946 102.049 92.2571C102.582 90.8196 102.849 89.2623 102.849 87.5852C102.849 85.9081 102.582 84.3454 102.049 82.897C101.515 81.4486 100.693 80.2779 99.582 79.3849C98.4712 78.4919 97.0555 78.0455 95.3349 78.0455C93.6142 78.0455 92.1985 78.4919 91.0877 79.3849C89.9769 80.2779 89.1547 81.4486 88.6211 82.897C88.0875 84.3454 87.8207 85.9081 87.8207 87.5852C87.8207 89.2623 88.0875 90.8196 88.6211 92.2571C89.1547 93.6946 89.9769 94.8544 91.0877 95.7365C92.1985 96.6186 93.6142 97.0597 95.3349 97.0597ZM122.063 100.523C119.972 100.523 118.127 99.9946 116.526 98.9382C114.925 97.871 113.673 96.3681 112.769 94.4297C111.865 92.4804 111.413 90.1771 111.413 87.5199C111.413 84.8845 111.865 82.5975 112.769 80.6591C113.673 78.7206 114.93 77.2232 116.542 76.1669C118.154 75.1106 120.016 74.5824 122.129 74.5824C123.762 74.5824 125.053 74.8546 126 75.3991C126.959 75.9328 127.688 76.5426 128.189 77.2287C128.701 77.9039 129.098 78.4593 129.382 78.8949H129.708V66.5455H133.563V100H129.839V96.1449H129.382C129.098 96.6023 128.695 97.1795 128.173 97.8764C127.65 98.5625 126.904 99.1778 125.935 99.7223C124.966 100.256 123.675 100.523 122.063 100.523ZM122.586 97.0597C124.133 97.0597 125.439 96.6567 126.507 95.8509C127.574 95.0341 128.385 93.907 128.941 92.4695C129.496 91.0211 129.774 89.3494 129.774 87.4545C129.774 85.5814 129.501 83.9425 128.957 82.5376C128.412 81.1219 127.606 80.022 126.539 79.2379C125.472 78.4429 124.154 78.0455 122.586 78.0455C120.953 78.0455 119.591 78.4647 118.502 79.3033C117.424 80.1309 116.613 81.258 116.068 82.6847C115.535 84.1004 115.268 85.6903 115.268 87.4545C115.268 89.2405 115.54 90.8632 116.085 92.3224C116.64 93.7708 117.457 94.9252 118.535 95.7855C119.624 96.6349 120.974 97.0597 122.586 97.0597ZM151.679 100.523C149.262 100.523 147.176 99.9891 145.423 98.9219C143.68 97.8438 142.335 96.3409 141.388 94.4134C140.451 92.4749 139.983 90.2206 139.983 87.6506C139.983 85.0805 140.451 82.8153 141.388 80.8551C142.335 78.884 143.653 77.3485 145.341 76.2486C147.04 75.1378 149.022 74.5824 151.287 74.5824C152.594 74.5824 153.884 74.8002 155.159 75.2358C156.433 75.6714 157.593 76.3793 158.638 77.3594C159.683 78.3286 160.517 79.6136 161.137 81.2145C161.758 82.8153 162.068 84.7865 162.068 87.1278V88.7614H142.727V85.429H158.148C158.148 84.0133 157.865 82.75 157.298 81.6392C156.743 80.5284 155.948 79.6518 154.914 79.0092C153.89 78.3667 152.681 78.0455 151.287 78.0455C149.752 78.0455 148.423 78.4266 147.301 79.1889C146.191 79.9403 145.336 80.9205 144.737 82.1293C144.138 83.3381 143.838 84.634 143.838 86.017V88.2386C143.838 90.1335 144.165 91.7398 144.818 93.0575C145.483 94.3643 146.403 95.3608 147.579 96.0469C148.755 96.7221 150.122 97.0597 151.679 97.0597C152.692 97.0597 153.607 96.9181 154.423 96.6349C155.251 96.3409 155.964 95.9053 156.563 95.3281C157.162 94.7401 157.625 94.0104 157.952 93.1392L161.676 94.1847C161.284 95.4479 160.625 96.5587 159.7 97.517C158.774 98.4645 157.631 99.205 156.269 99.7386C154.908 100.261 153.378 100.523 151.679 100.523ZM170.742 100.261C169.936 100.261 169.245 99.9728 168.668 99.3956C168.091 98.8184 167.802 98.1269 167.802 97.321C167.802 96.5152 168.091 95.8236 168.668 95.2464C169.245 94.6693 169.936 94.3807 170.742 94.3807C171.548 94.3807 172.24 94.6693 172.817 95.2464C173.394 95.8236 173.683 96.5152 173.683 97.321C173.683 97.8546 173.547 98.3447 173.274 98.7912C173.013 99.2377 172.659 99.5971 172.213 99.8693C171.777 100.131 171.287 100.261 170.742 100.261ZM180.601 74.9091H184.456V101.83C184.456 103.376 184.189 104.715 183.655 105.848C183.133 106.981 182.338 107.857 181.27 108.478C180.214 109.099 178.88 109.409 177.268 109.409C177.138 109.409 177.007 109.409 176.876 109.409C176.746 109.409 176.615 109.409 176.484 109.409V105.815C176.615 105.815 176.735 105.815 176.844 105.815C176.952 105.815 177.072 105.815 177.203 105.815C178.379 105.815 179.239 105.467 179.784 104.77C180.328 104.084 180.601 103.104 180.601 101.83V74.9091ZM182.496 70.7273C181.744 70.7273 181.096 70.4714 180.552 69.9595C180.018 69.4477 179.751 68.8324 179.751 68.1136C179.751 67.3949 180.018 66.7796 180.552 66.2678C181.096 65.7559 181.744 65.5 182.496 65.5C183.247 65.5 183.89 65.7559 184.423 66.2678C184.968 66.7796 185.24 67.3949 185.24 68.1136C185.24 68.8324 184.968 69.4477 184.423 69.9595C183.89 70.4714 183.247 70.7273 182.496 70.7273ZM209.289 80.5284L205.826 81.5085C205.609 80.9313 205.287 80.3705 204.863 79.826C204.449 79.2706 203.882 78.8132 203.164 78.4538C202.445 78.0945 201.525 77.9148 200.403 77.9148C198.868 77.9148 197.588 78.2687 196.564 78.9766C195.551 79.6735 195.045 80.5611 195.045 81.6392C195.045 82.5975 195.394 83.3544 196.091 83.9098C196.788 84.4652 197.877 84.928 199.358 85.2983L203.082 86.2131C205.325 86.7576 206.997 87.5907 208.097 88.7124C209.197 89.8232 209.747 91.2552 209.747 93.0085C209.747 94.446 209.333 95.7311 208.505 96.8636C207.689 97.9962 206.545 98.8892 205.075 99.5426C203.605 100.196 201.895 100.523 199.946 100.523C197.386 100.523 195.268 99.9673 193.591 98.8565C191.914 97.7457 190.852 96.1231 190.406 93.9886L194.065 93.0739C194.413 94.4242 195.072 95.437 196.042 96.1122C197.022 96.7874 198.301 97.125 199.88 97.125C201.677 97.125 203.104 96.7438 204.16 95.9815C205.227 95.2083 205.761 94.2827 205.761 93.2045C205.761 92.3333 205.456 91.6037 204.846 91.0156C204.236 90.4167 203.3 89.9702 202.037 89.6761L197.855 88.696C195.557 88.1515 193.869 87.3075 192.791 86.1641C191.724 85.0097 191.19 83.5668 191.19 81.8352C191.19 80.4195 191.587 79.1671 192.382 78.0781C193.188 76.9891 194.283 76.1342 195.666 75.5135C197.06 74.8928 198.639 74.5824 200.403 74.5824C202.886 74.5824 204.835 75.1269 206.251 76.2159C207.678 77.3049 208.69 78.7424 209.289 80.5284Z" fill="black"/>
</svg>
