git branch -M main
<svg width="260" height="171" viewBox="0 0 260 171" fill="none" xmlns="http://www.w3.org/2000/svg">
<rect width="260" height="171" fill="#F5F5F5"/>
<rect width="260" height="171" fill="#FFF4A3"/>
<path d="M82.0053 66.5455V100H78.0849L59.8548 73.733H59.5281V100H55.4769V66.5455H59.3974L77.6928 92.8778H78.0195V66.5455H82.0053ZM105.401 89.7415V74.9091H109.257V100H105.401V95.7528H105.14C104.552 97.027 103.637 98.1106 102.396 99.0036C101.154 99.8857 99.5861 100.327 97.6912 100.327C96.123 100.327 94.7291 99.9837 93.5094 99.2976C92.2897 98.6006 91.3314 97.5552 90.6344 96.1612C89.9374 94.7564 89.589 92.9867 89.589 90.8523V74.9091H93.4441V90.5909C93.4441 92.4205 93.9559 93.8797 94.9796 94.9688C96.0141 96.0578 97.3319 96.6023 98.9327 96.6023C99.891 96.6023 100.866 96.3572 101.857 95.8672C102.859 95.3771 103.697 94.6257 104.372 93.6129C105.058 92.6001 105.401 91.3097 105.401 89.7415ZM116.317 100V74.9091H120.042V78.8295H120.369C120.891 77.4901 121.735 76.45 122.901 75.7095C124.066 74.9581 125.465 74.5824 127.099 74.5824C128.754 74.5824 130.132 74.9581 131.232 75.7095C132.342 76.45 133.208 77.4901 133.829 78.8295H134.09C134.733 77.5336 135.696 76.5045 136.982 75.7422C138.267 74.969 139.808 74.5824 141.604 74.5824C143.848 74.5824 145.683 75.2848 147.109 76.6896C148.536 78.0836 149.249 80.2562 149.249 83.2074V100H145.394V83.2074C145.394 81.3561 144.888 80.0329 143.875 79.2379C142.862 78.4429 141.67 78.0455 140.298 78.0455C138.533 78.0455 137.167 78.5791 136.197 79.6463C135.228 80.7027 134.744 82.0421 134.744 83.6648V100H130.823V82.8153C130.823 81.3887 130.36 80.2398 129.435 79.3686C128.509 78.4865 127.317 78.0455 125.857 78.0455C124.855 78.0455 123.919 78.3123 123.048 78.8459C122.187 79.3795 121.49 80.12 120.957 81.0675C120.434 82.004 120.173 83.0876 120.173 84.3182V100H116.317ZM156.821 100V66.5455H168.125C170.749 66.5455 172.895 67.0192 174.561 67.9666C176.238 68.9032 177.479 70.1719 178.285 71.7727C179.091 73.3736 179.494 75.1596 179.494 77.1307C179.494 79.1018 179.091 80.8932 178.285 82.505C177.49 84.1167 176.26 85.4018 174.593 86.3601C172.927 87.3075 170.793 87.7812 168.19 87.7812H160.088V84.1875H168.059C169.856 84.1875 171.299 83.8771 172.388 83.2564C173.477 82.6357 174.267 81.7971 174.757 80.7408C175.258 79.6735 175.508 78.4702 175.508 77.1307C175.508 75.7912 175.258 74.5933 174.757 73.5369C174.267 72.4806 173.472 71.6529 172.372 71.054C171.272 70.4441 169.813 70.1392 167.994 70.1392H160.872V100H156.821ZM187.98 109.409C187.327 109.409 186.744 109.355 186.232 109.246C185.72 109.148 185.366 109.05 185.17 108.952L186.151 105.554C187.087 105.794 187.915 105.881 188.634 105.815C189.352 105.75 189.989 105.429 190.545 104.852C191.111 104.285 191.628 103.365 192.097 102.091L192.815 100.131L183.537 74.9091H187.719L194.645 94.9034H194.906L201.832 74.9091H206.014L195.364 103.659C194.884 104.955 194.291 106.028 193.583 106.877C192.875 107.737 192.053 108.375 191.116 108.788C190.191 109.202 189.145 109.409 187.98 109.409Z" fill="black"/>
</svg>
