<svg width="260" height="171" viewBox="0 0 260 171" fill="none" xmlns="http://www.w3.org/2000/svg">
<rect width="260" height="171" fill="#F5F5F5"/>
<rect width="260" height="171" fill="#F3ECEA"/>
<path d="M53.7757 105V71.5455H65.0797C67.7043 71.5455 69.8496 72.0192 71.5158 72.9666C73.1929 73.9032 74.4344 75.1719 75.2402 76.7727C76.0461 78.3736 76.449 80.1596 76.449 82.1307C76.449 84.1018 76.0461 85.8932 75.2402 87.505C74.4453 89.1167 73.2147 90.4018 71.5485 91.3601C69.8823 92.3075 67.7478 92.7812 65.1451 92.7812H57.0428V89.1875H65.0144C66.8113 89.1875 68.2542 88.8771 69.3432 88.2564C70.4322 87.6357 71.2218 86.7971 71.7118 85.7408C72.2128 84.6735 72.4632 83.4702 72.4632 82.1307C72.4632 80.7912 72.2128 79.5933 71.7118 78.5369C71.2218 77.4806 70.4268 76.6529 69.3269 76.054C68.227 75.4441 66.7677 75.1392 64.949 75.1392H57.8269V105H53.7757ZM89.8358 105.588C88.2458 105.588 86.8029 105.289 85.5069 104.69C84.211 104.08 83.1819 103.203 82.4196 102.06C81.6573 100.905 81.2761 99.5114 81.2761 97.8778C81.2761 96.4403 81.5592 95.2751 82.1255 94.3821C82.6918 93.4782 83.4487 92.7704 84.3961 92.2585C85.3436 91.7467 86.389 91.3655 87.5325 91.1151C88.6868 90.8537 89.8467 90.6468 91.0119 90.4943C92.5365 90.2983 93.7726 90.1513 94.72 90.0533C95.6783 89.9444 96.3753 89.7647 96.8109 89.5142C97.2574 89.2637 97.4806 88.8281 97.4806 88.2074V88.0767C97.4806 86.465 97.0396 85.2126 96.1575 84.3196C95.2863 83.4266 93.9631 82.9801 92.188 82.9801C90.3476 82.9801 88.9047 83.383 87.8592 84.1889C86.8137 84.9948 86.0787 85.8551 85.6539 86.7699L81.9949 85.4631C82.6483 83.9384 83.5195 82.7514 84.6085 81.902C85.7084 81.0417 86.9063 80.4427 88.2022 80.1051C89.5091 79.7566 90.7941 79.5824 92.0574 79.5824C92.8632 79.5824 93.7889 79.6804 94.8343 79.8764C95.8907 80.0616 96.9089 80.4482 97.889 81.0362C98.88 81.6243 99.7022 82.5118 100.356 83.6989C101.009 84.8859 101.336 86.4759 101.336 88.4688V105H97.4806V101.602H97.2846C97.0233 102.147 96.5877 102.729 95.9778 103.35C95.368 103.971 94.5566 104.499 93.5439 104.935C92.5311 105.37 91.295 105.588 89.8358 105.588ZM90.4238 102.125C91.9484 102.125 93.2335 101.826 94.2789 101.227C95.3353 100.628 96.1303 99.8544 96.6639 98.907C97.2084 97.9595 97.4806 96.9631 97.4806 95.9176V92.3892C97.3173 92.5852 96.9579 92.7649 96.4025 92.9283C95.858 93.0807 95.2264 93.2169 94.5076 93.3366C93.7998 93.4455 93.1083 93.5436 92.4331 93.6307C91.7688 93.7069 91.2297 93.7723 90.8159 93.8267C89.814 93.9574 88.8774 94.1697 88.0062 94.4638C87.1459 94.7469 86.4489 95.1771 85.9153 95.7543C85.3926 96.3205 85.1312 97.0937 85.1312 98.0739C85.1312 99.4134 85.6267 100.426 86.6177 101.112C87.6196 101.787 88.8883 102.125 90.4238 102.125ZM112.227 89.9062V105H108.372V79.9091H112.097V83.8295H112.423C113.011 82.5554 113.904 81.5317 115.102 80.7585C116.3 79.9744 117.847 79.5824 119.741 79.5824C121.44 79.5824 122.927 79.9309 124.201 80.6278C125.475 81.3139 126.466 82.3594 127.174 83.7642C127.882 85.1581 128.236 86.9223 128.236 89.0568V105H124.381V89.3182C124.381 87.3471 123.869 85.8116 122.845 84.7116C121.821 83.6009 120.417 83.0455 118.631 83.0455C117.4 83.0455 116.3 83.3123 115.331 83.8459C114.373 84.3795 113.616 85.1581 113.06 86.1818C112.505 87.2055 112.227 88.447 112.227 89.9062ZM144.755 105.523C142.664 105.523 140.818 104.995 139.217 103.938C137.616 102.871 136.364 101.368 135.46 99.4297C134.556 97.4804 134.104 95.1771 134.104 92.5199C134.104 89.8845 134.556 87.5975 135.46 85.6591C136.364 83.7206 137.622 82.2232 139.233 81.1669C140.845 80.1106 142.707 79.5824 144.82 79.5824C146.454 79.5824 147.744 79.8546 148.692 80.3991C149.65 80.9328 150.38 81.5426 150.881 82.2287C151.392 82.9039 151.79 83.4593 152.073 83.8949H152.4V71.5455H156.255V105H152.53V101.145H152.073C151.79 101.602 151.387 102.179 150.864 102.876C150.341 103.562 149.595 104.178 148.626 104.722C147.657 105.256 146.367 105.523 144.755 105.523ZM145.278 102.06C146.824 102.06 148.131 101.657 149.198 100.851C150.265 100.034 151.077 98.907 151.632 97.4695C152.187 96.0211 152.465 94.3494 152.465 92.4545C152.465 90.5814 152.193 88.9425 151.648 87.5376C151.104 86.1219 150.298 85.022 149.231 84.2379C148.163 83.4429 146.846 83.0455 145.278 83.0455C143.644 83.0455 142.283 83.4647 141.194 84.3033C140.116 85.1309 139.304 86.258 138.76 87.6847C138.226 89.1004 137.959 90.6903 137.959 92.4545C137.959 94.2405 138.232 95.8632 138.776 97.3224C139.331 98.7708 140.148 99.9252 141.226 100.786C142.315 101.635 143.666 102.06 145.278 102.06ZM171.234 105.588C169.644 105.588 168.201 105.289 166.905 104.69C165.609 104.08 164.58 103.203 163.818 102.06C163.056 100.905 162.675 99.5114 162.675 97.8778C162.675 96.4403 162.958 95.2751 163.524 94.3821C164.09 93.4782 164.847 92.7704 165.795 92.2585C166.742 91.7467 167.787 91.3655 168.931 91.1151C170.085 90.8537 171.245 90.6468 172.41 90.4943C173.935 90.2983 175.171 90.1513 176.118 90.0533C177.077 89.9444 177.774 89.7647 178.209 89.5142C178.656 89.2637 178.879 88.8281 178.879 88.2074V88.0767C178.879 86.465 178.438 85.2126 177.556 84.3196C176.685 83.4266 175.362 82.9801 173.586 82.9801C171.746 82.9801 170.303 83.383 169.258 84.1889C168.212 84.9948 167.477 85.8551 167.052 86.7699L163.393 85.4631C164.047 83.9384 164.918 82.7514 166.007 81.902C167.107 81.0417 168.305 80.4427 169.601 80.1051C170.907 79.7566 172.193 79.5824 173.456 79.5824C174.262 79.5824 175.187 79.6804 176.233 79.8764C177.289 80.0616 178.307 80.4482 179.287 81.0362C180.278 81.6243 181.101 82.5118 181.754 83.6989C182.407 84.8859 182.734 86.4759 182.734 88.4688V105H178.879V101.602H178.683C178.422 102.147 177.986 102.729 177.376 103.35C176.766 103.971 175.955 104.499 174.942 104.935C173.93 105.37 172.693 105.588 171.234 105.588ZM171.822 102.125C173.347 102.125 174.632 101.826 175.677 101.227C176.734 100.628 177.529 99.8544 178.062 98.907C178.607 97.9595 178.879 96.9631 178.879 95.9176V92.3892C178.716 92.5852 178.356 92.7649 177.801 92.9283C177.256 93.0807 176.625 93.2169 175.906 93.3366C175.198 93.4455 174.507 93.5436 173.831 93.6307C173.167 93.7069 172.628 93.7723 172.214 93.8267C171.212 93.9574 170.276 94.1697 169.405 94.4638C168.544 94.7469 167.847 95.1771 167.314 95.7543C166.791 96.3205 166.53 97.0937 166.53 98.0739C166.53 99.4134 167.025 100.426 168.016 101.112C169.018 101.787 170.287 102.125 171.822 102.125ZM207.543 85.5284L204.08 86.5085C203.862 85.9313 203.541 85.3705 203.116 84.826C202.703 84.2706 202.136 83.8132 201.418 83.4538C200.699 83.0945 199.779 82.9148 198.657 82.9148C197.121 82.9148 195.842 83.2687 194.818 83.9766C193.805 84.6735 193.299 85.5611 193.299 86.6392C193.299 87.5975 193.647 88.3544 194.344 88.9098C195.041 89.4652 196.13 89.928 197.612 90.2983L201.336 91.2131C203.579 91.7576 205.251 92.5907 206.351 93.7124C207.451 94.8232 208.001 96.2552 208.001 98.0085C208.001 99.446 207.587 100.731 206.759 101.864C205.942 102.996 204.799 103.889 203.329 104.543C201.859 105.196 200.149 105.523 198.2 105.523C195.64 105.523 193.522 104.967 191.845 103.857C190.168 102.746 189.106 101.123 188.66 98.9886L192.319 98.0739C192.667 99.4242 193.326 100.437 194.295 101.112C195.276 101.787 196.555 102.125 198.134 102.125C199.931 102.125 201.358 101.744 202.414 100.982C203.481 100.208 204.015 99.2827 204.015 98.2045C204.015 97.3333 203.71 96.6037 203.1 96.0156C202.49 95.4167 201.554 94.9702 200.29 94.6761L196.109 93.696C193.811 93.1515 192.123 92.3075 191.045 91.1641C189.978 90.0097 189.444 88.5668 189.444 86.8352C189.444 85.4195 189.841 84.1671 190.636 83.0781C191.442 81.9891 192.537 81.1342 193.92 80.5135C195.314 79.8928 196.893 79.5824 198.657 79.5824C201.14 79.5824 203.089 80.1269 204.505 81.2159C205.932 82.3049 206.944 83.7424 207.543 85.5284Z" fill="black"/>
</svg>
