<svg width="260" height="171" viewBox="0 0 260 171" fill="none" xmlns="http://www.w3.org/2000/svg">
<rect width="260" height="171" fill="#F5F5F5"/>
<rect width="260" height="171" fill="#FFC0C7"/>
<path d="M87.3265 100V66.5455H98.6305C101.255 66.5455 103.4 67.0192 105.067 67.9666C106.744 68.9032 107.985 70.1719 108.791 71.7727C109.597 73.3736 110 75.1596 110 77.1307C110 79.1018 109.597 80.8932 108.791 82.505C107.996 84.1167 106.765 85.4018 105.099 86.3601C103.433 87.3075 101.299 87.7812 98.6958 87.7812H90.5936V84.1875H98.5652C100.362 84.1875 101.805 83.8771 102.894 83.2564C103.983 82.6357 104.773 81.7971 105.263 80.7408C105.764 79.6735 106.014 78.4702 106.014 77.1307C106.014 75.7912 105.764 74.5933 105.263 73.5369C104.773 72.4806 103.978 71.6529 102.878 71.054C101.778 70.4441 100.318 70.1392 98.4998 70.1392H91.3777V100H87.3265ZM116.526 100V66.5455H120.577V81.4432H138.415V66.5455H142.466V100H138.415V85.0369H120.577V100H116.526ZM150.577 100V66.5455H161.881C164.505 66.5455 166.65 67.0192 168.317 67.9666C169.994 68.9032 171.235 70.1719 172.041 71.7727C172.847 73.3736 173.25 75.1596 173.25 77.1307C173.25 79.1018 172.847 80.8932 172.041 82.505C171.246 84.1167 170.015 85.4018 168.349 86.3601C166.683 87.3075 164.549 87.7812 161.946 87.7812H153.844V84.1875H161.815C163.612 84.1875 165.055 83.8771 166.144 83.2564C167.233 82.6357 168.023 81.7971 168.513 80.7408C169.014 79.6735 169.264 78.4702 169.264 77.1307C169.264 75.7912 169.014 74.5933 168.513 73.5369C168.023 72.4806 167.228 71.6529 166.128 71.054C165.028 70.4441 163.568 70.1392 161.75 70.1392H154.628V100H150.577Z" fill="black"/>
</svg>
