<svg width="260" height="171" viewBox="0 0 260 171" fill="none" xmlns="http://www.w3.org/2000/svg">
<rect width="260" height="171" fill="#F5F5F5"/>
<rect width="260" height="171" fill="#F3ECEA"/>
<path d="M57.2572 105V71.5455H68.5612C71.1857 71.5455 73.3311 72.0192 74.9972 72.9666C76.6743 73.9032 77.9158 75.1719 78.7217 76.7727C79.5276 78.3736 79.9305 80.1596 79.9305 82.1307C79.9305 84.1018 79.5276 85.8932 78.7217 87.505C77.9267 89.1167 76.6961 90.4018 75.0299 91.3601C73.3637 92.3075 71.2293 92.7812 68.6265 92.7812H60.5242V89.1875H68.4958C70.2927 89.1875 71.7356 88.8771 72.8247 88.2564C73.9137 87.6357 74.7032 86.7971 75.1933 85.7408C75.6942 84.6735 75.9447 83.4702 75.9447 82.1307C75.9447 80.7912 75.6942 79.5933 75.1933 78.5369C74.7032 77.4806 73.9082 76.6529 72.8083 76.054C71.7084 75.4441 70.2491 75.1392 68.4305 75.1392H61.3083V105H57.2572ZM88.4166 114.409C87.7632 114.409 87.1806 114.355 86.6688 114.246C86.1569 114.148 85.803 114.05 85.607 113.952L86.5871 110.554C87.5236 110.794 88.3513 110.881 89.07 110.815C89.7888 110.75 90.4259 110.429 90.9813 109.852C91.5476 109.285 92.0648 108.365 92.5331 107.091L93.2519 105.131L83.9735 79.9091H88.1553L95.0814 99.9034H95.3428L102.269 79.9091H106.451L95.8002 108.659C95.321 109.955 94.7275 111.028 94.0196 111.877C93.3118 112.737 92.4896 113.375 91.553 113.788C90.6273 114.202 89.5819 114.409 88.4166 114.409ZM122.451 79.9091V83.1761H109.448V79.9091H122.451ZM113.238 73.8977H117.093V97.8125C117.093 98.9015 117.251 99.7183 117.567 100.263C117.894 100.796 118.307 101.156 118.808 101.341C119.32 101.515 119.859 101.602 120.426 101.602C120.85 101.602 121.199 101.58 121.471 101.537C121.743 101.482 121.961 101.439 122.124 101.406L122.908 104.869C122.647 104.967 122.282 105.065 121.814 105.163C121.346 105.272 120.752 105.327 120.033 105.327C118.944 105.327 117.877 105.093 116.832 104.624C115.797 104.156 114.937 103.443 114.251 102.484C113.576 101.526 113.238 100.317 113.238 98.858V73.8977ZM132.644 89.9062V105H128.789V71.5455H132.644V83.8295H132.971C133.559 82.5336 134.441 81.5045 135.617 80.7422C136.804 79.969 138.383 79.5824 140.354 79.5824C142.064 79.5824 143.562 79.9254 144.847 80.6115C146.132 81.2867 147.128 82.3267 147.836 83.7315C148.555 85.1255 148.914 86.9006 148.914 89.0568V105H145.059V89.3182C145.059 87.3253 144.542 85.7843 143.507 84.6953C142.484 83.5954 141.062 83.0455 139.244 83.0455C137.98 83.0455 136.848 83.3123 135.846 83.8459C134.855 84.3795 134.071 85.1581 133.494 86.1818C132.927 87.2055 132.644 88.447 132.644 89.9062ZM166.16 105.523C163.895 105.523 161.907 104.984 160.198 103.906C158.499 102.827 157.17 101.319 156.212 99.3807C155.264 97.4422 154.791 95.1771 154.791 92.5852C154.791 89.9716 155.264 87.6901 156.212 85.7408C157.17 83.7914 158.499 82.2777 160.198 81.1996C161.907 80.1214 163.895 79.5824 166.16 79.5824C168.425 79.5824 170.407 80.1214 172.106 81.1996C173.816 82.2777 175.144 83.7914 176.092 85.7408C177.05 87.6901 177.529 89.9716 177.529 92.5852C177.529 95.1771 177.05 97.4422 176.092 99.3807C175.144 101.319 173.816 102.827 172.106 103.906C170.407 104.984 168.425 105.523 166.16 105.523ZM166.16 102.06C167.881 102.06 169.296 101.619 170.407 100.737C171.518 99.8544 172.34 98.6946 172.874 97.2571C173.407 95.8196 173.674 94.2623 173.674 92.5852C173.674 90.9081 173.407 89.3454 172.874 87.897C172.34 86.4486 171.518 85.2779 170.407 84.3849C169.296 83.4919 167.881 83.0455 166.16 83.0455C164.439 83.0455 163.024 83.4919 161.913 84.3849C160.802 85.2779 159.98 86.4486 159.446 87.897C158.913 89.3454 158.646 90.9081 158.646 92.5852C158.646 94.2623 158.913 95.8196 159.446 97.2571C159.98 98.6946 160.802 99.8544 161.913 100.737C163.024 101.619 164.439 102.06 166.16 102.06ZM187.269 89.9062V105H183.414V79.9091H187.139V83.8295H187.465C188.053 82.5554 188.946 81.5317 190.144 80.7585C191.342 79.9744 192.889 79.5824 194.783 79.5824C196.482 79.5824 197.969 79.9309 199.243 80.6278C200.517 81.3139 201.508 82.3594 202.216 83.7642C202.924 85.1581 203.278 86.9223 203.278 89.0568V105H199.423V89.3182C199.423 87.3471 198.911 85.8116 197.887 84.7116C196.863 83.6009 195.459 83.0455 193.673 83.0455C192.442 83.0455 191.342 83.3123 190.373 83.8459C189.415 84.3795 188.658 85.1581 188.102 86.1818C187.547 87.2055 187.269 88.447 187.269 89.9062Z" fill="black"/>
</svg>
