<svg width="260" height="171" viewBox="0 0 260 171" fill="none" xmlns="http://www.w3.org/2000/svg">
<rect width="260" height="171" fill="#F5F5F5"/>
<rect width="260" height="171" fill="#F3ECEA"/>
<path d="M128.051 105V71.5455H139.355C141.969 71.5455 144.114 71.9919 145.791 72.8849C147.468 73.767 148.71 74.9813 149.516 76.5277C150.321 78.0741 150.724 79.8329 150.724 81.804C150.724 83.7751 150.321 85.523 149.516 87.0476C148.71 88.5722 147.474 89.7701 145.808 90.6413C144.141 91.5017 142.012 91.9318 139.42 91.9318H130.273V88.2727H139.29C141.076 88.2727 142.513 88.0114 143.602 87.4886C144.702 86.9659 145.497 86.2254 145.987 85.267C146.488 84.2978 146.739 83.1435 146.739 81.804C146.739 80.4645 146.488 79.2938 145.987 78.2919C145.486 77.29 144.686 76.5168 143.586 75.9723C142.486 75.4169 141.032 75.1392 139.224 75.1392H132.102V105H128.051ZM143.798 89.9716L152.031 105H147.327L139.224 89.9716H143.798Z" fill="black"/>
</svg>
