<svg width="260" height="171" viewBox="0 0 260 171" fill="none" xmlns="http://www.w3.org/2000/svg">
<rect width="260" height="171" fill="#F5F5F5"/>
<rect width="260" height="171" fill="#FFF4A3"/>
<path d="M22.0959 97V70.0909H31.1883C33.2905 70.0909 35.0161 70.45 36.3651 71.1683C37.7141 71.8778 38.7126 72.8545 39.3608 74.0984C40.009 75.3422 40.3331 76.7569 40.3331 78.3423C40.3331 79.9278 40.009 81.3337 39.3608 82.56C38.7126 83.7863 37.7184 84.7499 36.3782 85.4506C35.038 86.1426 33.3256 86.4886 31.2408 86.4886H23.8829V83.5455H31.1357C32.5723 83.5455 33.7285 83.3352 34.6044 82.9148C35.4892 82.4943 36.1286 81.8987 36.5228 81.1278C36.9257 80.3482 37.1272 79.4197 37.1272 78.3423C37.1272 77.2649 36.9257 76.3233 36.5228 75.5174C36.1198 74.7115 35.476 74.0896 34.5913 73.6516C33.7066 73.2049 32.5372 72.9815 31.0831 72.9815H25.3544V97H22.0959ZM34.7621 84.9119L41.3843 97H37.6002L31.0831 84.9119H34.7621ZM51.2814 97.473C50.0025 97.473 48.8419 97.2321 47.7995 96.7504C46.7571 96.2598 45.9293 95.5547 45.3162 94.6349C44.703 93.7064 44.3964 92.5852 44.3964 91.2713C44.3964 90.1151 44.6242 89.1778 45.0797 88.4595C45.5352 87.7325 46.144 87.1631 46.906 86.7514C47.6681 86.3397 48.509 86.0331 49.4288 85.8317C50.3573 85.6214 51.2901 85.455 52.2274 85.3324C53.4537 85.1747 54.4479 85.0565 55.21 84.9776C55.9808 84.89 56.5414 84.7455 56.8918 84.544C57.251 84.3426 57.4305 83.9922 57.4305 83.4929V83.3878C57.4305 82.0914 57.0758 81.084 56.3663 80.3658C55.6655 79.6475 54.6012 79.2884 53.1734 79.2884C51.6931 79.2884 50.5324 79.6125 49.6915 80.2607C48.8506 80.9089 48.2594 81.6009 47.9177 82.3366L44.9746 81.2855C45.5001 80.0592 46.2009 79.1044 47.0768 78.4212C47.9615 77.7292 48.9251 77.2474 49.9675 76.9759C51.0186 76.6955 52.0522 76.5554 53.0683 76.5554C53.7165 76.5554 54.4611 76.6342 55.302 76.7919C56.1516 76.9408 56.9707 77.2518 57.759 77.7248C58.5561 78.1978 59.2175 78.9117 59.743 79.8665C60.2686 80.8213 60.5314 82.1001 60.5314 83.7031V97H57.4305V94.267H57.2729C57.0626 94.705 56.7123 95.1737 56.2217 95.6729C55.7312 96.1722 55.0786 96.5971 54.264 96.9474C53.4494 97.2978 52.4552 97.473 51.2814 97.473ZM51.7544 94.6875C52.9807 94.6875 54.0143 94.4466 54.8552 93.9648C55.7049 93.4831 56.3444 92.8612 56.7736 92.0991C57.2115 91.337 57.4305 90.5355 57.4305 89.6946V86.8565C57.2991 87.0142 57.0101 87.1587 56.5633 87.2901C56.1254 87.4128 55.6173 87.5223 55.0392 87.6186C54.4698 87.7062 53.9136 87.785 53.3705 87.8551C52.8362 87.9164 52.4026 87.969 52.0697 88.0128C51.2639 88.1179 50.5106 88.2887 49.8098 88.5252C49.1178 88.753 48.5572 89.099 48.128 89.5632C47.7075 90.0187 47.4973 90.6406 47.4973 91.429C47.4973 92.5064 47.8958 93.321 48.693 93.8729C49.4988 94.416 50.5193 94.6875 51.7544 94.6875ZM80.4866 81.3381L77.701 82.1264C77.5258 81.6622 77.2674 81.2111 76.9258 80.7731C76.593 80.3263 76.1375 79.9585 75.5593 79.6694C74.9812 79.3803 74.241 79.2358 73.3388 79.2358C72.1037 79.2358 71.0745 79.5205 70.2511 80.0898C69.4365 80.6504 69.0292 81.3643 69.0292 82.2315C69.0292 83.0024 69.3095 83.6111 69.8701 84.0579C70.4307 84.5046 71.3066 84.8769 72.4979 85.1747L75.4937 85.9105C77.2981 86.3485 78.6427 87.0186 79.5274 87.9208C80.4121 88.8143 80.8544 89.9661 80.8544 91.3764C80.8544 92.5327 80.5216 93.5663 79.8559 94.4773C79.1989 95.3883 78.2792 96.1065 77.0966 96.6321C75.9141 97.1577 74.5389 97.4205 72.9709 97.4205C70.9124 97.4205 69.2087 96.9737 67.8598 96.0803C66.5108 95.1868 65.6568 93.8816 65.2976 92.1648L68.2408 91.429C68.5211 92.5152 69.0511 93.3298 69.8307 93.8729C70.619 94.416 71.6482 94.6875 72.9184 94.6875C74.3637 94.6875 75.5112 94.3809 76.3608 93.7678C77.2193 93.1458 77.6485 92.4013 77.6485 91.5341C77.6485 90.8333 77.4032 90.2464 76.9127 89.7734C76.4222 89.2917 75.6688 88.9325 74.6527 88.696L71.2891 87.9077C69.4409 87.4697 68.0831 86.7908 67.216 85.8711C66.3575 84.9426 65.9283 83.782 65.9283 82.3892C65.9283 81.2505 66.248 80.2431 66.8875 79.3672C67.5357 78.4912 68.416 77.8036 69.5285 77.3043C70.6497 76.805 71.9198 76.5554 73.3388 76.5554C75.336 76.5554 76.9039 76.9934 78.0427 77.8693C79.1901 78.7453 80.0048 79.9015 80.4866 81.3381ZM85.5222 104.568V76.8182H88.5179V80.0241H88.8858C89.1135 79.6738 89.4289 79.227 89.8318 78.6839C90.2435 78.1321 90.8304 77.6416 91.5925 77.2124C92.3633 76.7744 93.4057 76.5554 94.7196 76.5554C96.4189 76.5554 97.9168 76.9802 99.2132 77.8299C100.51 78.6796 101.521 79.884 102.248 81.4432C102.975 83.0024 103.339 84.8419 103.339 86.9616C103.339 89.099 102.975 90.9516 102.248 92.5195C101.521 94.0787 100.514 95.2875 99.2263 96.146C97.9387 96.9956 96.454 97.4205 94.7722 97.4205C93.4757 97.4205 92.4378 97.2058 91.6582 96.7766C90.8786 96.3387 90.2785 95.8437 89.8581 95.2919C89.4376 94.7313 89.1135 94.267 88.8858 93.8991H88.623V104.568H85.5222ZM88.5704 86.9091C88.5704 88.4332 88.7938 89.7778 89.2405 90.9428C89.6873 92.0991 90.3399 93.0057 91.1983 93.6626C92.0567 94.3108 93.1079 94.6349 94.3517 94.6349C95.6481 94.6349 96.7299 94.2933 97.5971 93.6101C98.473 92.9181 99.13 91.9896 99.568 90.8246C100.015 89.6508 100.238 88.3456 100.238 86.9091C100.238 85.4901 100.019 84.2112 99.5811 83.0724C99.1519 81.925 98.4993 81.0183 97.6234 80.3526C96.7562 79.6781 95.6656 79.3409 94.3517 79.3409C93.0903 79.3409 92.0304 79.6606 91.172 80.3001C90.3136 80.9308 89.6654 81.8155 89.2274 82.9542C88.7894 84.0842 88.5704 85.4025 88.5704 86.9091ZM108.489 97V70.0909H111.59V80.0241H111.853C112.081 79.6738 112.396 79.227 112.799 78.6839C113.211 78.1321 113.798 77.6416 114.56 77.2124C115.331 76.7744 116.373 76.5554 117.687 76.5554C119.386 76.5554 120.884 76.9802 122.181 77.8299C123.477 78.6796 124.489 79.884 125.216 81.4432C125.943 83.0024 126.306 84.8419 126.306 86.9616C126.306 89.099 125.943 90.9516 125.216 92.5195C124.489 94.0787 123.481 95.2875 122.194 96.146C120.906 96.9956 119.421 97.4205 117.739 97.4205C116.443 97.4205 115.405 97.2058 114.625 96.7766C113.846 96.3387 113.246 95.8437 112.825 95.2919C112.405 94.7313 112.081 94.267 111.853 93.8991H111.485V97H108.489ZM111.538 86.9091C111.538 88.4332 111.761 89.7778 112.208 90.9428C112.655 92.0991 113.307 93.0057 114.166 93.6626C115.024 94.3108 116.075 94.6349 117.319 94.6349C118.615 94.6349 119.697 94.2933 120.564 93.6101C121.44 92.9181 122.097 91.9896 122.535 90.8246C122.982 89.6508 123.205 88.3456 123.205 86.9091C123.205 85.4901 122.986 84.2112 122.548 83.0724C122.119 81.925 121.467 81.0183 120.591 80.3526C119.723 79.6781 118.633 79.3409 117.319 79.3409C116.058 79.3409 114.998 79.6606 114.139 80.3001C113.281 80.9308 112.633 81.8155 112.195 82.9542C111.757 84.0842 111.538 85.4025 111.538 86.9091ZM139.511 97.4205C137.567 97.4205 135.889 96.9912 134.479 96.1328C133.077 95.2656 131.996 94.0568 131.233 92.5064C130.48 90.9472 130.103 89.134 130.103 87.0668C130.103 84.9995 130.48 83.1776 131.233 81.6009C131.996 80.0154 133.055 78.7803 134.413 77.8956C135.78 77.0021 137.374 76.5554 139.196 76.5554C140.247 76.5554 141.285 76.7306 142.31 77.081C143.335 77.4313 144.268 78.0007 145.108 78.7891C145.949 79.5687 146.619 80.6023 147.119 81.8899C147.618 83.1776 147.868 84.763 147.868 86.6463V87.9602H132.311V85.2798H144.714C144.714 84.1411 144.487 83.125 144.031 82.2315C143.584 81.3381 142.945 80.6329 142.113 80.1161C141.289 79.5993 140.317 79.3409 139.196 79.3409C137.961 79.3409 136.892 79.6475 135.99 80.2607C135.096 80.8651 134.409 81.6534 133.927 82.6257C133.445 83.598 133.204 84.6404 133.204 85.7528V87.5398C133.204 89.0639 133.467 90.3559 133.993 91.4158C134.527 92.467 135.267 93.2685 136.213 93.8203C137.159 94.3634 138.259 94.6349 139.511 94.6349C140.326 94.6349 141.062 94.5211 141.719 94.2933C142.384 94.0568 142.958 93.7064 143.44 93.2422C143.922 92.7692 144.294 92.1823 144.557 91.4815L147.552 92.3224C147.237 93.3385 146.707 94.232 145.962 95.0028C145.218 95.7649 144.298 96.3606 143.203 96.7898C142.108 97.2102 140.878 97.4205 139.511 97.4205ZM152.585 97V76.8182H155.58V79.8665H155.791C156.159 78.8679 156.824 78.0576 157.788 77.4357C158.751 76.8138 159.837 76.5028 161.046 76.5028C161.274 76.5028 161.559 76.5072 161.9 76.516C162.242 76.5247 162.5 76.5379 162.676 76.5554V79.7088C162.57 79.6825 162.33 79.6431 161.953 79.5906C161.585 79.5292 161.195 79.4986 160.784 79.4986C159.802 79.4986 158.927 79.7044 158.156 80.1161C157.394 80.5191 156.789 81.0797 156.342 81.7979C155.904 82.5075 155.686 83.3177 155.686 84.2287V97H152.585ZM166.351 97V76.8182H169.347V79.8665H169.557C169.925 78.8679 170.591 78.0576 171.554 77.4357C172.518 76.8138 173.604 76.5028 174.813 76.5028C175.041 76.5028 175.325 76.5072 175.667 76.516C176.009 76.5247 176.267 76.5379 176.442 76.5554V79.7088C176.337 79.6825 176.096 79.6431 175.72 79.5906C175.352 79.5292 174.962 79.4986 174.55 79.4986C173.569 79.4986 172.693 79.7044 171.922 80.1161C171.16 80.5191 170.556 81.0797 170.109 81.7979C169.671 82.5075 169.452 83.3177 169.452 84.2287V97H166.351ZM182.729 104.568C182.204 104.568 181.735 104.524 181.323 104.437C180.912 104.358 180.627 104.279 180.469 104.2L181.258 101.467C182.011 101.66 182.677 101.73 183.255 101.678C183.833 101.625 184.345 101.367 184.792 100.902C185.248 100.447 185.664 99.7067 186.04 98.6818L186.618 97.1051L179.155 76.8182H182.519L188.09 92.9006H188.3L193.871 76.8182H197.235L188.668 99.9432C188.283 100.986 187.805 101.848 187.236 102.532C186.667 103.224 186.005 103.736 185.252 104.069C184.507 104.402 183.667 104.568 182.729 104.568ZM212.155 97V70.0909H221.247C223.358 70.0909 225.083 70.4719 226.424 71.234C227.773 71.9873 228.771 73.0078 229.419 74.2955C230.068 75.5831 230.392 77.0196 230.392 78.6051C230.392 80.1906 230.068 81.6315 229.419 82.9279C228.78 84.2243 227.79 85.2579 226.45 86.0288C225.11 86.7908 223.393 87.1719 221.299 87.1719H214.782V84.2812H221.194C222.64 84.2812 223.8 84.0316 224.676 83.5323C225.552 83.033 226.187 82.3585 226.581 81.5089C226.984 80.6504 227.186 79.6825 227.186 78.6051C227.186 77.5277 226.984 76.5642 226.581 75.7145C226.187 74.8648 225.548 74.1991 224.663 73.7173C223.778 73.2268 222.605 72.9815 221.142 72.9815H215.413V97H212.155ZM235.22 97V76.8182H238.321V97H235.22ZM236.797 73.4545C236.193 73.4545 235.672 73.2487 235.234 72.837C234.804 72.4253 234.59 71.9304 234.59 71.3523C234.59 70.7741 234.804 70.2792 235.234 69.8675C235.672 69.4558 236.193 69.25 236.797 69.25C237.402 69.25 237.918 69.4558 238.348 69.8675C238.785 70.2792 239.004 70.7741 239.004 71.3523C239.004 71.9304 238.785 72.4253 238.348 72.837C237.918 73.2487 237.402 73.4545 236.797 73.4545Z" fill="black"/>
</svg>
