<svg width="260" height="171" viewBox="0 0 260 171" fill="none" xmlns="http://www.w3.org/2000/svg">
<rect width="260" height="171" fill="#F5F5F5"/>
<rect width="260" height="171" fill="#FFC0C7"/>
<path d="M71.4242 100V66.5455H82.7282C85.3418 66.5455 87.4872 66.9919 89.1642 67.8849C90.8413 68.767 92.0828 69.9813 92.8887 71.5277C93.6945 73.0741 94.0975 74.8329 94.0975 76.804C94.0975 78.7751 93.6945 80.523 92.8887 82.0476C92.0828 83.5722 90.8468 84.7701 89.1806 85.6413C87.5144 86.5017 85.3854 86.9318 82.7935 86.9318H73.6458V83.2727H82.6628C84.4488 83.2727 85.8863 83.0114 86.9753 82.4886C88.0752 81.9659 88.8702 81.2254 89.3603 80.267C89.8612 79.2978 90.1117 78.1435 90.1117 76.804C90.1117 75.4645 89.8612 74.2938 89.3603 73.2919C88.8593 72.29 88.0589 71.5168 86.959 70.9723C85.8591 70.4169 84.4052 70.1392 82.5975 70.1392H75.4753V100H71.4242ZM87.1713 84.9716L95.4043 100H90.6998L82.5975 84.9716H87.1713ZM110.576 100.523C108.158 100.523 106.073 99.9891 104.319 98.9219C102.577 97.8438 101.232 96.3409 100.284 94.4134C99.3479 92.4749 98.8796 90.2206 98.8796 87.6506C98.8796 85.0805 99.3479 82.8153 100.284 80.8551C101.232 78.884 102.55 77.3485 104.238 76.2486C105.936 75.1378 107.918 74.5824 110.184 74.5824C111.49 74.5824 112.781 74.8002 114.055 75.2358C115.329 75.6714 116.489 76.3793 117.534 77.3594C118.58 78.3286 119.413 79.6136 120.034 81.2145C120.654 82.8153 120.965 84.7865 120.965 87.1278V88.7614H101.624V85.429H117.044C117.044 84.0133 116.761 82.75 116.195 81.6392C115.64 80.5284 114.845 79.6518 113.81 79.0092C112.786 78.3667 111.578 78.0455 110.184 78.0455C108.648 78.0455 107.319 78.4266 106.198 79.1889C105.087 79.9403 104.232 80.9205 103.633 82.1293C103.034 83.3381 102.735 84.634 102.735 86.017V88.2386C102.735 90.1335 103.061 91.7398 103.715 93.0575C104.379 94.3643 105.299 95.3608 106.475 96.0469C107.652 96.7221 109.018 97.0597 110.576 97.0597C111.588 97.0597 112.503 96.9181 113.32 96.6349C114.148 96.3409 114.861 95.9053 115.46 95.3281C116.059 94.7401 116.522 94.0104 116.848 93.1392L120.573 94.1847C120.181 95.4479 119.522 96.5587 118.596 97.517C117.671 98.4645 116.527 99.205 115.166 99.7386C113.805 100.261 112.275 100.523 110.576 100.523ZM134.213 100.588C132.623 100.588 131.18 100.289 129.884 99.6896C128.588 99.0798 127.559 98.2031 126.797 97.0597C126.034 95.9053 125.653 94.5114 125.653 92.8778C125.653 91.4403 125.936 90.2751 126.502 89.3821C127.069 88.4782 127.826 87.7704 128.773 87.2585C129.721 86.7467 130.766 86.3655 131.909 86.1151C133.064 85.8537 134.224 85.6468 135.389 85.4943C136.913 85.2983 138.15 85.1513 139.097 85.0533C140.055 84.9444 140.752 84.7647 141.188 84.5142C141.634 84.2637 141.858 83.8281 141.858 83.2074V83.0767C141.858 81.465 141.417 80.2126 140.534 79.3196C139.663 78.4266 138.34 77.9801 136.565 77.9801C134.725 77.9801 133.282 78.383 132.236 79.1889C131.191 79.9948 130.456 80.8551 130.031 81.7699L126.372 80.4631C127.025 78.9384 127.896 77.7514 128.985 76.902C130.085 76.0417 131.283 75.4427 132.579 75.1051C133.886 74.7566 135.171 74.5824 136.434 74.5824C137.24 74.5824 138.166 74.6804 139.211 74.8764C140.268 75.0616 141.286 75.4482 142.266 76.0362C143.257 76.6243 144.079 77.5118 144.733 78.6989C145.386 79.8859 145.713 81.4759 145.713 83.4688V100H141.858V96.6023H141.662C141.4 97.1468 140.965 97.7294 140.355 98.3501C139.745 98.9709 138.934 99.4991 137.921 99.9347C136.908 100.37 135.672 100.588 134.213 100.588ZM134.801 97.125C136.325 97.125 137.61 96.8255 138.656 96.2266C139.712 95.6276 140.507 94.8544 141.041 93.907C141.585 92.9595 141.858 91.9631 141.858 90.9176V87.3892C141.694 87.5852 141.335 87.7649 140.779 87.9283C140.235 88.0807 139.603 88.2169 138.885 88.3366C138.177 88.4455 137.485 88.5436 136.81 88.6307C136.146 88.7069 135.607 88.7723 135.193 88.8267C134.191 88.9574 133.254 89.1697 132.383 89.4638C131.523 89.7469 130.826 90.1771 130.292 90.7543C129.77 91.3205 129.508 92.0937 129.508 93.0739C129.508 94.4134 130.004 95.4261 130.995 96.1122C131.997 96.7874 133.265 97.125 134.801 97.125ZM162.942 100.523C160.59 100.523 158.564 99.9673 156.866 98.8565C155.167 97.7457 153.86 96.2157 152.945 94.2663C152.03 92.317 151.573 90.09 151.573 87.5852C151.573 85.0369 152.041 82.7881 152.978 80.8388C153.925 78.8786 155.243 77.3485 156.931 76.2486C158.63 75.1378 160.612 74.5824 162.877 74.5824C164.641 74.5824 166.231 74.9091 167.647 75.5625C169.063 76.2159 170.222 77.1307 171.126 78.3068C172.03 79.483 172.591 80.8551 172.809 82.4233H168.954C168.66 81.2798 168.006 80.267 166.993 79.3849C165.992 78.4919 164.641 78.0455 162.942 78.0455C161.439 78.0455 160.122 78.4375 158.989 79.2216C157.867 79.9948 156.991 81.0893 156.359 82.505C155.738 83.9098 155.428 85.5597 155.428 87.4545C155.428 89.393 155.733 91.081 156.343 92.5185C156.964 93.956 157.835 95.0722 158.956 95.8672C160.089 96.6622 161.418 97.0597 162.942 97.0597C163.944 97.0597 164.854 96.8854 165.67 96.5369C166.487 96.1884 167.179 95.6875 167.745 95.0341C168.311 94.3807 168.714 93.5966 168.954 92.6818H172.809C172.591 94.1629 172.052 95.4969 171.192 96.6839C170.342 97.8601 169.215 98.7966 167.81 99.4936C166.416 100.18 164.794 100.523 162.942 100.523ZM189.356 74.9091V78.1761H176.354V74.9091H189.356ZM180.143 68.8977H183.998V92.8125C183.998 93.9015 184.156 94.7183 184.472 95.2628C184.799 95.7964 185.213 96.1558 185.714 96.3409C186.225 96.5152 186.765 96.6023 187.331 96.6023C187.756 96.6023 188.104 96.5805 188.376 96.5369C188.648 96.4825 188.866 96.4389 189.03 96.4062L189.814 99.8693C189.552 99.9673 189.188 100.065 188.719 100.163C188.251 100.272 187.657 100.327 186.939 100.327C185.85 100.327 184.782 100.093 183.737 99.6243C182.702 99.156 181.842 98.4427 181.156 97.4844C180.481 96.526 180.143 95.3172 180.143 93.858V68.8977Z" fill="black"/>
</svg>
