<svg width="260" height="171" viewBox="0 0 260 171" fill="none" xmlns="http://www.w3.org/2000/svg">
<rect width="260" height="171" fill="#F5F5F5"/>
<rect width="260" height="171" fill="#F3ECEA"/>
<path d="M79.0511 105V71.5455H90.3551C92.9688 71.5455 95.1141 71.9919 96.7912 72.8849C98.4683 73.767 99.7098 74.9813 100.516 76.5277C101.321 78.0741 101.724 79.8329 101.724 81.804C101.724 83.7751 101.321 85.523 100.516 87.0476C99.7098 88.5722 98.4737 89.7701 96.8075 90.6413C95.1413 91.5017 93.0123 91.9318 90.4205 91.9318H81.2727V88.2727H90.2898C92.0758 88.2727 93.5133 88.0114 94.6023 87.4886C95.7022 86.9659 96.4972 86.2254 96.9872 85.267C97.4882 84.2978 97.7386 83.1435 97.7386 81.804C97.7386 80.4645 97.4882 79.2938 96.9872 78.2919C96.4863 77.29 95.6858 76.5168 94.5859 75.9723C93.486 75.4169 92.0322 75.1392 90.2244 75.1392H83.1023V105H79.0511ZM94.7983 89.9716L103.031 105H98.3267L90.2244 89.9716H94.7983ZM114.552 105L105.404 71.5455H109.52L116.512 98.7926H116.839L123.961 71.5455H128.535L135.657 98.7926H135.983L142.975 71.5455H147.091L137.944 105H133.762L126.378 78.3409H126.117L118.733 105H114.552ZM162.463 105H152.139V71.5455H162.92C166.166 71.5455 168.943 72.2152 171.251 73.5547C173.56 74.8833 175.33 76.7945 176.56 79.2884C177.791 81.7713 178.406 84.7443 178.406 88.2074C178.406 91.6922 177.785 94.6925 176.544 97.2081C175.302 99.7128 173.495 101.64 171.121 102.991C168.747 104.33 165.861 105 162.463 105ZM156.19 101.406H162.202C164.968 101.406 167.26 100.873 169.079 99.8054C170.897 98.7382 172.253 97.219 173.146 95.2479C174.039 93.2768 174.486 90.9299 174.486 88.2074C174.486 85.5066 174.045 83.1816 173.162 81.2322C172.28 79.272 170.963 77.7692 169.209 76.7237C167.456 75.6674 165.273 75.1392 162.659 75.1392H156.19V101.406Z" fill="black"/>
</svg>
