<svg width="260" height="171" viewBox="0 0 260 171" fill="none" xmlns="http://www.w3.org/2000/svg">
<rect width="260" height="171" fill="#F5F5F5"/>
<rect width="260" height="171" fill="#FFC0C7"/>
<path d="M100.186 74.9091C99.9904 73.2538 99.1954 71.9688 97.8015 71.054C96.4076 70.1392 94.6978 69.6818 92.6722 69.6818C91.1912 69.6818 89.8952 69.9214 88.7844 70.4006C87.6845 70.8797 86.8242 71.5386 86.2035 72.3771C85.5936 73.2157 85.2887 74.1686 85.2887 75.2358C85.2887 76.1288 85.5011 76.8965 85.9258 77.5391C86.3614 78.1707 86.9168 78.6989 87.592 79.1236C88.2672 79.5374 88.975 79.8804 89.7156 80.1527C90.4561 80.4141 91.1367 80.6264 91.7575 80.7898L95.1552 81.7045C96.0264 81.9332 96.9956 82.2491 98.0629 82.652C99.141 83.0549 100.17 83.6049 101.15 84.3018C102.141 84.9879 102.958 85.87 103.6 86.9482C104.243 88.0263 104.564 89.3494 104.564 90.9176C104.564 92.7254 104.091 94.3589 103.143 95.8182C102.207 97.2775 100.834 98.4373 99.0266 99.2976C97.2298 100.158 95.0463 100.588 92.4762 100.588C90.0804 100.588 88.0058 100.201 86.2525 99.4283C84.5101 98.6551 83.1379 97.5769 82.136 96.1939C81.145 94.8108 80.5842 93.2045 80.4535 91.375H84.6353C84.7442 92.6383 85.1689 93.6837 85.9094 94.5114C86.6609 95.3281 87.6083 95.938 88.7518 96.3409C89.9061 96.733 91.1476 96.929 92.4762 96.929C94.0226 96.929 95.4111 96.6785 96.6417 96.1776C97.8723 95.6657 98.8469 94.9579 99.5657 94.054C100.284 93.1392 100.644 92.072 100.644 90.8523C100.644 89.7415 100.333 88.8376 99.7127 88.1406C99.092 87.4437 98.2752 86.8774 97.2624 86.4418C96.2496 86.0062 95.1552 85.625 93.979 85.2983L89.8626 84.1222C87.2489 83.3707 85.1798 82.2981 83.6552 80.9041C82.1306 79.5102 81.3683 77.6861 81.3683 75.4318C81.3683 73.5587 81.8746 71.9252 82.8874 70.5312C83.9111 69.1264 85.2833 68.0374 87.0039 67.2642C88.7354 66.4801 90.6684 66.0881 92.8029 66.0881C94.9592 66.0881 96.8758 66.4747 98.5529 67.2479C100.23 68.0102 101.559 69.0556 102.539 70.3842C103.53 71.7128 104.052 73.2211 104.107 74.9091H100.186ZM118.086 100.588C116.496 100.588 115.053 100.289 113.757 99.6896C112.461 99.0798 111.432 98.2031 110.67 97.0597C109.907 95.9053 109.526 94.5114 109.526 92.8778C109.526 91.4403 109.809 90.2751 110.376 89.3821C110.942 88.4782 111.699 87.7704 112.646 87.2585C113.594 86.7467 114.639 86.3655 115.782 86.1151C116.937 85.8537 118.097 85.6468 119.262 85.4943C120.787 85.2983 122.023 85.1513 122.97 85.0533C123.928 84.9444 124.625 84.7647 125.061 84.5142C125.507 84.2637 125.731 83.8281 125.731 83.2074V83.0767C125.731 81.465 125.29 80.2126 124.407 79.3196C123.536 78.4266 122.213 77.9801 120.438 77.9801C118.598 77.9801 117.155 78.383 116.109 79.1889C115.064 79.9948 114.329 80.8551 113.904 81.7699L110.245 80.4631C110.898 78.9384 111.769 77.7514 112.858 76.902C113.958 76.0417 115.156 75.4427 116.452 75.1051C117.759 74.7566 119.044 74.5824 120.307 74.5824C121.113 74.5824 122.039 74.6804 123.084 74.8764C124.141 75.0616 125.159 75.4482 126.139 76.0362C127.13 76.6243 127.952 77.5118 128.606 78.6989C129.259 79.8859 129.586 81.4759 129.586 83.4688V100H125.731V96.6023H125.535C125.273 97.1468 124.838 97.7294 124.228 98.3501C123.618 98.9709 122.807 99.4991 121.794 99.9347C120.781 100.37 119.545 100.588 118.086 100.588ZM118.674 97.125C120.198 97.125 121.483 96.8255 122.529 96.2266C123.585 95.6276 124.38 94.8544 124.914 93.907C125.458 92.9595 125.731 91.9631 125.731 90.9176V87.3892C125.567 87.5852 125.208 87.7649 124.653 87.9283C124.108 88.0807 123.476 88.2169 122.758 88.3366C122.05 88.4455 121.358 88.5436 120.683 88.6307C120.019 88.7069 119.48 88.7723 119.066 88.8267C118.064 88.9574 117.127 89.1697 116.256 89.4638C115.396 89.7469 114.699 90.1771 114.165 90.7543C113.643 91.3205 113.381 92.0937 113.381 93.0739C113.381 94.4134 113.877 95.4261 114.868 96.1122C115.87 96.7874 117.138 97.125 118.674 97.125ZM154.395 80.5284L150.932 81.5085C150.714 80.9313 150.393 80.3705 149.968 79.826C149.554 79.2706 148.988 78.8132 148.269 78.4538C147.55 78.0945 146.63 77.9148 145.509 77.9148C143.973 77.9148 142.693 78.2687 141.67 78.9766C140.657 79.6735 140.151 80.5611 140.151 81.6392C140.151 82.5975 140.499 83.3544 141.196 83.9098C141.893 84.4652 142.982 84.928 144.463 85.2983L148.188 86.2131C150.431 86.7576 152.103 87.5907 153.202 88.7124C154.302 89.8232 154.852 91.2552 154.852 93.0085C154.852 94.446 154.438 95.7311 153.611 96.8636C152.794 97.9962 151.651 98.8892 150.18 99.5426C148.71 100.196 147 100.523 145.051 100.523C142.492 100.523 140.374 99.9673 138.697 98.8565C137.02 97.7457 135.958 96.1231 135.511 93.9886L139.17 93.0739C139.519 94.4242 140.178 95.437 141.147 96.1122C142.127 96.7874 143.407 97.125 144.986 97.125C146.783 97.125 148.209 96.7438 149.266 95.9815C150.333 95.2083 150.866 94.2827 150.866 93.2045C150.866 92.3333 150.562 91.6037 149.952 91.0156C149.342 90.4167 148.405 89.9702 147.142 89.6761L142.96 88.696C140.662 88.1515 138.974 87.3075 137.896 86.1641C136.829 85.0097 136.295 83.5668 136.295 81.8352C136.295 80.4195 136.693 79.1671 137.488 78.0781C138.294 76.9891 139.388 76.1342 140.771 75.5135C142.165 74.8928 143.744 74.5824 145.509 74.5824C147.991 74.5824 149.941 75.1269 151.357 76.2159C152.783 77.3049 153.796 78.7424 154.395 80.5284ZM178.428 80.5284L174.965 81.5085C174.747 80.9313 174.426 80.3705 174.001 79.826C173.587 79.2706 173.021 78.8132 172.302 78.4538C171.584 78.0945 170.663 77.9148 169.542 77.9148C168.006 77.9148 166.727 78.2687 165.703 78.9766C164.69 79.6735 164.184 80.5611 164.184 81.6392C164.184 82.5975 164.532 83.3544 165.229 83.9098C165.926 84.4652 167.015 84.928 168.496 85.2983L172.221 86.2131C174.464 86.7576 176.136 87.5907 177.236 88.7124C178.336 89.8232 178.885 91.2552 178.885 93.0085C178.885 94.446 178.472 95.7311 177.644 96.8636C176.827 97.9962 175.684 98.8892 174.214 99.5426C172.743 100.196 171.034 100.523 169.084 100.523C166.525 100.523 164.407 99.9673 162.73 98.8565C161.053 97.7457 159.991 96.1231 159.545 93.9886L163.204 93.0739C163.552 94.4242 164.211 95.437 165.18 96.1122C166.16 96.7874 167.44 97.125 169.019 97.125C170.816 97.125 172.242 96.7438 173.299 95.9815C174.366 95.2083 174.9 94.2827 174.9 93.2045C174.9 92.3333 174.595 91.6037 173.985 91.0156C173.375 90.4167 172.439 89.9702 171.175 89.6761L166.993 88.696C164.696 88.1515 163.008 87.3075 161.93 86.1641C160.862 85.0097 160.329 83.5668 160.329 81.8352C160.329 80.4195 160.726 79.1671 161.521 78.0781C162.327 76.9891 163.421 76.1342 164.805 75.5135C166.198 74.8928 167.778 74.5824 169.542 74.5824C172.025 74.5824 173.974 75.1269 175.39 76.2159C176.816 77.3049 177.829 78.7424 178.428 80.5284Z" fill="black"/>
</svg>
