<svg width="260" height="171" viewBox="0 0 260 171" fill="none" xmlns="http://www.w3.org/2000/svg">
<rect width="260" height="171" fill="#F5F5F5"/>
<rect width="260" height="171" fill="#D9EEE1"/>
<path d="M91.9716 74.9091C91.7756 73.2538 90.9806 71.9688 89.5866 71.054C88.1927 70.1392 86.483 69.6818 84.4574 69.6818C82.9763 69.6818 81.6804 69.9214 80.5696 70.4006C79.4697 70.8797 78.6094 71.5386 77.9886 72.3771C77.3788 73.2157 77.0739 74.1686 77.0739 75.2358C77.0739 76.1288 77.2862 76.8965 77.7109 77.5391C78.1465 78.1707 78.7019 78.6989 79.3771 79.1236C80.0523 79.5374 80.7602 79.8804 81.5007 80.1527C82.2412 80.4141 82.9219 80.6264 83.5426 80.7898L86.9403 81.7045C87.8116 81.9332 88.7808 82.2491 89.848 82.652C90.9261 83.0549 91.9553 83.6049 92.9354 84.3018C93.9264 84.9879 94.7431 85.87 95.3857 86.9482C96.0282 88.0263 96.3494 89.3494 96.3494 90.9176C96.3494 92.7254 95.8757 94.3589 94.9283 95.8182C93.9917 97.2775 92.6196 98.4373 90.8118 99.2976C89.0149 100.158 86.8314 100.588 84.2614 100.588C81.8655 100.588 79.791 100.201 78.0376 99.4283C76.2952 98.6551 74.9231 97.5769 73.9212 96.1939C72.9302 94.8108 72.3693 93.2045 72.2386 91.375H76.4205C76.5294 92.6383 76.9541 93.6837 77.6946 94.5114C78.446 95.3281 79.3935 95.938 80.5369 96.3409C81.6913 96.733 82.9328 96.929 84.2614 96.929C85.8078 96.929 87.1963 96.6785 88.4268 96.1776C89.6574 95.6657 90.6321 94.9579 91.3509 94.054C92.0696 93.1392 92.429 92.072 92.429 90.8523C92.429 89.7415 92.1186 88.8376 91.4979 88.1406C90.8771 87.4437 90.0604 86.8774 89.0476 86.4418C88.0348 86.0062 86.9403 85.625 85.7642 85.2983L81.6477 84.1222C79.0341 83.3707 76.965 82.2981 75.4403 80.9041C73.9157 79.5102 73.1534 77.6861 73.1534 75.4318C73.1534 73.5587 73.6598 71.9252 74.6726 70.5312C75.6963 69.1264 77.0684 68.0374 78.7891 67.2642C80.5206 66.4801 82.4536 66.0881 84.5881 66.0881C86.7443 66.0881 88.661 66.4747 90.3381 67.2479C92.0152 68.0102 93.3438 69.0556 94.3239 70.3842C95.3149 71.7128 95.8376 73.2211 95.892 74.9091H91.9716ZM112.681 100.523C110.328 100.523 108.303 99.9673 106.604 98.8565C104.905 97.7457 103.598 96.2157 102.683 94.2663C101.769 92.317 101.311 90.09 101.311 87.5852C101.311 85.0369 101.78 82.7881 102.716 80.8388C103.664 78.8786 104.981 77.3485 106.669 76.2486C108.368 75.1378 110.35 74.5824 112.615 74.5824C114.379 74.5824 115.969 74.9091 117.385 75.5625C118.801 76.2159 119.961 77.1307 120.865 78.3068C121.768 79.483 122.329 80.8551 122.547 82.4233H118.692C118.398 81.2798 117.744 80.267 116.732 79.3849C115.73 78.4919 114.379 78.0455 112.681 78.0455C111.178 78.0455 109.86 78.4375 108.727 79.2216C107.606 79.9948 106.729 81.0893 106.097 82.505C105.477 83.9098 105.166 85.5597 105.166 87.4545C105.166 89.393 105.471 91.081 106.081 92.5185C106.702 93.956 107.573 95.0722 108.695 95.8672C109.827 96.6622 111.156 97.0597 112.681 97.0597C113.682 97.0597 114.592 96.8854 115.409 96.5369C116.225 96.1884 116.917 95.6875 117.483 95.0341C118.049 94.3807 118.452 93.5966 118.692 92.6818H122.547C122.329 94.1629 121.79 95.4969 120.93 96.6839C120.08 97.8601 118.953 98.7966 117.548 99.4936C116.155 100.18 114.532 100.523 112.681 100.523ZM128.183 100V74.9091H132.038V100H128.183ZM130.143 70.7273C129.392 70.7273 128.744 70.4714 128.199 69.9595C127.665 69.4477 127.399 68.8324 127.399 68.1136C127.399 67.3949 127.665 66.7796 128.199 66.2678C128.744 65.7559 129.392 65.5 130.143 65.5C130.894 65.5 131.537 65.7559 132.07 66.2678C132.615 66.7796 132.887 67.3949 132.887 68.1136C132.887 68.8324 132.615 69.4477 132.07 69.9595C131.537 70.4714 130.894 70.7273 130.143 70.7273ZM139.621 100V66.5455H150.925C153.55 66.5455 155.695 67.0192 157.362 67.9666C159.039 68.9032 160.28 70.1719 161.086 71.7727C161.892 73.3736 162.295 75.1596 162.295 77.1307C162.295 79.1018 161.892 80.8932 161.086 82.505C160.291 84.1167 159.06 85.4018 157.394 86.3601C155.728 87.3075 153.594 87.7812 150.991 87.7812H142.888V84.1875H150.86C152.657 84.1875 154.1 83.8771 155.189 83.2564C156.278 82.6357 157.067 81.7971 157.558 80.7408C158.058 79.6735 158.309 78.4702 158.309 77.1307C158.309 75.7912 158.058 74.5933 157.558 73.5369C157.067 72.4806 156.272 71.6529 155.173 71.054C154.073 70.4441 152.613 70.1392 150.795 70.1392H143.673V100H139.621ZM170.781 109.409C170.127 109.409 169.545 109.355 169.033 109.246C168.521 109.148 168.167 109.05 167.971 108.952L168.951 105.554C169.888 105.794 170.716 105.881 171.434 105.815C172.153 105.75 172.79 105.429 173.346 104.852C173.912 104.285 174.429 103.365 174.897 102.091L175.616 100.131L166.338 74.9091H170.52L177.446 94.9034H177.707L184.633 74.9091H188.815L178.164 103.659C177.685 104.955 177.092 106.028 176.384 106.877C175.676 107.737 174.854 108.375 173.917 108.788C172.992 109.202 171.946 109.409 170.781 109.409Z" fill="black"/>
</svg>
