<svg width="260" height="171" viewBox="0 0 260 171" fill="none" xmlns="http://www.w3.org/2000/svg">
<rect width="260" height="171" fill="#F5F5F5"/>
<rect width="260" height="171" fill="#96D4D4"/>
<path d="M106.723 74.9091C106.527 73.2538 105.732 71.9688 104.338 71.054C102.944 70.1392 101.234 69.6818 99.2084 69.6818C97.7273 69.6818 96.4314 69.9214 95.3206 70.4006C94.2207 70.8797 93.3604 71.5386 92.7396 72.3771C92.1298 73.2157 91.8248 74.1686 91.8248 75.2358C91.8248 76.1288 92.0372 76.8965 92.4619 77.5391C92.8975 78.1707 93.4529 78.6989 94.1281 79.1236C94.8033 79.5374 95.5112 79.8804 96.2517 80.1527C96.9922 80.4141 97.6729 80.6264 98.2936 80.7898L101.691 81.7045C102.563 81.9332 103.532 82.2491 104.599 82.652C105.677 83.0549 106.706 83.6049 107.686 84.3018C108.677 84.9879 109.494 85.87 110.137 86.9482C110.779 88.0263 111.1 89.3494 111.1 90.9176C111.1 92.7254 110.627 94.3589 109.679 95.8182C108.743 97.2775 107.371 98.4373 105.563 99.2976C103.766 100.158 101.582 100.588 99.0123 100.588C96.6165 100.588 94.5419 100.201 92.7886 99.4283C91.0462 98.6551 89.674 97.5769 88.6721 96.1939C87.6811 94.8108 87.1203 93.2045 86.9896 91.375H91.1714C91.2803 92.6383 91.705 93.6837 92.4456 94.5114C93.197 95.3281 94.1444 95.938 95.2879 96.3409C96.4423 96.733 97.6837 96.929 99.0123 96.929C100.559 96.929 101.947 96.6785 103.178 96.1776C104.408 95.6657 105.383 94.9579 106.102 94.054C106.821 93.1392 107.18 92.072 107.18 90.8523C107.18 89.7415 106.87 88.8376 106.249 88.1406C105.628 87.4437 104.811 86.8774 103.799 86.4418C102.786 86.0062 101.691 85.625 100.515 85.2983L96.3987 84.1222C93.7851 83.3707 91.7159 82.2981 90.1913 80.9041C88.6667 79.5102 87.9044 77.6861 87.9044 75.4318C87.9044 73.5587 88.4108 71.9252 89.4236 70.5312C90.4472 69.1264 91.8194 68.0374 93.54 67.2642C95.2716 66.4801 97.2046 66.0881 99.339 66.0881C101.495 66.0881 103.412 66.4747 105.089 67.2479C106.766 68.0102 108.095 69.0556 109.075 70.3842C110.066 71.7128 110.589 73.2211 110.643 74.9091H106.723ZM129.915 89.5455H134.358L138.082 94.446L139.062 95.7528L144.616 103.136H140.173L136.514 98.2358L135.599 96.9943L129.915 89.5455ZM145.988 83.2727C145.988 86.8011 145.351 89.8504 144.077 92.4205C142.803 94.9905 141.055 96.9725 138.834 98.3665C136.612 99.7604 134.075 100.457 131.221 100.457C128.368 100.457 125.831 99.7604 123.609 98.3665C121.388 96.9725 119.64 94.9905 118.366 92.4205C117.091 89.8504 116.454 86.8011 116.454 83.2727C116.454 79.7443 117.091 76.6951 118.366 74.125C119.64 71.5549 121.388 69.5729 123.609 68.179C125.831 66.785 128.368 66.0881 131.221 66.0881C134.075 66.0881 136.612 66.785 138.834 68.179C141.055 69.5729 142.803 71.5549 144.077 74.125C145.351 76.6951 145.988 79.7443 145.988 83.2727ZM142.068 83.2727C142.068 80.3759 141.583 77.9311 140.614 75.9382C139.656 73.9453 138.354 72.437 136.71 71.4134C135.076 70.3897 133.247 69.8778 131.221 69.8778C129.196 69.8778 127.361 70.3897 125.716 71.4134C124.083 72.437 122.781 73.9453 121.812 75.9382C120.854 77.9311 120.375 80.3759 120.375 83.2727C120.375 86.1695 120.854 88.6143 121.812 90.6072C122.781 92.6001 124.083 94.1084 125.716 95.1321C127.361 96.1558 129.196 96.6676 131.221 96.6676C133.247 96.6676 135.076 96.1558 136.71 95.1321C138.354 94.1084 139.656 92.6001 140.614 90.6072C141.583 88.6143 142.068 86.1695 142.068 83.2727ZM152.8 100V66.5455H156.851V96.4062H172.402V100H152.8Z" fill="black"/>
</svg>
