<svg width="260" height="171" viewBox="0 0 260 171" fill="none" xmlns="http://www.w3.org/2000/svg">
<rect width="260" height="171" fill="#F5F5F5"/>
<rect width="260" height="171" fill="#FFF4A3"/>
<path d="M51.3564 74.9091C51.1603 73.2538 50.3654 71.9688 48.9714 71.054C47.5775 70.1392 45.8677 69.6818 43.8422 69.6818C42.3611 69.6818 41.0652 69.9214 39.9544 70.4006C38.8545 70.8797 37.9941 71.5386 37.3734 72.3771C36.7636 73.2157 36.4586 74.1686 36.4586 75.2358C36.4586 76.1288 36.671 76.8965 37.0957 77.5391C37.5313 78.1707 38.0867 78.6989 38.7619 79.1236C39.4371 79.5374 40.1449 79.8804 40.8855 80.1527C41.626 80.4141 42.3066 80.6264 42.9274 80.7898L46.3251 81.7045C47.1963 81.9332 48.1655 82.2491 49.2328 82.652C50.3109 83.0549 51.34 83.6049 52.3201 84.3018C53.3111 84.9879 54.1279 85.87 54.7704 86.9482C55.4129 88.0263 55.7342 89.3494 55.7342 90.9176C55.7342 92.7254 55.2605 94.3589 54.313 95.8182C53.3765 97.2775 52.0043 98.4373 50.1966 99.2976C48.3997 100.158 46.2162 100.588 43.6461 100.588C41.2503 100.588 39.1757 100.201 37.4224 99.4283C35.68 98.6551 34.3078 97.5769 33.3059 96.1939C32.3149 94.8108 31.7541 93.2045 31.6234 91.375H35.8052C35.9141 92.6383 36.3388 93.6837 37.0794 94.5114C37.8308 95.3281 38.7782 95.938 39.9217 96.3409C41.0761 96.733 42.3175 96.929 43.6461 96.929C45.1925 96.929 46.581 96.6785 47.8116 96.1776C49.0422 95.6657 50.0169 94.9579 50.7356 94.054C51.4544 93.1392 51.8137 92.072 51.8137 90.8523C51.8137 89.7415 51.5034 88.8376 50.8826 88.1406C50.2619 87.4437 49.4451 86.8774 48.4324 86.4418C47.4196 86.0062 46.3251 85.625 45.149 85.2983L41.0325 84.1222C38.4189 83.3707 36.3497 82.2981 34.8251 80.9041C33.3005 79.5102 32.5382 77.6861 32.5382 75.4318C32.5382 73.5587 33.0446 71.9252 34.0574 70.5312C35.081 69.1264 36.4532 68.0374 38.1738 67.2642C39.9054 66.4801 41.8384 66.0881 43.9728 66.0881C46.1291 66.0881 48.0458 66.4747 49.7228 67.2479C51.3999 68.0102 52.7285 69.0556 53.7086 70.3842C54.6996 71.7128 55.2224 73.2211 55.2768 74.9091H51.3564ZM72.7841 74.9091V78.1761H59.7812V74.9091H72.7841ZM63.571 68.8977H67.4261V92.8125C67.4261 93.9015 67.584 94.7183 67.8999 95.2628C68.2266 95.7964 68.6404 96.1558 69.1413 96.3409C69.6532 96.5152 70.1922 96.6023 70.7585 96.6023C71.1832 96.6023 71.5317 96.5805 71.804 96.5369C72.0762 96.4825 72.294 96.4389 72.4574 96.4062L73.2415 99.8693C72.9801 99.9673 72.6153 100.065 72.147 100.163C71.6787 100.272 71.0852 100.327 70.3665 100.327C69.2775 100.327 68.2102 100.093 67.1648 99.6243C66.1302 99.156 65.2699 98.4427 64.5838 97.4844C63.9086 96.526 63.571 95.3172 63.571 93.858V68.8977ZM85.9666 100.588C84.3767 100.588 82.9337 100.289 81.6378 99.6896C80.3419 99.0798 79.3127 98.2031 78.5504 97.0597C77.7881 95.9053 77.407 94.5114 77.407 92.8778C77.407 91.4403 77.6901 90.2751 78.2564 89.3821C78.8227 88.4782 79.5795 87.7704 80.527 87.2585C81.4744 86.7467 82.5199 86.3655 83.6634 86.1151C84.8177 85.8537 85.9775 85.6468 87.1428 85.4943C88.6674 85.2983 89.9034 85.1513 90.8509 85.0533C91.8092 84.9444 92.5062 84.7647 92.9418 84.5142C93.3883 84.2637 93.6115 83.8281 93.6115 83.2074V83.0767C93.6115 81.465 93.1705 80.2126 92.2884 79.3196C91.4171 78.4266 90.094 77.9801 88.3189 77.9801C86.4785 77.9801 85.0355 78.383 83.9901 79.1889C82.9446 79.9948 82.2095 80.8551 81.7848 81.7699L78.1257 80.4631C78.7791 78.9384 79.6503 77.7514 80.7393 76.902C81.8393 76.0417 83.0372 75.4427 84.3331 75.1051C85.6399 74.7566 86.925 74.5824 88.1882 74.5824C88.9941 74.5824 89.9197 74.6804 90.9652 74.8764C92.0215 75.0616 93.0398 75.4482 94.0199 76.0362C95.0109 76.6243 95.8331 77.5118 96.4865 78.6989C97.1399 79.8859 97.4666 81.4759 97.4666 83.4688V100H93.6115V96.6023H93.4155C93.1541 97.1468 92.7185 97.7294 92.1087 98.3501C91.4988 98.9709 90.6875 99.4991 89.6747 99.9347C88.6619 100.37 87.4259 100.588 85.9666 100.588ZM86.5547 97.125C88.0793 97.125 89.3643 96.8255 90.4098 96.2266C91.4661 95.6276 92.2611 94.8544 92.7947 93.907C93.3393 92.9595 93.6115 91.9631 93.6115 90.9176V87.3892C93.4482 87.5852 93.0888 87.7649 92.5334 87.9283C91.9889 88.0807 91.3572 88.2169 90.6385 88.3366C89.9306 88.4455 89.2391 88.5436 88.5639 88.6307C87.8996 88.7069 87.3606 88.7723 86.9467 88.8267C85.9448 88.9574 85.0083 89.1697 84.1371 89.4638C83.2768 89.7469 82.5798 90.1771 82.0462 90.7543C81.5234 91.3205 81.2621 92.0937 81.2621 93.0739C81.2621 94.4134 81.7576 95.4261 82.7486 96.1122C83.7505 96.7874 85.0192 97.125 86.5547 97.125ZM115.415 74.9091V78.1761H102.412V74.9091H115.415ZM106.202 68.8977H110.057V92.8125C110.057 93.9015 110.215 94.7183 110.531 95.2628C110.857 95.7964 111.271 96.1558 111.772 96.3409C112.284 96.5152 112.823 96.6023 113.389 96.6023C113.814 96.6023 114.163 96.5805 114.435 96.5369C114.707 96.4825 114.925 96.4389 115.088 96.4062L115.872 99.8693C115.611 99.9673 115.246 100.065 114.778 100.163C114.31 100.272 113.716 100.327 112.997 100.327C111.908 100.327 110.841 100.093 109.796 99.6243C108.761 99.156 107.901 98.4427 107.215 97.4844C106.539 96.526 106.202 95.3172 106.202 93.858V68.8977ZM121.214 100V74.9091H125.069V100H121.214ZM123.174 70.7273C122.423 70.7273 121.775 70.4714 121.23 69.9595C120.697 69.4477 120.43 68.8324 120.43 68.1136C120.43 67.3949 120.697 66.7796 121.23 66.2678C121.775 65.7559 122.423 65.5 123.174 65.5C123.926 65.5 124.568 65.7559 125.102 66.2678C125.646 66.7796 125.919 67.3949 125.919 68.1136C125.919 68.8324 125.646 69.4477 125.102 69.9595C124.568 70.4714 123.926 70.7273 123.174 70.7273ZM149.903 80.5284L146.44 81.5085C146.222 80.9313 145.901 80.3705 145.476 79.826C145.062 79.2706 144.496 78.8132 143.777 78.4538C143.058 78.0945 142.138 77.9148 141.016 77.9148C139.481 77.9148 138.201 78.2687 137.178 78.9766C136.165 79.6735 135.658 80.5611 135.658 81.6392C135.658 82.5975 136.007 83.3544 136.704 83.9098C137.401 84.4652 138.49 84.928 139.971 85.2983L143.695 86.2131C145.939 86.7576 147.61 87.5907 148.71 88.7124C149.81 89.8232 150.36 91.2552 150.36 93.0085C150.36 94.446 149.946 95.7311 149.119 96.8636C148.302 97.9962 147.158 98.8892 145.688 99.5426C144.218 100.196 142.508 100.523 140.559 100.523C138 100.523 135.882 99.9673 134.205 98.8565C132.527 97.7457 131.466 96.1231 131.019 93.9886L134.678 93.0739C135.027 94.4242 135.686 95.437 136.655 96.1122C137.635 96.7874 138.915 97.125 140.494 97.125C142.29 97.125 143.717 96.7438 144.773 95.9815C145.841 95.2083 146.374 94.2827 146.374 93.2045C146.374 92.3333 146.069 91.6037 145.46 91.0156C144.85 90.4167 143.913 89.9702 142.65 89.6761L138.468 88.696C136.17 88.1515 134.482 87.3075 133.404 86.1641C132.337 85.0097 131.803 83.5668 131.803 81.8352C131.803 80.4195 132.201 79.1671 132.996 78.0781C133.802 76.9891 134.896 76.1342 136.279 75.5135C137.673 74.8928 139.252 74.5824 141.016 74.5824C143.499 74.5824 145.449 75.1269 146.864 76.2159C148.291 77.3049 149.304 78.7424 149.903 80.5284ZM167.075 74.9091V78.1761H154.072V74.9091H167.075ZM157.862 68.8977H161.717V92.8125C161.717 93.9015 161.875 94.7183 162.191 95.2628C162.518 95.7964 162.931 96.1558 163.432 96.3409C163.944 96.5152 164.483 96.6023 165.05 96.6023C165.474 96.6023 165.823 96.5805 166.095 96.5369C166.367 96.4825 166.585 96.4389 166.748 96.4062L167.532 99.8693C167.271 99.9673 166.906 100.065 166.438 100.163C165.97 100.272 165.376 100.327 164.657 100.327C163.568 100.327 162.501 100.093 161.456 99.6243C160.421 99.156 159.561 98.4427 158.875 97.4844C158.2 96.526 157.862 95.3172 157.862 93.858V68.8977ZM172.874 100V74.9091H176.729V100H172.874ZM174.834 70.7273C174.083 70.7273 173.435 70.4714 172.89 69.9595C172.357 69.4477 172.09 68.8324 172.09 68.1136C172.09 67.3949 172.357 66.7796 172.89 66.2678C173.435 65.7559 174.083 65.5 174.834 65.5C175.586 65.5 176.228 65.7559 176.762 66.2678C177.306 66.7796 177.579 67.3949 177.579 68.1136C177.579 68.8324 177.306 69.4477 176.762 69.9595C176.228 70.4714 175.586 70.7273 174.834 70.7273ZM193.983 100.523C191.631 100.523 189.605 99.9673 187.907 98.8565C186.208 97.7457 184.901 96.2157 183.986 94.2663C183.071 92.317 182.614 90.09 182.614 87.5852C182.614 85.0369 183.082 82.7881 184.019 80.8388C184.966 78.8786 186.284 77.3485 187.972 76.2486C189.671 75.1378 191.653 74.5824 193.918 74.5824C195.682 74.5824 197.272 74.9091 198.688 75.5625C200.104 76.2159 201.263 77.1307 202.167 78.3068C203.071 79.483 203.632 80.8551 203.85 82.4233H199.995C199.701 81.2798 199.047 80.267 198.034 79.3849C197.033 78.4919 195.682 78.0455 193.983 78.0455C192.48 78.0455 191.163 78.4375 190.03 79.2216C188.908 79.9948 188.032 81.0893 187.4 82.505C186.779 83.9098 186.469 85.5597 186.469 87.4545C186.469 89.393 186.774 91.081 187.384 92.5185C188.005 93.956 188.876 95.0722 189.998 95.8672C191.13 96.6622 192.459 97.0597 193.983 97.0597C194.985 97.0597 195.895 96.8854 196.711 96.5369C197.528 96.1884 198.22 95.6875 198.786 95.0341C199.352 94.3807 199.755 93.5966 199.995 92.6818H203.85C203.632 94.1629 203.093 95.4969 202.233 96.6839C201.383 97.8601 200.256 98.7966 198.851 99.4936C197.457 100.18 195.835 100.523 193.983 100.523ZM227.258 80.5284L223.795 81.5085C223.577 80.9313 223.256 80.3705 222.831 79.826C222.417 79.2706 221.851 78.8132 221.132 78.4538C220.414 78.0945 219.493 77.9148 218.372 77.9148C216.836 77.9148 215.557 78.2687 214.533 78.9766C213.52 79.6735 213.014 80.5611 213.014 81.6392C213.014 82.5975 213.362 83.3544 214.059 83.9098C214.756 84.4652 215.845 84.928 217.326 85.2983L221.051 86.2131C223.294 86.7576 224.966 87.5907 226.066 88.7124C227.166 89.8232 227.716 91.2552 227.716 93.0085C227.716 94.446 227.302 95.7311 226.474 96.8636C225.657 97.9962 224.514 98.8892 223.044 99.5426C221.574 100.196 219.864 100.523 217.914 100.523C215.355 100.523 213.237 99.9673 211.56 98.8565C209.883 97.7457 208.821 96.1231 208.375 93.9886L212.034 93.0739C212.382 94.4242 213.041 95.437 214.01 96.1122C214.99 96.7874 216.27 97.125 217.849 97.125C219.646 97.125 221.073 96.7438 222.129 95.9815C223.196 95.2083 223.73 94.2827 223.73 93.2045C223.73 92.3333 223.425 91.6037 222.815 91.0156C222.205 90.4167 221.269 89.9702 220.005 89.6761L215.824 88.696C213.526 88.1515 211.838 87.3075 210.76 86.1641C209.692 85.0097 209.159 83.5668 209.159 81.8352C209.159 80.4195 209.556 79.1671 210.351 78.0781C211.157 76.9891 212.252 76.1342 213.635 75.5135C215.029 74.8928 216.608 74.5824 218.372 74.5824C220.855 74.5824 222.804 75.1269 224.22 76.2159C225.646 77.3049 226.659 78.7424 227.258 80.5284Z" fill="black"/>
</svg>
