<svg width="260" height="171" viewBox="0 0 260 171" fill="none" xmlns="http://www.w3.org/2000/svg">
<rect width="260" height="171" fill="#F5F5F5"/>
<rect width="260" height="171" fill="#96D4D4"/>
<path d="M105.33 74.9091C105.134 73.2538 104.339 71.9688 102.945 71.054C101.551 70.1392 99.8414 69.6818 97.8158 69.6818C96.3347 69.6818 95.0388 69.9214 93.928 70.4006C92.8281 70.8797 91.9678 71.5386 91.347 72.3771C90.7372 73.2157 90.4323 74.1686 90.4323 75.2358C90.4323 76.1288 90.6446 76.8965 91.0693 77.5391C91.5049 78.1707 92.0603 78.6989 92.7355 79.1236C93.4107 79.5374 94.1186 79.8804 94.8591 80.1527C95.5996 80.4141 96.2803 80.6264 96.901 80.7898L100.299 81.7045C101.17 81.9332 102.139 82.2491 103.206 82.652C104.285 83.0549 105.314 83.6049 106.294 84.3018C107.285 84.9879 108.102 85.87 108.744 86.9482C109.387 88.0263 109.708 89.3494 109.708 90.9176C109.708 92.7254 109.234 94.3589 108.287 95.8182C107.35 97.2775 105.978 98.4373 104.17 99.2976C102.373 100.158 100.19 100.588 97.6198 100.588C95.2239 100.588 93.1494 100.201 91.396 99.4283C89.6536 98.6551 88.2815 97.5769 87.2796 96.1939C86.2886 94.8108 85.7277 93.2045 85.597 91.375H89.7789C89.8878 92.6383 90.3125 93.6837 91.053 94.5114C91.8044 95.3281 92.7519 95.938 93.8953 96.3409C95.0497 96.733 96.2912 96.929 97.6198 96.929C99.1662 96.929 100.555 96.6785 101.785 96.1776C103.016 95.6657 103.991 94.9579 104.709 94.054C105.428 93.1392 105.787 92.072 105.787 90.8523C105.787 89.7415 105.477 88.8376 104.856 88.1406C104.236 87.4437 103.419 86.8774 102.406 86.4418C101.393 86.0062 100.299 85.625 99.1226 85.2983L95.0061 84.1222C92.3925 83.3707 90.3234 82.2981 88.7987 80.9041C87.2741 79.5102 86.5118 77.6861 86.5118 75.4318C86.5118 73.5587 87.0182 71.9252 88.031 70.5312C89.0547 69.1264 90.4268 68.0374 92.1475 67.2642C93.879 66.4801 95.812 66.0881 97.9465 66.0881C100.103 66.0881 102.019 66.4747 103.696 67.2479C105.374 68.0102 106.702 69.0556 107.682 70.3842C108.673 71.7128 109.196 73.2211 109.25 74.9091H105.33ZM117.741 66.5455L127.672 94.7074H128.065L137.996 66.5455H142.244L129.959 100H125.778L113.494 66.5455H117.741ZM168.752 77C168.392 75.9001 167.918 74.9145 167.33 74.0433C166.753 73.1612 166.062 72.4098 165.256 71.7891C164.461 71.1683 163.557 70.6946 162.544 70.3679C161.531 70.0412 160.421 69.8778 159.212 69.8778C157.23 69.8778 155.427 70.3897 153.805 71.4134C152.182 72.437 150.892 73.9453 149.933 75.9382C148.975 77.9311 148.496 80.3759 148.496 83.2727C148.496 86.1695 148.98 88.6143 149.95 90.6072C150.919 92.6001 152.231 94.1084 153.886 95.1321C155.542 96.1558 157.404 96.6676 159.473 96.6676C161.39 96.6676 163.078 96.2592 164.537 95.4425C166.007 94.6148 167.151 93.4496 167.967 91.9467C168.795 90.433 169.209 88.6525 169.209 86.6051L170.45 86.8665H160.388V83.2727H173.129V86.8665C173.129 89.6217 172.541 92.0175 171.365 94.054C170.2 96.0904 168.588 97.6695 166.53 98.7912C164.483 99.902 162.13 100.457 159.473 100.457C156.511 100.457 153.908 99.7604 151.665 98.3665C149.432 96.9725 147.69 94.9905 146.438 92.4205C145.196 89.8504 144.575 86.8011 144.575 83.2727C144.575 80.6264 144.929 78.2469 145.637 76.1342C146.356 74.0107 147.369 72.2029 148.676 70.7109C149.982 69.219 151.529 68.0755 153.315 67.2805C155.101 66.4856 157.066 66.0881 159.212 66.0881C160.976 66.0881 162.62 66.3549 164.145 66.8885C165.68 67.4112 167.047 68.1572 168.245 69.1264C169.454 70.0848 170.461 71.2337 171.267 72.5732C172.073 73.9018 172.628 75.3774 172.933 77H168.752Z" fill="black"/>
</svg>
