<svg xmlns="http://www.w3.org/2000/svg" version="1.0" viewBox="678.97 390.75 82.05 28.5"><defs><clipPath id="a"><path d="M678.75 393H758v24h-79.25Zm0 0"></path></clipPath><clipPath id="b"><path d="M745 390.75h16.25v28.5H745Zm0 0"></path></clipPath></defs><path fill="#fff" d="M700.608 408.6c0 .636-.235 1.136-.703 1.5-.47.355-1.102.53-1.891.53-.867 0-1.531-.11-2-.328v-.812a5.317 5.317 0 0 0 2.031.406c.563 0 .985-.102 1.266-.313.289-.218.437-.52.437-.906 0-.25-.054-.453-.156-.61-.105-.163-.277-.316-.515-.452-.23-.145-.59-.301-1.079-.47-.68-.237-1.164-.522-1.453-.858-.293-.332-.437-.77-.437-1.313 0-.562.207-1.008.625-1.344.426-.332.988-.5 1.687-.5.719 0 1.383.137 2 .407l-.265.734c-.606-.25-1.196-.375-1.766-.375-.45 0-.797.102-1.047.297-.25.187-.375.453-.375.797 0 .25.047.46.14.625.095.156.25.304.47.437.218.137.554.29 1.015.453.758.274 1.285.563 1.578.875.29.313.438.72.438 1.22Zm2.182 1.937h-.827v-5.47h.828Zm-.89-6.954c0-.187.047-.32.14-.406a.466.466 0 0 1 .345-.14c.133 0 .25.046.343.14.094.086.141.219.141.406 0 .188-.047.329-.14.422a.472.472 0 0 1-.344.14.466.466 0 0 1-.344-.14c-.094-.093-.14-.234-.14-.422Zm6.396 6.954v-3.532c0-.445-.106-.78-.313-1-.199-.218-.515-.328-.953-.328-.574 0-.996.156-1.265.469-.262.305-.39.809-.39 1.516v2.875h-.83v-5.47h.673l.14.75h.032c.175-.269.414-.476.718-.624a2.428 2.428 0 0 1 1.032-.219c.656 0 1.148.164 1.484.484.332.313.5.82.5 1.516v3.563Zm5.878 0-.157-.782h-.047c-.273.344-.542.578-.812.703-.273.114-.61.172-1.016.172-.543 0-.968-.132-1.28-.406-.306-.281-.454-.68-.454-1.203 0-1.102.883-1.68 2.656-1.734l.922-.032v-.343c0-.426-.094-.739-.281-.938-.18-.207-.469-.312-.875-.312-.461 0-.977.14-1.547.421l-.266-.64c.27-.145.567-.258.891-.344a3.9 3.9 0 0 1 .969-.125c.644 0 1.125.149 1.437.438.32.293.485.757.485 1.39v3.735Zm-1.86-.579c.508 0 .91-.14 1.203-.421.301-.29.453-.692.453-1.204v-.484l-.828.031c-.668.024-1.148.125-1.437.313-.281.18-.422.46-.422.844 0 .304.086.53.266.687.175.156.43.234.765.234Zm6.726-4.984c.72 0 1.274.246 1.673.734.394.493.594 1.188.594 2.094 0 .899-.204 1.594-.61 2.094-.398.492-.949.734-1.656.734a2.54 2.54 0 0 1-.984-.187 1.811 1.811 0 0 1-.735-.61h-.062l-.172.704h-.594v-7.766h.828v1.89c0 .419-.012.797-.031 1.141h.031c.383-.55.957-.828 1.719-.828Zm-.124.703c-.563 0-.969.164-1.219.485-.25.324-.375.87-.375 1.64 0 .762.125 1.309.375 1.64.258.337.676.5 1.25.5.508 0 .883-.179 1.125-.546.25-.375.375-.91.375-1.61 0-.706-.125-1.234-.375-1.578-.242-.351-.625-.53-1.156-.53Zm7.317 2.063c.133-.207.348-.473.641-.797l1.766-1.875h.984l-2.203 2.328 2.36 3.14h-1l-1.938-2.578-.61.532v2.047h-.828v-7.766h.828v4.125c0 .18-.015.46-.046.844Zm9.252.062c0 .887-.227 1.578-.672 2.078-.45.5-1.07.75-1.86.75-.492 0-.93-.113-1.312-.343a2.267 2.267 0 0 1-.875-.985c-.2-.426-.297-.926-.297-1.5 0-.894.219-1.586.656-2.078.446-.5 1.067-.75 1.86-.75.77 0 1.379.258 1.828.766.445.5.672 1.187.672 2.062Zm-4.156 0c0 .7.132 1.23.406 1.594.281.367.691.547 1.234.547.54 0 .953-.18 1.235-.547.28-.363.421-.895.421-1.594 0-.695-.14-1.222-.421-1.578-.282-.363-.696-.547-1.235-.547-.543 0-.953.18-1.234.531-.274.356-.406.887-.406 1.594Zm6.324-4.562-.203 2.64h-.515l-.22-2.64Zm4.041 1.734c.238 0 .457.016.656.047l-.125.781a2.67 2.67 0 0 0-.594-.078c-.437 0-.82.184-1.14.547-.313.355-.47.797-.47 1.328v2.938h-.827v-5.47h.687l.094 1.016h.047a2.29 2.29 0 0 1 .718-.812c.29-.195.61-.297.954-.297Zm2.496 5.563h-.828v-5.47h.829Zm-.89-6.954c0-.187.047-.32.14-.406a.466.466 0 0 1 .344-.14.47.47 0 0 1 .344.14c.094.086.14.219.14.406 0 .188-.046.329-.14.422a.472.472 0 0 1-.344.14.466.466 0 0 1-.343-.14c-.094-.093-.141-.234-.141-.422Zm6.396 6.954v-3.532c0-.445-.106-.78-.313-1-.2-.218-.516-.328-.953-.328-.574 0-.996.156-1.266.469-.261.305-.39.809-.39 1.516v2.875h-.828v-5.47h.671l.141.75h.031a1.75 1.75 0 0 1 .719-.624 2.428 2.428 0 0 1 1.031-.219c.657 0 1.149.164 1.485.484.332.313.5.82.5 1.516v3.563Zm7.002-5.469v.531l-1.015.11a1.748 1.748 0 0 1 .359 1.093c0 .543-.184.977-.547 1.297-.367.313-.871.469-1.516.469-.156 0-.308-.016-.453-.047-.355.187-.53.422-.53.703 0 .156.062.274.187.344.125.062.332.094.625.094h.968c.594 0 1.047.125 1.36.375.32.25.484.613.484 1.093 0 .602-.246 1.063-.734 1.375-.48.32-1.184.485-2.11.485-.718 0-1.277-.137-1.672-.407-.386-.261-.578-.636-.578-1.125 0-.335.102-.62.313-.859.219-.238.52-.398.906-.484a1.003 1.003 0 0 1-.344-.297.792.792 0 0 1-.14-.469c0-.195.05-.367.156-.516.102-.156.27-.3.5-.437a1.439 1.439 0 0 1-.688-.594 1.752 1.752 0 0 1-.265-.969c0-.593.176-1.05.531-1.375.363-.32.875-.484 1.531-.484.29 0 .551.031.782.094Zm-4.36 6.39c0 .29.118.516.36.672.25.157.61.235 1.078.235.696 0 1.211-.106 1.547-.313.332-.21.5-.496.5-.86 0-.292-.094-.495-.281-.609-.18-.113-.523-.171-1.031-.171h-.985c-.375 0-.668.09-.875.265-.21.188-.312.446-.312.781Zm.438-4.64c0 .387.11.68.328.875.22.187.52.281.907.281.8 0 1.203-.39 1.203-1.172 0-.82-.406-1.234-1.219-1.234-.387 0-.687.105-.906.312-.211.211-.313.524-.313.938Zm0 0"></path><g clip-path="url(#a)"><path fill="#0a775f" d="M746.71 416.035h-56.644c-6.097 0-11.086-4.969-11.086-11.039 0-6.07 4.989-11.039 11.086-11.039h56.645c6.098 0 11.086 4.969 11.086 11.04 0 6.07-4.988 11.038-11.086 11.038Zm0 0"></path></g><g clip-path="url(#b)"><path fill="#0a775f" d="M746.71 419.242a.844.844 0 1 1 0-1.688c6.954 0 12.61-5.632 12.61-12.558s-5.656-12.558-12.61-12.558a.846.846 0 0 1-.847-.844c0-.465.38-.844.848-.844 7.887 0 14.305 6.39 14.305 14.246 0 7.856-6.418 14.246-14.305 14.246Zm0 0"></path></g><path fill="#fff" d="M696.955 405.691c0 .305-.062.59-.187.86a1.87 1.87 0 0 1-.532.687c-.468.399-1.074.594-1.812.594a3.317 3.317 0 0 1-1.547-.36c-.46-.238-.797-.55-1.016-.937l.907-.469c.132.243.347.43.64.563.301.137.64.203 1.016.203.988 0 1.484-.379 1.484-1.14a.753.753 0 0 0-.078-.36 1.262 1.262 0 0 0-.219-.297c-.25-.195-.695-.379-1.328-.547a6.296 6.296 0 0 1-.968-.312 2.438 2.438 0 0 1-.657-.406c-.43-.352-.64-.817-.64-1.391 0-.281.05-.547.156-.797.113-.25.273-.46.484-.64.207-.188.453-.329.735-.422.28-.094.593-.141.937-.141.5 0 .957.102 1.375.297.414.187.735.453.953.797l-.828.515a1.625 1.625 0 0 0-.687-.5 2.226 2.226 0 0 0-.813-.156c-.21 0-.398.04-.562.11-.168.062-.309.14-.422.234a.646.646 0 0 0-.219.312 1.08 1.08 0 0 0-.062.375c0 .094.007.188.03.282.032.086.098.18.204.28.101.095.254.188.453.282.195.094.461.184.797.266.414.105.758.218 1.031.343.281.118.516.258.703.422.446.368.672.852.672 1.453Zm2.139 2.032h-1v-4.89h.984Zm-.5-5.953a.613.613 0 0 1-.453-.188.613.613 0 0 1-.188-.453c0-.176.063-.32.188-.438a.613.613 0 0 1 .453-.187c.176 0 .32.062.438.187a.573.573 0 0 1 .187.438c0 .18-.062.328-.187.453a.573.573 0 0 1-.438.188Zm2.581 5.953h-1v-4.89h.797l.203.437c.156-.157.348-.286.578-.391a1.93 1.93 0 0 1 .766-.156c.176 0 .375.027.593.078.227.055.438.156.625.312.196.149.364.356.5.625.133.262.204.606.204 1.032v2.953h-.954v-2.969a1.36 1.36 0 0 0-.093-.531.996.996 0 0 0-.61-.547 1.488 1.488 0 0 0-.406-.063 1.29 1.29 0 0 0-.781.266 1.229 1.229 0 0 0-.297.36.923.923 0 0 0-.125.5Zm9.107-4.891v4.89h-.844l-.14-.562c-.18.23-.403.403-.672.516a1.992 1.992 0 0 1-.797.172c-.336 0-.653-.07-.953-.203a2.59 2.59 0 0 1-.782-.547 2.5 2.5 0 0 1-.515-.813 2.662 2.662 0 0 1-.188-1c0-.351.063-.687.188-1a2.53 2.53 0 0 1 .515-.812 2.34 2.34 0 0 1 .782-.547c.3-.133.617-.203.953-.203.27 0 .53.054.78.156.259.105.49.273.688.5l.141-.547Zm-2.453 4.14c.195 0 .383-.038.562-.124.176-.094.328-.219.453-.375.133-.157.239-.332.313-.532.07-.207.11-.425.11-.656 0-.226-.04-.441-.11-.64a1.752 1.752 0 0 0-.313-.547 1.303 1.303 0 0 0-.453-.36 1.2 1.2 0 0 0-1.125 0 1.26 1.26 0 0 0-.453.36c-.125.156-.23.34-.312.547-.075.199-.11.414-.11.64 0 .23.035.45.11.656.082.2.187.375.312.532.125.156.274.281.453.375.176.086.363.125.563.125Zm4.285.751h-.781v-7.453h.984v3.093c.187-.195.406-.351.656-.468.25-.114.54-.172.875-.172.344 0 .66.07.953.203.29.125.54.308.75.547.207.23.368.5.485.812.125.313.187.649.187 1 0 .356-.062.688-.187 1a2.483 2.483 0 0 1-.485.813 2.28 2.28 0 0 1-1.703.75c-.312 0-.601-.059-.86-.172a2.217 2.217 0 0 1-.671-.469Zm1.656-4.11c-.2 0-.387.032-.562.094a1.23 1.23 0 0 0-.47.297 1.265 1.265 0 0 0-.296.516c-.074.21-.11.464-.11.765 0 .281.036.531.11.75.07.211.172.387.297.531.133.137.289.243.469.313.175.062.363.094.562.094.195 0 .383-.04.563-.125.175-.094.328-.219.453-.375.133-.157.238-.332.312-.532.07-.207.11-.425.11-.656 0-.226-.04-.441-.11-.64a1.593 1.593 0 0 0-.312-.532 1.303 1.303 0 0 0-.453-.359 1.2 1.2 0 0 0-.563-.14Zm7.177 4.11h-.984v-7.453h.984v4.578l1.922-2.016h1.219l-1.875 1.969 2.016 2.922h-1.11l-1.547-2.25-.625.656Zm6.213.125c-.344 0-.668-.07-.969-.203a2.43 2.43 0 0 1-.765-.547 2.662 2.662 0 0 1-.531-.813 2.662 2.662 0 0 1-.188-1c0-.351.063-.687.188-1a2.71 2.71 0 0 1 .53-.812c.22-.239.474-.422.766-.547.301-.133.625-.203.97-.203.331 0 .644.07.937.203.3.125.562.308.781.547.227.23.406.5.531.812.125.313.188.649.188 1 0 .356-.063.688-.188 1a2.404 2.404 0 0 1-.531.813 2.41 2.41 0 0 1-.781.547 2.247 2.247 0 0 1-.938.203Zm0-4.235c-.199 0-.386.047-.562.141-.18.086-.336.203-.469.36a1.472 1.472 0 0 0-.313.53c-.074.2-.109.415-.109.641 0 .23.035.45.11.656.07.2.175.375.312.532.133.156.289.281.469.375.176.086.363.125.562.125.196 0 .383-.04.563-.125.176-.094.328-.219.453-.375.125-.157.223-.332.297-.532.082-.207.125-.425.125-.656a1.67 1.67 0 0 0-.125-.64 1.705 1.705 0 0 0-.297-.532 1.303 1.303 0 0 0-.453-.359 1.2 1.2 0 0 0-.563-.14Zm4.358-.609h-.797l-.125-2.516h1.125Zm4.482.734-.14-.062c-.043-.008-.09-.02-.141-.031a.497.497 0 0 0-.172-.032c-.2 0-.387.04-.562.11a1.341 1.341 0 0 0-.438.265c-.117.106-.21.23-.281.375a1.04 1.04 0 0 0-.11.47l-.015 2.89h-.984v-4.89h.78l.204.546a1.47 1.47 0 0 1 .531-.469c.227-.125.508-.187.844-.187.219 0 .469.031.75.093Zm1.952 3.985h-1v-4.89h.985Zm-.5-5.953a.613.613 0 0 1-.453-.188.613.613 0 0 1-.187-.453c0-.176.062-.32.187-.438a.613.613 0 0 1 .453-.187c.176 0 .32.062.438.187a.573.573 0 0 1 .187.438c0 .18-.062.328-.187.453a.573.573 0 0 1-.438.188Zm3.878 4.937c.063-.062.113-.125.156-.187a.393.393 0 0 0 .079-.235.365.365 0 0 0-.125-.281 1.102 1.102 0 0 0-.282-.188 1.362 1.362 0 0 0-.343-.109c-.125-.031-.23-.055-.313-.078a4.867 4.867 0 0 1-.625-.188c-.2-.082-.371-.18-.516-.296a1.478 1.478 0 0 1-.359-.391 1.109 1.109 0 0 1-.125-.547 1.2 1.2 0 0 1 .14-.562c.102-.176.235-.329.391-.454.157-.132.344-.238.563-.312.219-.082.441-.125.672-.125a1.9 1.9 0 0 1 .609.094c.188.062.36.148.516.25.156.105.285.234.39.39.102.149.172.309.203.485l-.89.218a.752.752 0 0 0-.266-.406c-.137-.113-.324-.172-.562-.172a.796.796 0 0 0-.25.047.937.937 0 0 0-.25.11.606.606 0 0 0-.188.171.34.34 0 0 0-.078.235c0 .094.031.18.094.25a.856.856 0 0 0 .203.156 1.8 1.8 0 0 0 .266.11c.101.03.19.058.265.078.363.086.664.18.906.28.239.106.426.22.563.345a.925.925 0 0 1 .297.39c.062.149.094.313.094.5 0 .219-.055.422-.157.61a1.54 1.54 0 0 1-.406.5 1.972 1.972 0 0 1-.61.328c-.242.07-.5.11-.78.11-.43 0-.81-.106-1.141-.313a1.534 1.534 0 0 1-.656-.829l.828-.375c.113.243.254.403.422.485.175.086.367.125.578.125.28 0 .507-.07.687-.219Zm3.108 1.016h-.984v-7.453h.984v3.015a1.7 1.7 0 0 1 .578-.437 1.81 1.81 0 0 1 .703-.125c.332 0 .633.07.906.203.27.125.5.308.688.547.187.23.328.5.422.812.101.313.156.649.156 1v2.438h-1v-2.438c0-.226-.031-.441-.094-.64a1.653 1.653 0 0 0-.265-.532 1.348 1.348 0 0 0-.39-.359.864.864 0 0 0-.47-.14c-.148 0-.293.03-.437.093a1.35 1.35 0 0 0-.39.281 1.532 1.532 0 0 0-.298.516c-.074.21-.11.465-.11.766Zm0 0"></path></svg>