<svg width="260" height="171" viewBox="0 0 260 171" fill="none" xmlns="http://www.w3.org/2000/svg">
<rect width="260" height="171" fill="#F5F5F5"/>
<rect width="260" height="171" fill="#D9EEE1"/>
<path d="M14.2958 70.1392V66.5455H39.3867V70.1392H28.8668V100H24.8157V70.1392H14.2958ZM44.7243 109.409C44.0708 109.409 43.4882 109.355 42.9764 109.246C42.4645 109.148 42.1106 109.05 41.9146 108.952L42.8947 105.554C43.8313 105.794 44.6589 105.881 45.3777 105.815C46.0964 105.75 46.7335 105.429 47.2889 104.852C47.8552 104.285 48.3725 103.365 48.8407 102.091L49.5595 100.131L40.2811 74.9091H44.4629L51.389 94.9034H51.6504L58.5765 74.9091H62.7583L52.1078 103.659C51.6286 104.955 51.0351 106.028 50.3272 106.877C49.6194 107.737 48.7972 108.375 47.8606 108.788C46.935 109.202 45.8895 109.409 44.7243 109.409ZM67.8468 109.409V74.9091H71.5712V78.8949H72.0286C72.3117 78.4593 72.7038 77.9039 73.2047 77.2287C73.7166 76.5426 74.4462 75.9328 75.3936 75.3991C76.352 74.8546 77.6479 74.5824 79.2814 74.5824C81.3941 74.5824 83.2563 75.1106 84.8681 76.1669C86.4798 77.2232 87.7376 78.7206 88.6415 80.6591C89.5454 82.5975 89.9973 84.8845 89.9973 87.5199C89.9973 90.1771 89.5454 92.4804 88.6415 94.4297C87.7376 96.3681 86.4853 97.871 84.8844 98.9382C83.2836 99.9946 81.4377 100.523 79.3468 100.523C77.735 100.523 76.4445 100.256 75.4753 99.7223C74.5061 99.1778 73.7601 98.5625 73.2374 97.8764C72.7147 97.1795 72.3117 96.6023 72.0286 96.1449H71.7019V109.409H67.8468ZM71.6365 87.4545C71.6365 89.3494 71.9142 91.0211 72.4696 92.4695C73.025 93.907 73.8364 95.0341 74.9036 95.8509C75.9708 96.6567 77.2776 97.0597 78.824 97.0597C80.4358 97.0597 81.7807 96.6349 82.8588 95.7855C83.9479 94.9252 84.7646 93.7708 85.3091 92.3224C85.8645 90.8632 86.1422 89.2405 86.1422 87.4545C86.1422 85.6903 85.87 84.1004 85.3255 82.6847C84.7918 81.258 83.9805 80.1309 82.8915 79.3033C81.8134 78.4647 80.4576 78.0455 78.824 78.0455C77.2559 78.0455 75.9382 78.4429 74.8709 79.2379C73.8037 80.022 72.9978 81.1219 72.4533 82.5376C71.9088 83.9425 71.6365 85.5814 71.6365 87.4545ZM106.398 100.523C103.98 100.523 101.895 99.9891 100.142 98.9219C98.3991 97.8438 97.0542 96.3409 96.1067 94.4134C95.1702 92.4749 94.7019 90.2206 94.7019 87.6506C94.7019 85.0805 95.1702 82.8153 96.1067 80.8551C97.0542 78.884 98.3719 77.3485 100.06 76.2486C101.759 75.1378 103.741 74.5824 106.006 74.5824C107.313 74.5824 108.603 74.8002 109.877 75.2358C111.151 75.6714 112.311 76.3793 113.357 77.3594C114.402 78.3286 115.235 79.6136 115.856 81.2145C116.477 82.8153 116.787 84.7865 116.787 87.1278V88.7614H97.4462V85.429H112.867C112.867 84.0133 112.584 82.75 112.017 81.6392C111.462 80.5284 110.667 79.6518 109.632 79.0092C108.609 78.3667 107.4 78.0455 106.006 78.0455C104.47 78.0455 103.142 78.4266 102.02 79.1889C100.909 79.9403 100.054 80.9205 99.4554 82.1293C98.8565 83.3381 98.557 84.634 98.557 86.017V88.2386C98.557 90.1335 98.8837 91.7398 99.5371 93.0575C100.201 94.3643 101.122 95.3608 102.298 96.0469C103.474 96.7221 104.841 97.0597 106.398 97.0597C107.411 97.0597 108.325 96.9181 109.142 96.6349C109.97 96.3409 110.683 95.9053 111.282 95.3281C111.881 94.7401 112.344 94.0104 112.671 93.1392L116.395 94.1847C116.003 95.4479 115.344 96.5587 114.419 97.517C113.493 98.4645 112.349 99.205 110.988 99.7386C109.627 100.261 108.097 100.523 106.398 100.523ZM141.47 74.9091C141.274 73.2538 140.479 71.9688 139.085 71.054C137.691 70.1392 135.981 69.6818 133.955 69.6818C132.474 69.6818 131.178 69.9214 130.068 70.4006C128.968 70.8797 128.107 71.5386 127.487 72.3771C126.877 73.2157 126.572 74.1686 126.572 75.2358C126.572 76.1288 126.784 76.8965 127.209 77.5391C127.645 78.1707 128.2 78.6989 128.875 79.1236C129.55 79.5374 130.258 79.8804 130.999 80.1527C131.739 80.4141 132.42 80.6264 133.041 80.7898L136.438 81.7045C137.31 81.9332 138.279 82.2491 139.346 82.652C140.424 83.0549 141.453 83.6049 142.433 84.3018C143.424 84.9879 144.241 85.87 144.884 86.9482C145.526 88.0263 145.847 89.3494 145.847 90.9176C145.847 92.7254 145.374 94.3589 144.426 95.8182C143.49 97.2775 142.118 98.4373 140.31 99.2976C138.513 100.158 136.329 100.588 133.759 100.588C131.364 100.588 129.289 100.201 127.536 99.4283C125.793 98.6551 124.421 97.5769 123.419 96.1939C122.428 94.8108 121.867 93.2045 121.737 91.375H125.919C126.027 92.6383 126.452 93.6837 127.193 94.5114C127.944 95.3281 128.892 95.938 130.035 96.3409C131.189 96.733 132.431 96.929 133.759 96.929C135.306 96.929 136.694 96.6785 137.925 96.1776C139.155 95.6657 140.13 94.9579 140.849 94.054C141.568 93.1392 141.927 92.072 141.927 90.8523C141.927 89.7415 141.617 88.8376 140.996 88.1406C140.375 87.4437 139.558 86.8774 138.546 86.4418C137.533 86.0062 136.438 85.625 135.262 85.2983L131.146 84.1222C128.532 83.3707 126.463 82.2981 124.938 80.9041C123.414 79.5102 122.651 77.6861 122.651 75.4318C122.651 73.5587 123.158 71.9252 124.171 70.5312C125.194 69.1264 126.566 68.0374 128.287 67.2642C130.019 66.4801 131.952 66.0881 134.086 66.0881C136.242 66.0881 138.159 66.4747 139.836 67.2479C141.513 68.0102 142.842 69.0556 143.822 70.3842C144.813 71.7128 145.336 73.2211 145.39 74.9091H141.47ZM162.179 100.523C159.826 100.523 157.801 99.9673 156.102 98.8565C154.403 97.7457 153.096 96.2157 152.181 94.2663C151.267 92.317 150.809 90.09 150.809 87.5852C150.809 85.0369 151.278 82.7881 152.214 80.8388C153.162 78.8786 154.479 77.3485 156.167 76.2486C157.866 75.1378 159.848 74.5824 162.113 74.5824C163.877 74.5824 165.467 74.9091 166.883 75.5625C168.299 76.2159 169.459 77.1307 170.363 78.3068C171.266 79.483 171.827 80.8551 172.045 82.4233H168.19C167.896 81.2798 167.243 80.267 166.23 79.3849C165.228 78.4919 163.877 78.0455 162.179 78.0455C160.676 78.0455 159.358 78.4375 158.225 79.2216C157.104 79.9948 156.227 81.0893 155.596 82.505C154.975 83.9098 154.664 85.5597 154.664 87.4545C154.664 89.393 154.969 91.081 155.579 92.5185C156.2 93.956 157.071 95.0722 158.193 95.8672C159.325 96.6622 160.654 97.0597 162.179 97.0597C163.181 97.0597 164.09 96.8854 164.907 96.5369C165.723 96.1884 166.415 95.6875 166.981 95.0341C167.547 94.3807 167.95 93.5966 168.19 92.6818H172.045C171.827 94.1629 171.288 95.4969 170.428 96.6839C169.578 97.8601 168.451 98.7966 167.047 99.4936C165.653 100.18 164.03 100.523 162.179 100.523ZM177.681 100V74.9091H181.405V78.6989H181.667C182.124 77.4574 182.952 76.45 184.15 75.6768C185.347 74.9036 186.698 74.517 188.201 74.517C188.484 74.517 188.838 74.5225 189.262 74.5334C189.687 74.5443 190.008 74.5606 190.226 74.5824V78.5028C190.096 78.4702 189.796 78.4212 189.328 78.3558C188.87 78.2796 188.386 78.2415 187.874 78.2415C186.654 78.2415 185.565 78.4974 184.607 79.0092C183.659 79.5102 182.908 80.2071 182.353 81.1001C181.808 81.9822 181.536 82.9896 181.536 84.1222V100H177.681ZM194.796 100V74.9091H198.651V100H194.796ZM196.756 70.7273C196.005 70.7273 195.357 70.4714 194.812 69.9595C194.279 69.4477 194.012 68.8324 194.012 68.1136C194.012 67.3949 194.279 66.7796 194.812 66.2678C195.357 65.7559 196.005 65.5 196.756 65.5C197.508 65.5 198.15 65.7559 198.684 66.2678C199.228 66.7796 199.501 67.3949 199.501 68.1136C199.501 68.8324 199.228 69.4477 198.684 69.9595C198.15 70.4714 197.508 70.7273 196.756 70.7273ZM205.712 109.409V74.9091H209.436V78.8949H209.894C210.177 78.4593 210.569 77.9039 211.07 77.2287C211.582 76.5426 212.311 75.9328 213.259 75.3991C214.217 74.8546 215.513 74.5824 217.147 74.5824C219.259 74.5824 221.122 75.1106 222.733 76.1669C224.345 77.2232 225.603 78.7206 226.507 80.6591C227.411 82.5975 227.863 84.8845 227.863 87.5199C227.863 90.1771 227.411 92.4804 226.507 94.4297C225.603 96.3681 224.35 97.871 222.75 98.9382C221.149 99.9946 219.303 100.523 217.212 100.523C215.6 100.523 214.31 100.256 213.341 99.7223C212.371 99.1778 211.625 98.5625 211.103 97.8764C210.58 97.1795 210.177 96.6023 209.894 96.1449H209.567V109.409H205.712ZM209.502 87.4545C209.502 89.3494 209.779 91.0211 210.335 92.4695C210.89 93.907 211.702 95.0341 212.769 95.8509C213.836 96.6567 215.143 97.0597 216.689 97.0597C218.301 97.0597 219.646 96.6349 220.724 95.7855C221.813 94.9252 222.63 93.7708 223.174 92.3224C223.73 90.8632 224.007 89.2405 224.007 87.4545C224.007 85.6903 223.735 84.1004 223.191 82.6847C222.657 81.258 221.846 80.1309 220.757 79.3033C219.679 78.4647 218.323 78.0455 216.689 78.0455C215.121 78.0455 213.803 78.4429 212.736 79.2379C211.669 80.022 210.863 81.1219 210.319 82.5376C209.774 83.9425 209.502 85.5814 209.502 87.4545ZM244.655 74.9091V78.1761H231.652V74.9091H244.655ZM235.442 68.8977H239.297V92.8125C239.297 93.9015 239.455 94.7183 239.771 95.2628C240.098 95.7964 240.511 96.1558 241.012 96.3409C241.524 96.5152 242.063 96.6023 242.63 96.6023C243.054 96.6023 243.403 96.5805 243.675 96.5369C243.947 96.4825 244.165 96.4389 244.328 96.4062L245.113 99.8693C244.851 99.9673 244.486 100.065 244.018 100.163C243.55 100.272 242.956 100.327 242.238 100.327C241.149 100.327 240.081 100.093 239.036 99.6243C238.001 99.156 237.141 98.4427 236.455 97.4844C235.78 96.526 235.442 95.3172 235.442 93.858V68.8977Z" fill="black"/>
</svg>
