<svg width="180" height="180" viewBox="0 0 180 180" fill="none" xmlns="http://www.w3.org/2000/svg">
<rect width="180" height="180" fill="#F5F5F5"/>
<rect width="180" height="180" fill="white"/>
<path d="M130.904 75.732C130.904 75.732 133.904 78.962 138.129 78.962C141.444 78.962 143.866 76.9475 143.866 74.2105C143.866 70.8105 140.772 69.272 137.066 69.272H134.865L133.564 66.314L139.395 59.4035C140.113 58.5526 140.879 57.7437 141.69 56.981C141.69 56.981 140.747 56.981 138.86 56.981H129.331V52H148.805V55.638L140.993 64.6565C145.396 65.2855 149.697 68.422 149.697 73.9385C149.697 79.455 145.575 84.3935 138.486 84.3935C136.534 84.4181 134.596 84.0551 132.785 83.3255C130.975 82.596 129.327 81.5144 127.937 80.1435L130.904 75.732Z" fill="#04AA6B"/>
<path d="M92.9595 82.4718L118.664 128.253L131.362 105.634L107.07 62.4033H78.8155L67.1025 83.2538L55.398 62.4033H30L66.975 128.244L67.1025 128.006L67.2385 128.244L92.9595 82.4718Z" fill="#04AA6B"/>
</svg>
