<svg width="1398" height="756" viewBox="0 0 1398 756" fill="none" xmlns="http://www.w3.org/2000/svg">
<rect width="1398" height="756" fill="#F5F5F5"/>
<rect width="1398" height="756" fill="white"/>
<path d="M813.316 333.724C813.316 333.724 821.727 343.894 833.57 343.894C842.863 343.894 849.654 337.551 849.654 328.933C849.654 318.228 840.98 313.384 830.591 313.384H824.42L820.774 304.07L837.12 282.311C839.133 279.632 841.281 277.085 843.554 274.684C843.554 274.684 840.909 274.684 835.619 274.684H808.908V259H863.498V270.455L841.6 298.851C853.943 300.832 866 310.707 866 328.077C866 345.447 854.443 360.996 834.571 360.996C829.099 361.074 823.667 359.931 818.591 357.634C813.516 355.337 808.896 351.931 805 347.614L813.316 333.724Z" fill="#04AA6B"/>
<path d="M708.159 354.781L779.67 498L815 427.242L747.415 292H668.809L636.223 357.228L603.66 292H533L635.868 497.973L636.223 497.229L636.601 497.973L708.159 354.781Z" fill="#04AA6B"/>
</svg>
