<svg width="260" height="171" viewBox="0 0 260 171" fill="none" xmlns="http://www.w3.org/2000/svg">
<rect width="260" height="171" fill="#F5F5F5"/>
<rect width="260" height="171" fill="#96D4D4"/>
<path d="M87.3551 66.5455L95.9801 80.4631H96.2415L104.866 66.5455H109.636L99.1165 83.2727L109.636 100H104.866L96.2415 86.3438H95.9801L87.3551 100H82.5852L93.3665 83.2727L82.5852 66.5455H87.3551ZM114.909 66.5455H119.744L131.113 94.3153H131.505L142.874 66.5455H147.71V100H143.92V74.5824H143.593L133.139 100H129.48L119.025 74.5824H118.698V100H114.909V66.5455ZM155.832 100V66.5455H159.884V96.4062H175.435V100H155.832Z" fill="black"/>
</svg>
