<svg width="260" height="171" viewBox="0 0 260 171" fill="none" xmlns="http://www.w3.org/2000/svg">
<rect width="260" height="171" fill="#F5F5F5"/>
<rect width="260" height="171" fill="#F3ECEA"/>
<path d="M22.5553 66.5455L31.1803 80.4631H31.4417L40.0667 66.5455H44.8366L34.3167 83.2727L44.8366 100H40.0667L31.4417 86.3438H31.1803L22.5553 100H17.7854L28.5667 83.2727L17.7854 66.5455H22.5553ZM50.1088 66.5455H54.944L66.3133 94.3153H66.7053L78.0747 66.5455H82.9099V100H79.1201V74.5824H78.7934L68.3389 100H64.6798L54.2252 74.5824H53.8985V100H50.1088V66.5455ZM91.0326 100V66.5455H95.0837V96.4062H110.635V100H91.0326ZM131.217 100H126.97L139.254 66.5455H143.436L155.72 100H151.473L141.476 71.8381H141.214L131.217 100ZM132.785 86.9318H149.905V90.5256H132.785V86.9318ZM173.738 66.5455H177.789V90.4602C177.789 92.5947 177.397 94.4079 176.613 95.8999C175.829 97.3918 174.723 98.5244 173.297 99.2976C171.87 100.071 170.188 100.457 168.249 100.457C166.42 100.457 164.792 100.125 163.365 99.4609C161.938 98.7857 160.817 97.8274 160 96.5859C159.183 95.3445 158.775 93.8688 158.775 92.1591H162.761C162.761 93.1065 162.995 93.9342 163.463 94.642C163.942 95.339 164.596 95.8835 165.423 96.2756C166.251 96.6676 167.193 96.8636 168.249 96.8636C169.414 96.8636 170.405 96.6186 171.222 96.1286C172.039 95.6385 172.66 94.9197 173.084 93.9723C173.52 93.014 173.738 91.8433 173.738 90.4602V66.5455ZM187.28 100H183.033L195.317 66.5455H199.498L211.783 100H207.535L197.538 71.8381H197.277L187.28 100ZM188.848 86.9318H205.967V90.5256H188.848V86.9318ZM218.954 66.5455L227.579 80.4631H227.84L236.465 66.5455H241.235L230.715 83.2727L241.235 100H236.465L227.84 86.3438H227.579L218.954 100H214.184L224.965 83.2727L214.184 66.5455H218.954Z" fill="black"/>
</svg>
