<svg width="260" height="171" viewBox="0 0 260 171" fill="none" xmlns="http://www.w3.org/2000/svg">
<rect width="260" height="171" fill="#F5F5F5"/>
<rect width="260" height="171" fill="#F3ECEA"/>
<path d="M33.7633 66.5455L42.3883 80.4631H42.6497L51.2747 66.5455H56.0446L45.5247 83.2727L56.0446 100H51.2747L42.6497 86.3438H42.3883L33.7633 100H28.9934L39.7747 83.2727L28.9934 66.5455H33.7633ZM61.3168 66.5455H66.152L77.5213 94.3153H77.9134L89.2827 66.5455H94.1179V100H90.3281V74.5824H90.0014L79.5469 100H75.8878L65.4332 74.5824H65.1065V100H61.3168V66.5455ZM102.241 100V66.5455H106.292V96.4062H121.843V100H102.241ZM151.377 100H141.053V66.5455H151.834C155.08 66.5455 157.857 67.2152 160.165 68.5547C162.474 69.8833 164.244 71.7945 165.474 74.2884C166.705 76.7713 167.32 79.7443 167.32 83.2074C167.32 86.6922 166.699 89.6925 165.458 92.2081C164.216 94.7128 162.409 96.6404 160.035 97.9908C157.661 99.3303 154.775 100 151.377 100ZM145.104 96.4062H151.116C153.882 96.4062 156.174 95.8726 157.993 94.8054C159.811 93.7382 161.167 92.219 162.06 90.2479C162.953 88.2768 163.4 85.9299 163.4 83.2074C163.4 80.5066 162.959 78.1816 162.077 76.2322C161.194 74.272 159.877 72.7692 158.123 71.7237C156.37 70.6674 154.187 70.1392 151.573 70.1392H145.104V96.4062ZM170.893 70.1392V66.5455H195.984V70.1392H185.464V100H181.413V70.1392H170.893ZM212.561 100H202.237V66.5455H213.018C216.263 66.5455 219.04 67.2152 221.349 68.5547C223.658 69.8833 225.427 71.7945 226.658 74.2884C227.888 76.7713 228.504 79.7443 228.504 83.2074C228.504 86.6922 227.883 89.6925 226.642 92.2081C225.4 94.7128 223.592 96.6404 221.218 97.9908C218.844 99.3303 215.958 100 212.561 100ZM206.288 96.4062H212.299C215.065 96.4062 217.358 95.8726 219.176 94.8054C220.995 93.7382 222.351 92.219 223.244 90.2479C224.137 88.2768 224.583 85.9299 224.583 83.2074C224.583 80.5066 224.142 78.1816 223.26 76.2322C222.378 74.272 221.06 72.7692 219.307 71.7237C217.554 70.6674 215.37 70.1392 212.757 70.1392H206.288V96.4062Z" fill="black"/>
</svg>
