<svg width="260" height="171" viewBox="0 0 260 171" fill="none" xmlns="http://www.w3.org/2000/svg">
<rect width="260" height="171" fill="#F5F5F5"/>
<rect width="260" height="171" fill="#FFC0C7"/>
<path d="M26.3737 66.5455L34.9987 80.4631H35.26L43.885 66.5455H48.6549L38.135 83.2727L48.6549 100H43.885L35.26 86.3438H34.9987L26.3737 100H21.6038L32.385 83.2727L21.6038 66.5455H26.3737ZM53.9271 66.5455H58.7623L70.1317 94.3153H70.5237L81.893 66.5455H86.7282V100H82.9385V74.5824H82.6118L72.1572 100H68.4981L58.0436 74.5824H57.7169V100H53.9271V66.5455ZM94.8509 100V66.5455H98.9021V96.4062H114.453V100H94.8509ZM143.987 100H133.663V66.5455H144.445C147.69 66.5455 150.467 67.2152 152.776 68.5547C155.084 69.8833 156.854 71.7945 158.085 74.2884C159.315 76.7713 159.93 79.7443 159.93 83.2074C159.93 86.6922 159.31 89.6925 158.068 92.2081C156.827 94.7128 155.019 96.6404 152.645 97.9908C150.271 99.3303 147.385 100 143.987 100ZM137.715 96.4062H143.726C146.492 96.4062 148.784 95.8726 150.603 94.8054C152.422 93.7382 153.778 92.219 154.671 90.2479C155.564 88.2768 156.01 85.9299 156.01 83.2074C156.01 80.5066 155.569 78.1816 154.687 76.2322C153.805 74.272 152.487 72.7692 150.734 71.7237C148.98 70.6674 146.797 70.1392 144.183 70.1392H137.715V96.4062ZM194.953 83.2727C194.953 86.8011 194.316 89.8504 193.042 92.4205C191.768 94.9905 190.02 96.9725 187.798 98.3665C185.577 99.7604 183.039 100.457 180.186 100.457C177.333 100.457 174.796 99.7604 172.574 98.3665C170.352 96.9725 168.604 94.9905 167.33 92.4205C166.056 89.8504 165.419 86.8011 165.419 83.2727C165.419 79.7443 166.056 76.6951 167.33 74.125C168.604 71.5549 170.352 69.5729 172.574 68.179C174.796 66.785 177.333 66.0881 180.186 66.0881C183.039 66.0881 185.577 66.785 187.798 68.179C190.02 69.5729 191.768 71.5549 193.042 74.125C194.316 76.6951 194.953 79.7443 194.953 83.2727ZM191.033 83.2727C191.033 80.3759 190.548 77.9311 189.579 75.9382C188.621 73.9453 187.319 72.437 185.675 71.4134C184.041 70.3897 182.212 69.8778 180.186 69.8778C178.161 69.8778 176.326 70.3897 174.681 71.4134C173.048 72.437 171.746 73.9453 170.777 75.9382C169.819 77.9311 169.34 80.3759 169.34 83.2727C169.34 86.1695 169.819 88.6143 170.777 90.6072C171.746 92.6001 173.048 94.1084 174.681 95.1321C176.326 96.1558 178.161 96.6676 180.186 96.6676C182.212 96.6676 184.041 96.1558 185.675 95.1321C187.319 94.1084 188.621 92.6001 189.579 90.6072C190.548 88.6143 191.033 86.1695 191.033 83.2727ZM201.765 66.5455H206.6L217.97 94.3153H218.362L229.731 66.5455H234.566V100H230.776V74.5824H230.45L219.995 100H216.336L205.881 74.5824H205.555V100H201.765V66.5455Z" fill="black"/>
</svg>
