<svg width="260" height="171" viewBox="0 0 260 171" fill="none" xmlns="http://www.w3.org/2000/svg">
<rect width="260" height="171" fill="#F5F5F5"/>
<rect width="260" height="171" fill="#D9EEE1"/>
<path d="M94.3551 44.5455L102.98 58.4631H103.241L111.866 44.5455H116.636L106.116 61.2727L116.636 78H111.866L103.241 64.3438H102.98L94.3551 78H89.5852L100.366 61.2727L89.5852 44.5455H94.3551ZM121.909 44.5455H126.744L138.113 72.3153H138.505L149.874 44.5455H154.71V78H150.92V52.5824H150.593L140.139 78H136.48L126.025 52.5824H125.698V78H121.909V44.5455ZM162.832 78V44.5455H166.884V74.4062H182.435V78H162.832ZM71.4062 108.909C71.2101 107.254 70.4152 105.969 69.0212 105.054C67.6273 104.139 65.9175 103.682 63.892 103.682C62.4109 103.682 61.115 103.921 60.0042 104.401C58.9043 104.88 58.0439 105.539 57.4232 106.377C56.8134 107.216 56.5084 108.169 56.5084 109.236C56.5084 110.129 56.7208 110.897 57.1455 111.539C57.5811 112.171 58.1365 112.699 58.8117 113.124C59.4869 113.537 60.1948 113.88 60.9353 114.153C61.6758 114.414 62.3564 114.626 62.9772 114.79L66.3749 115.705C67.2461 115.933 68.2153 116.249 69.2826 116.652C70.3607 117.055 71.3898 117.605 72.3699 118.302C73.3609 118.988 74.1777 119.87 74.8202 120.948C75.4627 122.026 75.784 123.349 75.784 124.918C75.784 126.725 75.3103 128.359 74.3628 129.818C73.4263 131.277 72.0541 132.437 70.2464 133.298C68.4495 134.158 66.266 134.588 63.6959 134.588C61.3001 134.588 59.2255 134.201 57.4722 133.428C55.7298 132.655 54.3576 131.577 53.3557 130.194C52.3647 128.811 51.8039 127.205 51.6732 125.375H55.855C55.9639 126.638 56.3886 127.684 57.1292 128.511C57.8806 129.328 58.828 129.938 59.9715 130.341C61.1259 130.733 62.3673 130.929 63.6959 130.929C65.2423 130.929 66.6308 130.679 67.8614 130.178C69.092 129.666 70.0667 128.958 70.7854 128.054C71.5042 127.139 71.8635 126.072 71.8635 124.852C71.8635 123.741 71.5532 122.838 70.9324 122.141C70.3117 121.444 69.4949 120.877 68.4822 120.442C67.4694 120.006 66.3749 119.625 65.1988 119.298L61.0823 118.122C58.4687 117.371 56.3995 116.298 54.8749 114.904C53.3503 113.51 52.588 111.686 52.588 109.432C52.588 107.559 53.0944 105.925 54.1072 104.531C55.1308 103.126 56.503 102.037 58.2236 101.264C59.9552 100.48 61.8882 100.088 64.0226 100.088C66.1789 100.088 68.0956 100.475 69.7726 101.248C71.4497 102.01 72.7783 103.056 73.7584 104.384C74.7494 105.713 75.2722 107.221 75.3266 108.909H71.4062ZM92.1151 134.523C89.7629 134.523 87.7373 133.967 86.0384 132.857C84.3396 131.746 83.0328 130.216 82.118 128.266C81.2032 126.317 80.7458 124.09 80.7458 121.585C80.7458 119.037 81.2141 116.788 82.1507 114.839C83.0981 112.879 84.4158 111.348 86.1038 110.249C87.8026 109.138 89.7847 108.582 92.0498 108.582C93.814 108.582 95.404 108.909 96.8197 109.562C98.2354 110.216 99.3952 111.131 100.299 112.307C101.203 113.483 101.764 114.855 101.982 116.423H98.1265C97.8325 115.28 97.1791 114.267 96.1663 113.385C95.1644 112.492 93.814 112.045 92.1151 112.045C90.6123 112.045 89.2946 112.437 88.162 113.222C87.0403 113.995 86.1637 115.089 85.532 116.505C84.9113 117.91 84.6009 119.56 84.6009 121.455C84.6009 123.393 84.9059 125.081 85.5157 126.518C86.1365 127.956 87.0077 129.072 88.1294 129.867C89.2619 130.662 90.5905 131.06 92.1151 131.06C93.117 131.06 94.0264 130.885 94.8431 130.537C95.6599 130.188 96.3514 129.688 96.9177 129.034C97.484 128.381 97.8869 127.597 98.1265 126.682H101.982C101.764 128.163 101.225 129.497 100.364 130.684C99.515 131.86 98.3879 132.797 96.983 133.494C95.5891 134.18 93.9665 134.523 92.1151 134.523ZM111.472 118.906V134H107.617V100.545H111.472V112.83H111.799C112.387 111.534 113.269 110.504 114.445 109.742C115.632 108.969 117.211 108.582 119.183 108.582C120.892 108.582 122.39 108.925 123.675 109.612C124.96 110.287 125.956 111.327 126.664 112.732C127.383 114.125 127.742 115.901 127.742 118.057V134H123.887V118.318C123.887 116.325 123.37 114.784 122.335 113.695C121.312 112.595 119.89 112.045 118.072 112.045C116.809 112.045 115.676 112.312 114.674 112.846C113.683 113.379 112.899 114.158 112.322 115.182C111.756 116.205 111.472 117.447 111.472 118.906ZM145.315 134.523C142.897 134.523 140.812 133.989 139.059 132.922C137.316 131.844 135.971 130.341 135.024 128.413C134.087 126.475 133.619 124.221 133.619 121.651C133.619 119.08 134.087 116.815 135.024 114.855C135.971 112.884 137.289 111.348 138.977 110.249C140.676 109.138 142.658 108.582 144.923 108.582C146.23 108.582 147.52 108.8 148.794 109.236C150.068 109.671 151.228 110.379 152.274 111.359C153.319 112.329 154.152 113.614 154.773 115.214C155.394 116.815 155.704 118.786 155.704 121.128V122.761H136.363V119.429H151.784C151.784 118.013 151.501 116.75 150.934 115.639C150.379 114.528 149.584 113.652 148.549 113.009C147.526 112.367 146.317 112.045 144.923 112.045C143.387 112.045 142.059 112.427 140.937 113.189C139.826 113.94 138.971 114.92 138.372 116.129C137.773 117.338 137.474 118.634 137.474 120.017V122.239C137.474 124.134 137.801 125.74 138.454 127.058C139.118 128.364 140.039 129.361 141.215 130.047C142.391 130.722 143.758 131.06 145.315 131.06C146.328 131.06 147.242 130.918 148.059 130.635C148.887 130.341 149.6 129.905 150.199 129.328C150.798 128.74 151.261 128.01 151.588 127.139L155.312 128.185C154.92 129.448 154.261 130.559 153.335 131.517C152.41 132.464 151.266 133.205 149.905 133.739C148.544 134.261 147.014 134.523 145.315 134.523ZM161.568 134V108.909H165.293V112.83H165.62C166.142 111.49 166.986 110.45 168.152 109.71C169.317 108.958 170.716 108.582 172.35 108.582C174.005 108.582 175.383 108.958 176.483 109.71C177.593 110.45 178.459 111.49 179.08 112.83H179.341C179.984 111.534 180.947 110.504 182.233 109.742C183.518 108.969 185.059 108.582 186.855 108.582C189.099 108.582 190.934 109.285 192.36 110.69C193.787 112.084 194.5 114.256 194.5 117.207V134H190.645V117.207C190.645 115.356 190.139 114.033 189.126 113.238C188.113 112.443 186.921 112.045 185.549 112.045C183.784 112.045 182.418 112.579 181.448 113.646C180.479 114.703 179.995 116.042 179.995 117.665V134H176.074V116.815C176.074 115.389 175.611 114.24 174.686 113.369C173.76 112.487 172.568 112.045 171.108 112.045C170.106 112.045 169.17 112.312 168.299 112.846C167.438 113.379 166.741 114.12 166.208 115.067C165.685 116.004 165.424 117.088 165.424 118.318V134H161.568ZM208.932 134.588C207.342 134.588 205.9 134.289 204.604 133.69C203.308 133.08 202.279 132.203 201.516 131.06C200.754 129.905 200.373 128.511 200.373 126.878C200.373 125.44 200.656 124.275 201.222 123.382C201.789 122.478 202.545 121.77 203.493 121.259C204.44 120.747 205.486 120.366 206.629 120.115C207.784 119.854 208.943 119.647 210.109 119.494C211.633 119.298 212.869 119.151 213.817 119.053C214.775 118.944 215.472 118.765 215.908 118.514C216.354 118.264 216.577 117.828 216.577 117.207V117.077C216.577 115.465 216.136 114.213 215.254 113.32C214.383 112.427 213.06 111.98 211.285 111.98C209.444 111.98 208.001 112.383 206.956 113.189C205.91 113.995 205.175 114.855 204.751 115.77L201.092 114.463C201.745 112.938 202.616 111.751 203.705 110.902C204.805 110.042 206.003 109.443 207.299 109.105C208.606 108.757 209.891 108.582 211.154 108.582C211.96 108.582 212.886 108.68 213.931 108.876C214.987 109.062 216.006 109.448 216.986 110.036C217.977 110.624 218.799 111.512 219.452 112.699C220.106 113.886 220.432 115.476 220.432 117.469V134H216.577V130.602H216.381C216.12 131.147 215.684 131.729 215.074 132.35C214.465 132.971 213.653 133.499 212.641 133.935C211.628 134.37 210.392 134.588 208.932 134.588ZM209.521 131.125C211.045 131.125 212.33 130.826 213.376 130.227C214.432 129.628 215.227 128.854 215.761 127.907C216.305 126.96 216.577 125.963 216.577 124.918V121.389C216.414 121.585 216.055 121.765 215.499 121.928C214.955 122.081 214.323 122.217 213.604 122.337C212.896 122.446 212.205 122.544 211.53 122.631C210.865 122.707 210.326 122.772 209.913 122.827C208.911 122.957 207.974 123.17 207.103 123.464C206.243 123.747 205.546 124.177 205.012 124.754C204.489 125.321 204.228 126.094 204.228 127.074C204.228 128.413 204.723 129.426 205.714 130.112C206.716 130.787 207.985 131.125 209.521 131.125Z" fill="black"/>
</svg>
