<svg width="260" height="171" viewBox="0 0 260 171" fill="none" xmlns="http://www.w3.org/2000/svg">
<rect width="260" height="171" fill="#F5F5F5"/>
<rect width="260" height="171" fill="#96D4D4"/>
<path d="M77.9811 66.5455L86.6061 80.4631H86.8675L95.4925 66.5455H100.262L89.7425 83.2727L100.262 100H95.4925L86.8675 86.3438H86.6061L77.9811 100H73.2112L83.9925 83.2727L73.2112 66.5455H77.9811ZM105.535 100V66.5455H116.839C119.463 66.5455 121.608 67.0192 123.275 67.9666C124.952 68.9032 126.193 70.1719 126.999 71.7727C127.805 73.3736 128.208 75.1596 128.208 77.1307C128.208 79.1018 127.805 80.8932 126.999 82.505C126.204 84.1167 124.973 85.4018 123.307 86.3601C121.641 87.3075 119.507 87.7812 116.904 87.7812H108.802V84.1875H116.773C118.57 84.1875 120.013 83.8771 121.102 83.2564C122.191 82.6357 122.981 81.7971 123.471 80.7408C123.972 79.6735 124.222 78.4702 124.222 77.1307C124.222 75.7912 123.972 74.5933 123.471 73.5369C122.981 72.4806 122.186 71.6529 121.086 71.054C119.986 70.4441 118.526 70.1392 116.708 70.1392H109.586V100H105.535ZM141.595 100.588C140.005 100.588 138.562 100.289 137.266 99.6896C135.97 99.0798 134.941 98.2031 134.178 97.0597C133.416 95.9053 133.035 94.5114 133.035 92.8778C133.035 91.4403 133.318 90.2751 133.884 89.3821C134.451 88.4782 135.207 87.7704 136.155 87.2585C137.102 86.7467 138.148 86.3655 139.291 86.1151C140.446 85.8537 141.605 85.6468 142.771 85.4943C144.295 85.2983 145.531 85.1513 146.479 85.0533C147.437 84.9444 148.134 84.7647 148.57 84.5142C149.016 84.2637 149.239 83.8281 149.239 83.2074V83.0767C149.239 81.465 148.798 80.2126 147.916 79.3196C147.045 78.4266 145.722 77.9801 143.947 77.9801C142.106 77.9801 140.663 78.383 139.618 79.1889C138.573 79.9948 137.837 80.8551 137.413 81.7699L133.754 80.4631C134.407 78.9384 135.278 77.7514 136.367 76.902C137.467 76.0417 138.665 75.4427 139.961 75.1051C141.268 74.7566 142.553 74.5824 143.816 74.5824C144.622 74.5824 145.548 74.6804 146.593 74.8764C147.649 75.0616 148.668 75.4482 149.648 76.0362C150.639 76.6243 151.461 77.5118 152.114 78.6989C152.768 79.8859 153.095 81.4759 153.095 83.4688V100H149.239V96.6023H149.043C148.782 97.1468 148.346 97.7294 147.737 98.3501C147.127 98.9709 146.315 99.4991 145.303 99.9347C144.29 100.37 143.054 100.588 141.595 100.588ZM142.183 97.125C143.707 97.125 144.992 96.8255 146.038 96.2266C147.094 95.6276 147.889 94.8544 148.423 93.907C148.967 92.9595 149.239 91.9631 149.239 90.9176V87.3892C149.076 87.5852 148.717 87.7649 148.161 87.9283C147.617 88.0807 146.985 88.2169 146.266 88.3366C145.559 88.4455 144.867 88.5436 144.192 88.6307C143.528 88.7069 142.988 88.7723 142.575 88.8267C141.573 88.9574 140.636 89.1697 139.765 89.4638C138.905 89.7469 138.208 90.1771 137.674 90.7543C137.151 91.3205 136.89 92.0937 136.89 93.0739C136.89 94.4134 137.386 95.4261 138.377 96.1122C139.378 96.7874 140.647 97.125 142.183 97.125ZM171.043 74.9091V78.1761H158.04V74.9091H171.043ZM161.83 68.8977H165.685V92.8125C165.685 93.9015 165.843 94.7183 166.159 95.2628C166.485 95.7964 166.899 96.1558 167.4 96.3409C167.912 96.5152 168.451 96.6023 169.017 96.6023C169.442 96.6023 169.791 96.5805 170.063 96.5369C170.335 96.4825 170.553 96.4389 170.716 96.4062L171.5 99.8693C171.239 99.9673 170.874 100.065 170.406 100.163C169.938 100.272 169.344 100.327 168.625 100.327C167.536 100.327 166.469 100.093 165.424 99.6243C164.389 99.156 163.529 98.4427 162.843 97.4844C162.167 96.526 161.83 95.3172 161.83 93.858V68.8977ZM181.236 84.9062V100H177.381V66.5455H181.236V78.8295H181.563C182.151 77.5336 183.033 76.5045 184.209 75.7422C185.396 74.969 186.975 74.5824 188.946 74.5824C190.656 74.5824 192.153 74.9254 193.438 75.6115C194.724 76.2867 195.72 77.3267 196.428 78.7315C197.147 80.1255 197.506 81.9006 197.506 84.0568V100H193.651V84.3182C193.651 82.3253 193.134 80.7843 192.099 79.6953C191.075 78.5954 189.654 78.0455 187.835 78.0455C186.572 78.0455 185.44 78.3123 184.438 78.8459C183.447 79.3795 182.663 80.1581 182.085 81.1818C181.519 82.2055 181.236 83.447 181.236 84.9062Z" fill="black"/>
</svg>
