<svg width="260" height="171" viewBox="0 0 260 171" fill="none" xmlns="http://www.w3.org/2000/svg">
<rect width="260" height="171" fill="#F5F5F5"/>
<rect width="260" height="171" fill="#FFC0C7"/>
<path d="M62.0114 66.5455L70.6364 80.4631H70.8977L79.5227 66.5455H84.2926L73.7727 83.2727L84.2926 100H79.5227L70.8977 86.3438H70.6364L62.0114 100H57.2415L68.0227 83.2727L57.2415 66.5455H62.0114ZM101.179 89.5455H105.622L109.347 94.446L110.327 95.7528L115.881 103.136H111.438L107.779 98.2358L106.864 96.9943L101.179 89.5455ZM117.253 83.2727C117.253 86.8011 116.616 89.8504 115.342 92.4205C114.068 94.9905 112.32 96.9725 110.098 98.3665C107.877 99.7604 105.339 100.457 102.486 100.457C99.6328 100.457 97.0953 99.7604 94.8738 98.3665C92.6522 96.9725 90.9043 94.9905 89.6301 92.4205C88.356 89.8504 87.7189 86.8011 87.7189 83.2727C87.7189 79.7443 88.356 76.6951 89.6301 74.125C90.9043 71.5549 92.6522 69.5729 94.8738 68.179C97.0953 66.785 99.6328 66.0881 102.486 66.0881C105.339 66.0881 107.877 66.785 110.098 68.179C112.32 69.5729 114.068 71.5549 115.342 74.125C116.616 76.6951 117.253 79.7443 117.253 83.2727ZM113.333 83.2727C113.333 80.3759 112.848 77.9311 111.879 75.9382C110.92 73.9453 109.619 72.437 107.975 71.4134C106.341 70.3897 104.512 69.8778 102.486 69.8778C100.46 69.8778 98.6254 70.3897 96.981 71.4134C95.3475 72.437 94.0461 73.9453 93.0769 75.9382C92.1185 77.9311 91.6394 80.3759 91.6394 83.2727C91.6394 86.1695 92.1185 88.6143 93.0769 90.6072C94.0461 92.6001 95.3475 94.1084 96.981 95.1321C98.6254 96.1558 100.46 96.6676 102.486 96.6676C104.512 96.6676 106.341 96.1558 107.975 95.1321C109.619 94.1084 110.92 92.6001 111.879 90.6072C112.848 88.6143 113.333 86.1695 113.333 83.2727ZM139.355 89.7415V74.9091H143.21V100H139.355V95.7528H139.093C138.505 97.027 137.59 98.1106 136.349 99.0036C135.107 99.8857 133.539 100.327 131.644 100.327C130.076 100.327 128.682 99.9837 127.463 99.2976C126.243 98.6006 125.285 97.5552 124.588 96.1612C123.891 94.7564 123.542 92.9867 123.542 90.8523V74.9091H127.397V90.5909C127.397 92.4205 127.909 93.8797 128.933 94.9688C129.967 96.0578 131.285 96.6023 132.886 96.6023C133.844 96.6023 134.819 96.3572 135.81 95.8672C136.812 95.3771 137.65 94.6257 138.325 93.6129C139.012 92.6001 139.355 91.3097 139.355 89.7415ZM160.79 100.523C158.373 100.523 156.287 99.9891 154.534 98.9219C152.792 97.8438 151.447 96.3409 150.499 94.4134C149.563 92.4749 149.094 90.2206 149.094 87.6506C149.094 85.0805 149.563 82.8153 150.499 80.8551C151.447 78.884 152.764 77.3485 154.452 76.2486C156.151 75.1378 158.133 74.5824 160.398 74.5824C161.705 74.5824 162.996 74.8002 164.27 75.2358C165.544 75.6714 166.704 76.3793 167.749 77.3594C168.795 78.3286 169.628 79.6136 170.249 81.2145C170.869 82.8153 171.18 84.7865 171.18 87.1278V88.7614H151.839V85.429H167.259C167.259 84.0133 166.976 82.75 166.41 81.6392C165.854 80.5284 165.059 79.6518 164.025 79.0092C163.001 78.3667 161.792 78.0455 160.398 78.0455C158.863 78.0455 157.534 78.4266 156.413 79.1889C155.302 79.9403 154.447 80.9205 153.848 82.1293C153.249 83.3381 152.95 84.634 152.95 86.017V88.2386C152.95 90.1335 153.276 91.7398 153.93 93.0575C154.594 94.3643 155.514 95.3608 156.69 96.0469C157.866 96.7221 159.233 97.0597 160.79 97.0597C161.803 97.0597 162.718 96.9181 163.535 96.6349C164.362 96.3409 165.076 95.9053 165.675 95.3281C166.274 94.7401 166.737 94.0104 167.063 93.1392L170.788 94.1847C170.396 95.4479 169.737 96.5587 168.811 97.517C167.885 98.4645 166.742 99.205 165.381 99.7386C164.019 100.261 162.489 100.523 160.79 100.523ZM177.044 100V74.9091H180.768V78.6989H181.03C181.487 77.4574 182.315 76.45 183.513 75.6768C184.711 74.9036 186.061 74.517 187.564 74.517C187.847 74.517 188.201 74.5225 188.626 74.5334C189.05 74.5443 189.372 74.5606 189.589 74.5824V78.5028C189.459 78.4702 189.159 78.4212 188.691 78.3558C188.234 78.2796 187.749 78.2415 187.237 78.2415C186.018 78.2415 184.929 78.4974 183.97 79.0092C183.023 79.5102 182.271 80.2071 181.716 81.1001C181.171 81.9822 180.899 82.9896 180.899 84.1222V100H177.044ZM197.406 109.409C196.752 109.409 196.17 109.355 195.658 109.246C195.146 109.148 194.792 109.05 194.596 108.952L195.576 105.554C196.513 105.794 197.341 105.881 198.059 105.815C198.778 105.75 199.415 105.429 199.971 104.852C200.537 104.285 201.054 103.365 201.522 102.091L202.241 100.131L192.963 74.9091H197.145L204.071 94.9034H204.332L211.258 74.9091H215.44L204.789 103.659C204.31 104.955 203.717 106.028 203.009 106.877C202.301 107.737 201.479 108.375 200.542 108.788C199.617 109.202 198.571 109.409 197.406 109.409Z" fill="black"/>
</svg>
