<svg width="260" height="171" viewBox="0 0 260 171" fill="none" xmlns="http://www.w3.org/2000/svg">
<rect width="260" height="171" fill="#F5F5F5"/>
<rect width="260" height="171" fill="#FFF4A3"/>
<path d="M87.6168 66.5455L96.2418 80.4631H96.5032L105.128 66.5455H109.898L99.3782 83.2727L109.898 100H105.128L96.5032 86.3438H96.2418L87.6168 100H82.8469L93.6282 83.2727L82.8469 66.5455H87.6168ZM133.466 74.9091C133.27 73.2538 132.475 71.9688 131.081 71.054C129.687 70.1392 127.977 69.6818 125.952 69.6818C124.47 69.6818 123.175 69.9214 122.064 70.4006C120.964 70.8797 120.104 71.5386 119.483 72.3771C118.873 73.2157 118.568 74.1686 118.568 75.2358C118.568 76.1288 118.78 76.8965 119.205 77.5391C119.641 78.1707 120.196 78.6989 120.871 79.1236C121.546 79.5374 122.254 79.8804 122.995 80.1527C123.735 80.4141 124.416 80.6264 125.037 80.7898L128.434 81.7045C129.306 81.9332 130.275 82.2491 131.342 82.652C132.42 83.0549 133.449 83.6049 134.43 84.3018C135.421 84.9879 136.237 85.87 136.88 86.9482C137.522 88.0263 137.844 89.3494 137.844 90.9176C137.844 92.7254 137.37 94.3589 136.422 95.8182C135.486 97.2775 134.114 98.4373 132.306 99.2976C130.509 100.158 128.326 100.588 125.756 100.588C123.36 100.588 121.285 100.201 119.532 99.4283C117.789 98.6551 116.417 97.5769 115.415 96.1939C114.424 94.8108 113.863 93.2045 113.733 91.375H117.915C118.023 92.6383 118.448 93.6837 119.189 94.5114C119.94 95.3281 120.888 95.938 122.031 96.3409C123.185 96.733 124.427 96.929 125.756 96.929C127.302 96.929 128.69 96.6785 129.921 96.1776C131.152 95.6657 132.126 94.9579 132.845 94.054C133.564 93.1392 133.923 92.072 133.923 90.8523C133.923 89.7415 133.613 88.8376 132.992 88.1406C132.371 87.4437 131.555 86.8774 130.542 86.4418C129.529 86.0062 128.434 85.625 127.258 85.2983L123.142 84.1222C120.528 83.3707 118.459 82.2981 116.934 80.9041C115.41 79.5102 114.648 77.6861 114.648 75.4318C114.648 73.5587 115.154 71.9252 116.167 70.5312C117.19 69.1264 118.563 68.0374 120.283 67.2642C122.015 66.4801 123.948 66.0881 126.082 66.0881C128.238 66.0881 130.155 66.4747 131.832 67.2479C133.509 68.0102 134.838 69.0556 135.818 70.3842C136.809 71.7128 137.332 73.2211 137.386 74.9091H133.466ZM144.504 100V66.5455H148.555V96.4062H164.107V100H144.504ZM164.102 70.1392V66.5455H189.193V70.1392H178.673V100H174.622V70.1392H164.102Z" fill="black"/>
</svg>
